<?xml version="1.0" encoding="utf-8" ?>
<svg baseProfile="tiny" height="100%" version="1.2" viewBox="0 0 1400 800" width="100%" xmlns="http://www.w3.org/2000/svg" xmlns:ev="http://www.w3.org/2001/xml-events" xmlns:xlink="http://www.w3.org/1999/xlink"><defs /><path d="M 70.13556200008117 52.89043055120615 A 6 6 0 0 1 82.08576350584411 53.66185912263472 L 82.08576350584411 64.16185912263472 A 6 6 0 0 1 81.99191130383429 65.21893915191151 L 76.16397367418563 97.7809590982374 A 5 5 0 0 0 83.2098511468386 103.18825412234193 L 128.12923946984367 82.10906912322031 A 10 10 0 0 1 137.37741475183265 99.82211316047912 L 128.93366706493435 104.69711316047912 A 10 10 0 0 1 125.68656929641918 105.88202716421002 L 99.35994748471266 110.56940212076928 A 5 5 0 0 0 97.08487783169694 119.37372761209383 L 137.89129048191128 152.50376935799042 A 6 6 0 0 1 131.8346455554013 162.71390324614458 L 70.39871349584358 137.5419694314094 A 15 15 0 0 1 61.210259741436744 121.73328769406329 L 70.13556200008117 52.89043055120615" /><path d="M 356.5726013158147 62.8647992967184 A 9 9 0 1 1 354.1284092441822 80.67147405694224 L 308.7798008685482 71.92483365085604 A 5 5 0 0 0 303.43802397575223 79.21873100797109 L 324.2594887013471 117.59647670010555 A 13 13 0 0 1 301.5745450392198 130.29587230866744 L 297.0745450392198 122.5016436746075 A 13 13 0 0 1 295.3403761310816 115.56009453054135 L 295.9998633300091 96.15480977008367 A 5 5 0 0 0 287.007085840822 92.97920844145752 L 246.12767020282539 147.32138627741503 A 6 6 0 0 1 235.84205984216692 141.2955837724267 L 269.1058366727911 65.78716602339402 A 15 15 0 0 1 284.0657520007463 56.885100106796585 L 356.5726013158147 62.8647992967184" /><path d="M 509.21744262844055 156.64317658294516 A 5 5 0 0 1 501.0009982054024 150.9973003879137 L 505.80099820540244 142.68345651158307 A 5 5 0 0 1 506.2975533012622 141.9735147191658 L 524.3345701284649 120.43225143273791 A 5 5 0 0 0 520.8237656566971 112.23273839898285 L 440.75014381199423 107.05290278011758 A 9 9 0 0 1 441.33112522432464 89.07167454570963 L 455.7311252243246 89.07167454570963 A 9 9 0 0 1 457.17248273436996 89.1878415594229 L 511.5303710520772 98.00713731586892 A 5 5 0 0 0 516.7232055722144 90.68219129243488 L 494.91171631981126 50.59075596958882 A 13 13 0 0 1 517.5894554735223 37.87809951107447 L 522.2394554735223 45.93213576626975 A 13 13 0 0 1 521.9846658139032 45.50955716480223 L 550.0275182122999 90.08408385170867 A 15 15 0 0 1 548.9900774366724 107.50930313080399 L 509.21744262844055 156.64317658294516" /><path d="M 598.776225015119 99.95897063089834 A 15 15 0 1 1 616.2384119238895 75.75454338220258 L 670.4074013293618 123.87647795251928 A 5 5 0 0 0 678.7273053206233 120.22928712621726 L 679.8809103372179 56.73244568951164 A 13 13 0 1 1 705.5020255899927 60.075565919910815 L 693.0236653180131 110.77359867190896 A 5 5 0 0 0 700.3703102992101 116.30358715004152 L 767.3088276134882 77.8305963615843 A 14 14 0 0 1 781.2851533493002 102.09294522711389 L 769.0741951559396 109.1429452271139 A 14 14 0 0 1 769.2253910155328 109.05438609026385 L 700.5407609574128 149.8640858414161 A 15 15 0 0 1 685.378765393563 149.9589706308983 L 598.776225015119 99.95897063089834" /><path d="M 975.9531408773653 64.95383790054797 A 11 11 0 0 1 975.5131408773652 86.94503437772914 L 960.5131408773652 86.94503437772914 A 11 11 0 0 1 958.4806911696148 86.75563788472473 L 901.4369816536154 76.03112369273114 A 5 5 0 0 0 895.9716069876624 83.03655772894496 L 919.6879018788303 134.53412141802028 A 9 9 0 1 1 902.9954711081064 141.2056317075444 L 888.4150526191423 98.48079821826471 A 5 5 0 0 0 879.5904922878327 97.22316756736436 L 852.1981840185858 136.24963862610028 A 10 10 0 0 1 835.3528868395208 125.50463481614877 L 840.0778868395208 117.32069475038581 A 10 10 0 0 1 839.6488664818033 118.15115149456238 L 861.8792292840224 69.69071949399397 A 15 15 0 0 1 876.1131408773653 60.95703918157299 L 975.9531408773653 64.95383790054797" /><path d="M 1147.1041741681984 120.73355830655022 A 8 8 0 0 1 1132.8518330608451 127.95178831038103 L 1128.0518330608452 119.63794443405041 A 8 8 0 0 1 1127.2112328099745 117.5473140869282 L 1120.8054114479148 91.48344152973935 A 5 5 0 0 0 1111.938915014973 89.69151280777648 L 1069.5932293997914 146.5866888996525 A 6 6 0 0 1 1059.9055712526717 139.50583456840243 L 1095.011963470906 90.59222475048482 A 5 5 0 0 0 1091.6120715208021 82.72083739784271 L 1044.7205766933548 76.45569873208936 A 8 8 0 0 1 1044.876810484669 60.57731455526785 L 1106.086487904024 53.622072631472356 A 15 15 0 0 1 1121.5127948106413 62.491981210994155 L 1147.1041741681984 120.73355830655022" /><path d="M 1368.330673027942 55.459959487200386 A 13 13 0 0 1 1368.0283474465468 81.45644359802182 L 1355.1283474465467 81.45644359802182 A 13 13 0 0 1 1351.5630186661942 80.95798073103029 L 1308.3996277466824 68.64816008532625 A 5 5 0 0 0 1302.4944270391136 75.56442029121828 L 1322.5961882614135 118.80009065004859 A 10 10 0 0 1 1304.8680934087024 128.01604403644137 L 1300.1430934087025 119.83210397067843 A 10 10 0 0 1 1298.9202017971515 116.3563848085939 L 1295.1397932523223 91.84493827367503 A 5 5 0 0 0 1286.1447861071777 89.67967878660299 L 1238.8924686310831 155.1077622485637 A 6 6 0 0 1 1228.8321950238403 148.5948823613279 L 1236.0321950238404 136.124116546832 A 6 6 0 0 1 1235.7330144349648 136.71552461547122 L 1268.2900149175916 62.43496376961981 A 15 15 0 0 1 1282.377184655849 53.46050039322786 L 1368.330673027942 55.459959487200386" /><path d="M 124.50505132860869 235.14271218850286 A 15 15 0 0 1 139.50505132860866 261.123474302036 L 130.2818807783044 266.448474302036 A 15 15 0 0 1 123.82336616255448 268.4218931702348 L 94.32072095977449 270.4752869558699 A 5 5 0 0 0 92.15909595309301 279.7882623200523 L 156.35016244830558 317.02297548885963 A 14 14 0 1 1 139.89444458945562 339.4797870819146 L 93.03613804553943 296.7679724653898 A 5 5 0 0 0 84.71206661722206 299.7999809308792 L 76.46422702467645 361.42898044524435 A 6 6 0 0 1 64.51724765991352 360.63309324526944 L 64.51724765991352 349.0830932452694 A 6 6 0 0 1 64.57424501319511 349.90815054091496 L 55.659741043117485 285.69573648438325 A 15 15 0 0 1 63.01724765991352 270.64271218850286 L 124.50505132860869 235.14271218850286" /><path d="M 253.19312798895692 374.9883692893166 A 7 7 0 1 1 247.4755790850005 362.2099966429978 L 303.45170124216276 337.8856518780005 A 5 5 0 0 0 304.35998692564607 329.2275488024543 L 259.7660055319782 297.46028513666 A 9 9 0 1 1 270.9715403265979 283.40729786294315 L 303.134689817524 312.03476395451924 A 5 5 0 0 0 311.4584335179441 308.3733754117007 L 312.61101173595165 229.93902432841477 A 13 13 0 0 1 338.6096083690541 230.13003629112063 L 338.6096083690541 244.38003629112063 A 13 13 0 0 1 338.6056203712994 244.05805486697201 L 340.60500683318327 324.75851926325686 A 15 15 0 0 1 331.8833149743734 338.7550355729692 L 253.19312798895692 374.9883692893166" /><path d="M 461.4501829550922 364.88741964299476 A 11 11 0 1 1 452.7985470015315 344.71980594599063 L 506.64714789703413 326.00275004510496 A 5 5 0 0 0 507.5182827957815 316.9571625538542 L 463.23081910704855 291.213750086861 A 14 14 0 1 1 480.8964838345207 269.9994651106972 L 506.20911682168435 299.5336929024841 A 5 5 0 0 0 515.004674007864 296.37369241017086 L 516.1584752722392 234.8662219070648 A 13 13 0 0 1 542.1519143871548 234.7767090063074 L 544.1512568168592 312.72542695502534 A 15 15 0 0 1 536.0290907925884 326.44282957148715 L 461.4501829550922 364.88741964299476" /><path d="M 699.7016332294347 358.91993782471855 A 8 8 0 0 1 686.2546720581419 350.2825037382411 L 691.8046720581418 340.66962175623377 A 8 8 0 0 1 692.8219575935657 339.2787913930439 L 717.0470718287776 312.7165279297971 A 5 5 0 0 0 713.262384159612 304.3480755867281 L 666.4539676180672 305.19417395641875 A 15 15 0 1 1 672.1085242974914 276.4166861289697 L 703.2076589520594 289.7899364346002 A 5 5 0 0 0 709.5195715562346 282.70803681316056 L 681.0401257385296 233.0787877042337 A 14 14 0 0 1 705.211529251368 218.94754051603343 L 743.0707188201502 282.5217630059311 A 15 15 0 0 1 742.4055464278249 298.8918127703379 L 699.7016332294347 358.91993782471855" /><path d="M 951.1369784587959 290.6053984570026 A 5 5 0 0 1 945.5005680369106 298.8294861415569 L 937.0568203500123 293.9544861415569 A 5 5 0 0 1 936.366343831969 293.47414607619635 L 914.0500284035764 274.97969918799527 A 5 5 0 0 0 905.8811246400805 278.3655226066366 L 898.6787149345557 355.6489080715231 A 7 7 0 0 1 884.7089167909221 354.9993591226347 L 884.7089167909221 341.0493591226347 A 7 7 0 0 1 884.7685929762513 340.1372706688577 L 891.6662909442584 287.65085087533254 A 5 5 0 0 0 884.6278173915779 282.453039150388 L 843.9095913625441 301.09199906712814 A 10 10 0 0 1 834.0430960844099 283.7858944654647 L 883.1524720717532 249.6791621368797 A 15 15 0 0 1 901.1181480565776 250.31747712573835 L 951.1369784587959 290.6053984570026" /><path d="M 1161.3025712853967 318.3192801755358 A 13 13 0 1 1 1136.9707744589637 326.30559255887937 L 1132.4556693175334 295.0547713606799 A 5 5 0 0 0 1123.4688936252437 292.82130925543896 L 1094.605864455639 332.35192130145356 A 9 9 0 0 1 1079.5429505142035 322.5447361810398 L 1084.3429505142035 314.2308923047092 A 9 9 0 0 1 1086.1555920399817 312.0062647562096 L 1105.8301560783866 294.50564962705744 A 5 5 0 0 0 1102.8219848107053 285.7796735495747 L 1020.7703003218081 280.60123972980506 A 9 9 0 0 1 1020.7861587401002 262.6359941473469 L 1118.4188118013246 256.6472500196877 A 15 15 0 0 1 1132.5664777680324 264.5490567302004 L 1161.3025712853967 318.3192801755358" /><path d="M 1298.5473322874057 383.91720575031036 A 7 7 0 1 1 1287.1307438749907 375.81487949882154 L 1327.0279493614908 320.58614608614954 A 5 5 0 0 0 1323.3415577274345 312.6716836572594 L 1239.2183594473622 306.48604647527065 A 8 8 0 1 1 1240.6614192153033 290.5535569035951 L 1314.2697723913934 298.47885454494565 A 5 5 0 0 0 1319.226362156159 291.17268924663693 L 1280.078070999875 217.04181918727258 A 11 11 0 0 1 1299.1036765370452 206.0283964266497 L 1352.4850057614906 290.49397338100056 A 15 15 0 0 1 1352.109973564646 307.0859395925431 L 1298.5473322874057 383.91720575031036" /><path d="M 43.32082704661553 514.4551054213546 A 7 7 0 1 1 52.212214094388465 503.65123025350726 L 77.95785322705406 526.326372274023 A 5 5 0 0 0 86.22454098152268 523.1895291939103 L 95.45119673684155 448.78895150685963 A 5 5 0 0 1 105.41318640648761 449.40430385984604 L 105.41318640648761 462.90430385984604 A 5 5 0 0 1 105.3893393227445 463.39205600389874 L 100.43703349023072 513.9165517157934 A 5 5 0 0 0 107.518926640563 518.9392634039431 L 160.7087338652004 494.2413766804715 A 9 9 0 0 1 169.6162145604132 509.80800520060507 L 108.94176686294941 551.7438060944445 A 15 15 0 0 1 91.27430841572763 551.2988786345071 L 43.32082704661553 514.4551054213546" /><path d="M 311.53397104153987 563.6482787428179 A 13 13 0 1 1 291.76243761050387 547.1685924964543 L 320.99127244294294 520.792936782558 A 5 5 0 0 0 317.96432826885945 512.0912998054328 L 237.89070642415663 506.91146418656757 A 9 9 0 1 1 239.61769211243924 489.00349667068065 L 308.8350187942914 497.8895355529812 A 5 5 0 0 0 313.7612071787995 490.3611848020407 L 286.60312980954956 445.0156111376055 A 15 15 0 1 1 312.4620688932536 429.8084576872489 L 347.4620688932536 490.4302359521596 A 15 15 0 0 1 347.2358607653942 505.8090613367556 L 311.53397104153987 563.6482787428179" /><path d="M 489.9070355185558 587.1332492137751 A 6 6 0 0 1 480.0918462269483 580.2296902340715 L 520.2875343921481 522.5295459281339 A 5 5 0 0 0 516.1205908257962 514.6719324150267 L 450.2079190480863 515.5196434405576 A 15 15 0 1 1 453.93936719252076 486.04333279519267 L 506.70690179657345 500.3467342022042 A 5 5 0 0 0 512.742250500004 493.89199641815264 L 496.78778579111656 447.5901708443303 A 5 5 0 0 1 505.8451451644825 443.46128341203166 L 510.5701451644825 451.6452234777946 A 5 5 0 0 1 510.0271209768719 450.88058687549545 L 544.3763266394952 490.7269740435538 A 15 15 0 0 1 545.2450615780492 509.20570035049536 L 489.9070355185558 587.1332492137751" /><path d="M 654.2792543215871 430.4444786404096 A 14 14 0 0 1 682.2784272650216 430.59665255345305 L 682.2784272650216 444.39665255345307 A 14 14 0 0 1 681.7718900845449 448.1284699576332 L 668.4593334009062 496.2638606233887 A 5 5 0 0 0 675.4913965617372 502.0802634745516 L 733.1345209743456 473.62943071125596 A 10 10 0 0 1 742.5604595677768 491.2569065912975 L 732.1681547223634 497.2569065912975 A 10 10 0 0 1 729.9846986870257 498.191811754588 L 691.0207903773014 509.6291999718078 A 5 5 0 0 0 689.4625998443519 518.4517143725224 L 741.7135070891698 556.9617438332472 A 7 7 0 0 1 734.0604595677768 568.6588303799441 L 723.6681547223634 562.6588303799441 A 7 7 0 0 1 724.4056579633348 563.0284961193645 L 662.3587913528173 536.379174480406 A 15 15 0 0 1 653.2793133970561 522.4336090751922 L 654.2792543215871 430.4444786404096" /><path d="M 891.6490726424421 446.4902275434701 A 9 9 0 0 1 906.7654627566948 456.22338636563313 L 902.1154627566948 464.2774226208284 A 9 9 0 0 1 900.1549575849289 466.6307189492735 L 881.5604036625047 482.45893945652125 A 5 5 0 0 0 884.0504968070561 491.2096250778514 L 932.022444190936 498.49634311919675 A 7 7 0 0 1 930.9712341226348 512.4169614002683 L 921.5212341226347 512.4169614002683 A 7 7 0 0 1 919.7657714338488 512.1932694473011 L 894.2251360431961 505.57674136667356 A 5 5 0 0 0 888.5243952003375 512.7029236919831 L 918.2542797516888 570.5359020650354 A 11 11 0 0 1 899.2281823528313 581.5287422711351 L 855.3670726183572 513.5493111698053 A 15 15 0 0 1 855.7676316556469 496.69503002999664 L 891.6490726424421 446.4902275434701" /><path d="M 1157.7829053293262 484.7676002550641 A 9 9 0 1 1 1146.2021200963845 498.47324878928566 L 1122.381144960064 474.8605161317808 A 5 5 0 0 0 1113.8618552833798 478.32855353057954 L 1112.7087409392211 547.7971686028169 A 13 13 0 0 1 1086.7105315083388 547.5814104258683 L 1086.7105315083388 534.6814104258683 A 13 13 0 0 1 1087.2089943753303 531.1160816455157 L 1099.5188150210345 487.9526907260039 A 5 5 0 0 0 1092.7506526565137 481.98153272247566 L 1037.502456617061 505.521239210618 A 7 7 0 0 1 1030.6319619946798 493.4271516473657 L 1090.8676795872827 449.4651416147913 A 15 15 0 0 1 1108.4519051585664 449.39172680786135 L 1157.7829053293262 484.7676002550641" /><path d="M 1258.4773802647708 556.950303777831 A 5 5 0 0 1 1253.957479876867 548.046337843627 L 1266.0385342596599 541.0713378436269 A 5 5 0 0 1 1266.4516466227453 540.8577989427336 L 1314.9340949711232 518.5900037634426 A 5 5 0 0 0 1315.9627050691233 510.13562513828276 L 1267.1983886025032 471.2871775678935 A 5 5 0 0 1 1273.2204993841328 463.3080990239518 L 1314.9405942874937 493.1147036822244 A 5 5 0 0 0 1322.8069839711898 489.6792799509759 L 1331.0461104644423 425.11693433373057 A 6 6 0 0 1 1342.9597527770218 425.2014648625492 L 1351.902618299325 504.1889648625492 A 15 15 0 0 1 1343.0575435925311 519.5979816083945 L 1258.4773802647708 556.950303777831" /><path d="M 161.74646828942528 711.3435584210841 A 11 11 0 1 1 141.11207594734515 718.4544965157435 L 134.44443670118727 686.5085642726065 A 5 5 0 0 0 125.19444747682684 685.0745361362277 L 84.4464216772354 757.3488260991973 A 15 15 0 1 1 58.389655234354045 742.4820375898448 L 65.88965523435402 729.4916565330782 A 15 15 0 0 1 68.2065635257716 726.4523501456847 L 108.10773352731479 686.043234435143 A 5 5 0 0 0 105.03723984268512 677.5539380860212 L 41.6003073783419 671.3414079633861 A 8 8 0 0 1 41.671175531626965 655.4109643211099 L 120.05092236707 648.4384980421053 A 15 15 0 0 1 134.83426174335426 656.7474675461725 L 161.74646828942528 711.3435584210841" /><path d="M 369.2449932870038 659.9429498415021 A 9 9 0 1 1 367.1883119912707 677.8088882108311 L 311.37554581408443 668.9808005554704 A 5 5 0 0 0 306.2569270904897 676.4066523517537 L 331.7392894806167 720.8448333726373 A 14 14 0 0 1 307.47003522438314 734.8091307468696 L 302.3700352243831 725.9756716282684 A 14 14 0 0 1 300.5240782739007 719.8869157017642 L 298.7536612168232 692.744594072176 A 5 5 0 0 0 289.92234157265324 689.8700957049723 L 254.93631316315506 731.8750988298207 A 5 5 0 0 1 246.76426385844306 726.1751561506542 L 251.93926385844307 717.2117932214852 A 5 5 0 0 1 251.57641175660177 717.9866998987695 L 271.5154535150748 663.7441233213809 A 15 15 0 0 1 286.6787282267628 653.9586475428183 L 369.2449932870038 659.9429498415021" /><path d="M 446.01263875806825 685.0465063021257 A 12 12 0 0 1 467.0753980906827 673.5563878119137 L 471.7253980906827 681.610424067109 A 12 12 0 0 1 473.3157803072504 686.9660555586966 L 474.5204339883662 709.3678146304431 A 5 5 0 0 0 483.6626534008492 711.8889880617979 L 517.8842269719544 660.986686135427 A 10 10 0 0 1 534.8433472831139 671.5660067551471 L 529.0683472831139 681.5686001688574 A 10 10 0 0 1 527.5347905494393 683.5835973559373 L 500.94987161210673 710.591829158398 A 5 5 0 0 0 504.5004964675125 719.0993115624116 L 563.718719875971 719.2500081772229 A 14 14 0 0 1 563.8673037715853 747.2487508827325 L 487.8804616663221 748.2486643138884 A 15 15 0 0 1 474.34502513626796 740.1126109593139 L 446.01263875806825 685.0465063021257" /><path d="M 704.4679263944247 766.3348976059776 A 9 9 0 0 1 689.2251622433054 756.7832326674544 L 695.4501622433054 746.0012163903382 A 9 9 0 0 1 696.5064095569807 744.5346757069817 L 725.4325868142123 711.8685040720438 A 5 5 0 0 0 722.0741676567505 703.5685963553276 L 654.8265640404118 698.3764173600788 A 9 9 0 0 1 655.5193908773653 680.403124153346 L 667.9693908773653 680.403124153346 A 9 9 0 0 1 669.767576021673 680.5845908179896 L 712.5203991305276 689.302309339655 A 5 5 0 0 0 718.0609247670681 682.3116008021302 L 694.3446298759002 630.8140371130548 A 9 9 0 0 1 709.9115090688182 621.915428249365 L 750.8395878631202 680.8466794341771 A 15 15 0 0 1 750.9336167391309 697.8225657175514 L 704.4679263944247 766.3348976059776" /><path d="M 840.5639886784372 707.9090122599222 A 12 12 0 0 1 852.9917907844704 687.3834275858613 L 862.3448651453423 692.7834275858613 A 12 12 0 0 1 865.5183797852798 695.4396721192778 L 886.3726869956985 720.1689638756844 A 5 5 0 0 0 895.1872608628671 717.2234171041429 L 899.3610676558936 642.2201090476935 A 10 10 0 1 1 919.2288086854812 644.299733277598 L 909.4040254426843 708.0137320081129 A 5 5 0 0 0 916.5285407969702 713.2740494687478 L 969.065657856958 687.7790983563283 A 10 10 0 0 1 979.005225539902 705.07835735801 L 917.7062085613054 746.2296698213776 A 15 15 0 0 1 901.3108672244085 746.4423322170841 L 840.5639886784372 707.9090122599222" /><path d="M 1099.5905025439558 786.9311163423595 A 12 12 0 1 1 1080.0911306583275 773.0284003459276 L 1126.424308532033 716.3341622954555 A 5 5 0 0 0 1122.719491864831 708.1729236370568 L 1057.982690659612 706.0128327476405 A 12 12 0 0 1 1058.3828752884176 682.0195074263266 L 1070.5328752884177 682.0195074263266 A 12 12 0 0 1 1073.8707981830019 682.49309121183 L 1112.9920740823409 693.8221808490335 A 5 5 0 0 0 1118.670774977583 686.4477538892133 L 1092.5191762209213 642.8450405803247 A 15 15 0 1 1 1118.3732563451842 627.6297799689848 L 1152.3732563451842 686.5195074263266 A 15 15 0 0 1 1152.1424093578403 701.9058430983127 L 1099.5905025439558 786.9311163423595" /><path d="M 1365.1899216204636 651.1115577744862 A 14 14 0 1 1 1360.9392975487108 678.5082175616649 L 1317.4512448893329 665.325301499762 A 5 5 0 0 0 1311.6646583595111 672.5999504019409 L 1343.1417398322114 727.4212329383193 A 14 14 0 1 1 1317.482301771043 738.0326458306987 L 1303.9986163624349 687.960795177845 A 5 5 0 0 0 1294.9499648043266 686.5802069760556 L 1254.786141768931 749.8161477197308 A 11 11 0 0 1 1235.9744529896457 738.418591155173 L 1242.7994529896457 726.5973443935154 A 11 11 0 0 1 1242.527777804531 727.0973358802947 L 1277.639885212988 658.2920859836701 A 15 15 0 0 1 1291.203435133977 650.1116490861789 L 1365.1899216204636 651.1115577744862" /></svg>