<?xml version="1.0" encoding="utf-8" ?>
<svg baseProfile="tiny" height="100%" version="1.2" width="100%" xmlns="http://www.w3.org/2000/svg" xmlns:ev="http://www.w3.org/2001/xml-events" xmlns:xlink="http://www.w3.org/1999/xlink"><defs /><line stroke="green" x1="500.0" x2="100.0" y1="35.0" y2="35.0" /><circle cx="100.0" cy="35.0" r="3" stroke="green" /><line stroke="green" x1="480.4677" x2="98.9546" y1="161.9959" y2="41.7973" /><circle cx="98.9546" cy="41.7973" r="3" stroke="green" /><line stroke="green" x1="100.0" x2="180.0" y1="165.0" y2="165.0" /><circle cx="180.0" cy="165.0" r="3" stroke="green" /><line stroke="green" x1="100.0" x2="180.0" y1="35.0" y2="35.0" /><circle cx="180.0" cy="35.0" r="3" stroke="green" /><line stroke="green" x1="227.0989" x2="262.6096" y1="144.7961" y2="107.4599" /><circle cx="262.6096" cy="107.4599" r="3" stroke="green" /><line stroke="green" x1="180.0" x2="128.4733" y1="165.0" y2="165.0" /><circle cx="128.4733" cy="165.0" r="3" stroke="green" /><line stroke="green" x1="287.2119" x2="480.4677" y1="101.1092" y2="161.9959" /><circle cx="480.4677" cy="161.9959" r="3" stroke="green" /><line stroke="green" x1="262.6096" x2="122.9696" y1="107.4599" y2="254.2784" /><circle cx="122.9696" cy="254.2784" r="3" stroke="green" /><path d="M 480.46773362465996 161.99589155938287 A 65 65 0 1 0 500.0 35.0 L 100.0 35.0 A 65 65 0 1 0 100.0 165.0 L 180.0 165.0 A 65 65 0 0 0 227.09893724521118 144.79609481162012 L 262.60962317099893 107.45990345417103 A 24 24 0 0 1 287.2119137385871 101.10920927038171 L 480.46773362465996 161.99589155938287" /><circle cx="500" cy="100" fill-opacity="0" r="65" stroke="blue" /><circle cx="100" cy="100" fill-opacity="0" r="65" stroke="blue" /><circle cx="180" cy="100" fill-opacity="0" r="65" stroke="blue" /><circle cx="280" cy="124" fill-opacity="0" r="24" stroke="blue" /></svg>