<?xml version="1.0" encoding="utf-8" ?>
<svg baseProfile="tiny" height="100%" version="1.2" viewBox="0 0 1400 800" width="100%" xmlns="http://www.w3.org/2000/svg" xmlns:ev="http://www.w3.org/2001/xml-events" xmlns:xlink="http://www.w3.org/1999/xlink"><defs /><path d="M 67.4222227190249 70.50380488754398 A 10 10 0 0 1 67.38480161152077 71.36810912263473 L 67.38480161152077 40.21810912263473 A 10 10 0 0 1 87.38480161152077 40.21810912263473 L 87.38480161152077 71.36810912263473 A 10 10 0 0 1 86.96470925702248 74.23609962186202 L 77.59484778876993 105.53411387302108 A 5 5 0 0 0 84.78020844177036 111.35696160564137 L 149.67024888783666 75.94040415662143 A 10 10 0 1 1 158.09916307302316 94.03284071148204 L 97.33481658338087 117.76587034713327 A 5 5 0 0 0 96.55071251710316 126.69214555045515 L 159.66737120557858 165.18029030483828 A 10 10 0 0 1 149.95549032764774 182.6455846316554 L 70.62644328048864 142.60932238616573 A 15 15 0 0 1 62.440933272776974 127.9216527699986 L 67.4222227190249 70.50380488754398" /><circle cx="77.38480161152077" cy="71.36810912263473" fill-opacity="0" r="10" stroke="blue" /><circle cx="77.38480161152077" cy="40.21810912263473" fill-opacity="0" r="10" stroke="blue" /><circle cx="77.38480161152077" cy="71.36810912263473" fill-opacity="0" r="10" stroke="blue" /><circle cx="82.38480161152077" cy="106.96810912263473" fill-opacity="0" r="5" stroke="blue" /><circle cx="154.46106254833583" cy="84.71810912263473" fill-opacity="0" r="10" stroke="blue" /><circle cx="99.15386684572454" cy="122.42323614155693" fill-opacity="0" r="5" stroke="blue" /><circle cx="154.46106254833583" cy="173.71810912263473" fill-opacity="0" r="10" stroke="blue" /><circle cx="77.38480161152077" cy="129.21810912263473" fill-opacity="0" r="15" stroke="blue" /><path d="M 349.3772741643968 180.32649096276177 A 10 10 0 1 1 329.49876654370405 178.3260045115413 L 339.3386970034405 111.51151679706764 A 5 5 0 0 0 332.1313969123001 106.3232557896545 L 292.1250475796755 126.60252652636765 A 10 10 0 0 1 292.6037343705523 126.34326673973662 L 264.71771636869335 142.44326673973663 A 10 10 0 1 1 254.71771636869335 125.12275866404785 L 282.6037343705523 109.02275866404786 A 10 10 0 0 1 285.19886094395565 107.97648995674558 L 318.17590594311787 99.80614705554333 A 5 5 0 0 0 319.7054037082399 90.76522117806773 L 282.1398654137116 66.25834171169674 A 10 10 0 0 1 282.6037343705522 66.5432667397366 L 254.7177163686933 50.4432667397366 A 10 10 0 1 1 264.7177163686933 33.12275866404782 L 292.6037343705522 49.222758664047824 A 10 10 0 0 1 291.8621247759238 48.835023358649195 L 345.7796391249191 74.21102868702768 A 15 15 0 0 1 354.36988448816436 88.59823009319655 L 349.3772741643968 180.32649096276177" /><circle cx="339.39205351686167" cy="179.7830127018922" fill-opacity="0" r="10" stroke="blue" /><circle cx="334.39205351686167" cy="110.7830127018922" fill-opacity="0" r="5" stroke="blue" /><circle cx="287.6037343705523" cy="117.68301270189224" fill-opacity="0" r="10" stroke="blue" /><circle cx="259.71771636869335" cy="133.78301270189223" fill-opacity="0" r="10" stroke="blue" /><circle cx="287.6037343705523" cy="117.68301270189224" fill-opacity="0" r="10" stroke="blue" /><circle cx="316.97346922981956" cy="94.95288568297" fill-opacity="0" r="5" stroke="blue" /><circle cx="287.6037343705522" cy="57.88301270189221" fill-opacity="0" r="10" stroke="blue" /><circle cx="259.7177163686933" cy="41.78301270189221" fill-opacity="0" r="10" stroke="blue" /><circle cx="287.6037343705522" cy="57.88301270189221" fill-opacity="0" r="10" stroke="blue" /><circle cx="339.39205351686167" cy="87.7830127018922" fill-opacity="0" r="15" stroke="blue" /><path d="M 535.0206626269248 132.56514165436607 A 10 10 0 0 1 535.050894836623 131.7881408773653 L 535.050894836623 166.43814087736527 A 10 10 0 0 1 515.050894836623 166.43814087736527 L 515.050894836623 131.7881408773653 A 10 10 0 0 1 515.3861378912349 129.22055968360115 L 524.8832733093171 93.4719314742473 A 5 5 0 0 0 517.7595983225161 87.74404813705915 L 443.8969728901773 125.82632635797755 A 10 10 0 1 1 435.5320826976066 107.68102317472709 L 503.00791467513653 80.11157270976219 A 5 5 0 0 0 503.81981504578374 71.27664649947073 L 433.90828195631224 26.350875595310015 A 10 10 0 0 1 443.870612322399 9.036413754695525 L 531.8852435272762 54.08555019336063 A 15 15 0 0 1 540.0055465220757 68.60364204286644 L 535.0206626269248 132.56514165436607" /><circle cx="525.050894836623" cy="131.7881408773653" fill-opacity="0" r="10" stroke="blue" /><circle cx="525.050894836623" cy="166.43814087736527" fill-opacity="0" r="10" stroke="blue" /><circle cx="525.050894836623" cy="131.7881408773653" fill-opacity="0" r="10" stroke="blue" /><circle cx="520.050894836623" cy="92.18814087736527" fill-opacity="0" r="5" stroke="blue" /><circle cx="439.3143798619635" cy="116.9381408773653" fill-opacity="0" r="10" stroke="blue" /><circle cx="501.1167660929581" cy="75.48301385844309" fill-opacity="0" r="5" stroke="blue" /><circle cx="439.3143798619635" cy="17.938140877365285" fill-opacity="0" r="10" stroke="blue" /><circle cx="525.050894836623" cy="67.43814087736527" fill-opacity="0" r="15" stroke="blue" /><path d="M 787.1940360129297 100.99146968330773 A 10 10 0 1 1 775.6060803494573 117.26915516947862 L 719.3250289401461 73.39426767945231 A 5 5 0 0 0 711.2556092644678 77.12134119322381 L 707.7404555337235 158.31500814193558 A 10 10 0 1 1 687.8456530264438 156.50132150829603 L 697.701894476335 85.82305749112139 A 5 5 0 0 0 690.4394442937976 80.69827181507173 L 618.3660892244282 118.25089286039542 A 10 10 0 0 1 608.3055919731462 100.99146968330776 L 689.5901772138361 48.29596510987179 A 15 15 0 0 1 705.9094507722398 48.29596510987178 L 787.1940360129297 100.99146968330773" /><circle cx="781.7542781601285" cy="109.38247883017962" fill-opacity="0" r="10" stroke="blue" /><circle cx="716.2509300348106" cy="77.33760584910182" fill-opacity="0" r="5" stroke="blue" /><circle cx="697.749813993038" cy="157.88247883017962" fill-opacity="0" r="10" stroke="blue" /><circle cx="692.749813993038" cy="85.13247883017962" fill-opacity="0" r="5" stroke="blue" /><circle cx="613.7453498259474" cy="109.38247883017965" fill-opacity="0" r="10" stroke="blue" /><circle cx="697.749813993038" cy="60.88247883017962" fill-opacity="0" r="15" stroke="blue" /><path d="M 912.3498376856796 55.67671873523957 A 10 10 0 0 1 911.3678801315258 56.173720558371166 L 932.5855025242446 43.923720558371166 A 10 10 0 0 1 942.5855025242446 61.244228634059944 L 921.3678801315258 73.49422863405995 A 10 10 0 0 1 917.8108574535711 74.72931776601331 L 893.8976801645388 78.21643003023888 A 5 5 0 0 0 892.3004947664903 87.59397188499781 L 942.2228506423871 113.72423405649545 A 10 10 0 1 1 931.0138171428915 130.12141124593347 L 892.905011516238 96.8953832902788 A 5 5 0 0 0 884.6326450936285 101.03095454325637 L 886.9367717231997 132.3502687399782 A 10 10 0 0 1 886.9637242593338 133.08397459621557 L 886.9637242593338 157.58397459621557 A 10 10 0 0 1 866.9637242593338 157.58397459621557 L 866.9637242593338 133.08397459621557 A 10 10 0 0 1 867.0242868318517 134.18287569511665 L 862.0545681181105 89.23232624456719 A 15 15 0 0 1 870.9366605905647 73.84809080475158 L 912.3498376856796 55.67671873523957" /><circle cx="916.3678801315258" cy="64.83397459621555" fill-opacity="0" r="10" stroke="blue" /><circle cx="937.5855025242446" cy="52.583974596215555" fill-opacity="0" r="10" stroke="blue" /><circle cx="916.3678801315258" cy="64.83397459621555" fill-opacity="0" r="10" stroke="blue" /><circle cx="894.6191688255615" cy="83.16410161513775" fill-opacity="0" r="5" stroke="blue" /><circle cx="937.5855025242446" cy="122.58397459621555" fill-opacity="0" r="10" stroke="blue" /><circle cx="889.6191688255615" cy="100.66410161513775" fill-opacity="0" r="5" stroke="blue" /><circle cx="876.9637242593338" cy="133.08397459621557" fill-opacity="0" r="10" stroke="blue" /><circle cx="876.9637242593338" cy="157.58397459621557" fill-opacity="0" r="10" stroke="blue" /><circle cx="876.9637242593338" cy="133.08397459621557" fill-opacity="0" r="10" stroke="blue" /><circle cx="876.9637242593338" cy="87.58397459621555" fill-opacity="0" r="15" stroke="blue" /><path d="M 1052.2875432189026 86.10515897367401 A 10 10 0 0 1 1052.743720558371 86.9953318553215 L 1039.2687205583711 63.65594722333087 A 10 10 0 0 1 1056.58922863406 53.65594722333093 L 1070.0642286340599 76.99533185532155 A 10 10 0 0 1 1071.2368925179562 80.17496784108972 L 1076.2176426542674 107.07909629899818 A 5 5 0 0 0 1085.4967757200936 108.61167393088621 L 1116.2036263863035 53.77042794532293 A 10 10 0 1 1 1132.5839318078745 65.09035707099133 L 1096.5566230093082 107.951709368052 A 5 5 0 0 0 1100.499461936696 116.1675833143531 L 1136.2482539530988 115.34256526979091 A 10 10 0 0 1 1136.4789745962155 115.33990331473267 L 1163.4289745962155 115.33990331473267 A 10 10 0 0 1 1163.4289745962155 135.33990331473268 L 1136.4789745962155 135.33990331473268 A 10 10 0 0 1 1137.4779755952165 135.28987803851942 L 1087.9274760947171 140.2648654004128 A 15 15 0 0 1 1072.7543275302462 131.5046439922614 L 1052.2875432189026 86.10515897367401" /><circle cx="1061.4039745962154" cy="81.99533185532152" fill-opacity="0" r="10" stroke="blue" /><circle cx="1047.9289745962155" cy="58.6559472233309" fill-opacity="0" r="10" stroke="blue" /><circle cx="1061.4039745962154" cy="81.99533185532152" fill-opacity="0" r="10" stroke="blue" /><circle cx="1081.1341016151378" cy="106.16891429188222" fill-opacity="0" r="5" stroke="blue" /><circle cx="1124.9289745962155" cy="58.655947223330884" fill-opacity="0" r="10" stroke="blue" /><circle cx="1100.3841016151378" cy="111.16891429188222" fill-opacity="0" r="5" stroke="blue" /><circle cx="1136.4789745962155" cy="125.33990331473267" fill-opacity="0" r="10" stroke="blue" /><circle cx="1163.4289745962155" cy="125.33990331473267" fill-opacity="0" r="10" stroke="blue" /><circle cx="1136.4789745962155" cy="125.33990331473267" fill-opacity="0" r="10" stroke="blue" /><circle cx="1086.4289745962155" cy="125.33990331473267" fill-opacity="0" r="15" stroke="blue" /><path d="M 1236.6907625565236 101.90751859894131 A 10 10 0 1 1 1248.929903075396 86.13968965417752 L 1285.6733608353793 118.5575599087196 A 5 5 0 0 0 1293.9748942078904 114.555078126694 L 1291.2165637877158 60.144653218228896 A 10 10 0 1 1 1311.0057188420758 61.61855252295564 L 1301.302748545046 109.64825549325268 A 5 5 0 0 0 1308.91976613272 114.83635339319882 L 1354.6614111240692 85.2423567230635 A 10 10 0 0 1 1365.7167147315881 101.90751859894131 L 1309.6386115893413 140.0421006468351 A 15 15 0 0 1 1292.7688656987705 140.0421006468351 L 1236.6907625565236 101.90751859894131" /><circle cx="1242.314011186714" cy="93.6383545031537" fill-opacity="0" r="10" stroke="blue" /><circle cx="1288.9813067797204" cy="114.80822748423151" fill-opacity="0" r="5" stroke="blue" /><circle cx="1301.2037386440559" cy="59.63835450315371" fill-opacity="0" r="10" stroke="blue" /><circle cx="1306.2037386440559" cy="110.6383545031537" fill-opacity="0" r="5" stroke="blue" /><circle cx="1360.0934661013978" cy="93.6383545031537" fill-opacity="0" r="10" stroke="blue" /><circle cx="1301.2037386440559" cy="127.6383545031537" fill-opacity="0" r="15" stroke="blue" /><path d="M 147.6539674902685 265.2685473329094 A 10 10 0 1 1 144.67120523874524 284.9962871392142 L 101.43567119667532 275.3558205479639 A 5 5 0 0 0 96.43748760012043 283.352332744609 L 112.81757243185498 303.9040865184369 A 10 10 0 0 1 113.65776991520968 305.1367998508935 L 124.50776991520968 323.92955111301586 A 10 10 0 0 1 107.18726183952089 333.92955111301586 L 96.33726183952089 315.1367998508935 A 10 10 0 0 1 95.03610444166087 311.0144570781851 L 93.2480945762953 290.72054122339364 A 5 5 0 0 0 83.74597160498902 289.024706861259 L 62.89035038427343 333.1988770645768 A 10 10 0 1 1 44.812243566924344 324.6442443239774 L 71.29460741170388 268.8080158948229 A 15 15 0 0 1 86.05719329672013 260.28483296017384 L 147.6539674902685 265.2685473329094" /><circle cx="146.84751587736528" cy="275.23597607838065" fill-opacity="0" r="10" stroke="blue" /><circle cx="100.34751587736528" cy="280.23597607838065" fill-opacity="0" r="5" stroke="blue" /><circle cx="104.99751587736529" cy="310.1367998508935" fill-opacity="0" r="10" stroke="blue" /><circle cx="115.84751587736528" cy="328.92955111301586" fill-opacity="0" r="10" stroke="blue" /><circle cx="104.99751587736529" cy="310.1367998508935" fill-opacity="0" r="10" stroke="blue" /><circle cx="88.26738885844308" cy="291.15936983703943" fill-opacity="0" r="5" stroke="blue" /><circle cx="53.84751587736528" cy="328.92955111301586" fill-opacity="0" r="10" stroke="blue" /><circle cx="84.84751587736528" cy="275.23597607838065" fill-opacity="0" r="15" stroke="blue" /><path d="M 299.4130993474045 383.89288766969645 A 10 10 0 1 1 283.1849294399929 372.23861687096246 L 325.5036900158119 318.62719081898626 A 5 5 0 0 0 321.74940655118843 310.53214480773397 L 244.1934963692398 307.88834634151425 A 10 10 0 1 1 245.97536304846588 287.99854576744025 L 313.5636002304976 297.8419544567828 A 5 5 0 0 0 318.69697398873427 290.54312659778486 L 282.20861553199256 222.05583893348327 A 10 10 0 0 1 299.4130993474045 211.89541545097413 L 350.1025551028632 289.70659122422273 A 15 15 0 0 1 350.1025551028632 306.0817118964478 L 299.4130993474045 383.89288766969645" /><circle cx="291.03418783648704" cy="378.43451411228807" fill-opacity="0" r="10" stroke="blue" /><circle cx="321.5790608175648" cy="315.52924219832346" fill-opacity="0" r="5" stroke="blue" /><circle cx="244.53418783648704" cy="297.8941515603353" fill-opacity="0" r="10" stroke="blue" /><circle cx="314.28418783648704" cy="292.8941515603353" fill-opacity="0" r="5" stroke="blue" /><circle cx="291.03418783648704" cy="217.35378900838248" fill-opacity="0" r="10" stroke="blue" /><circle cx="337.53418783648704" cy="297.8941515603353" fill-opacity="0" r="15" stroke="blue" /><path d="M 560.4176966041846 333.4770851690602 A 10 10 0 1 1 542.0272501386823 341.25559521749943 L 523.6963114211977 289.9911905517294 A 5 5 0 0 0 514.6074510224876 289.2645762078828 L 485.2049709361027 342.7088239051927 A 10 10 0 1 1 468.8194193992259 331.4174993986144 L 504.05022679092593 289.91023846117196 A 5 5 0 0 0 500.1350630720962 281.67574729251527 L 439.1497468368854 282.9345764520948 A 10 10 0 0 1 438.2767090063074 262.9589531003391 L 512.9433756729741 257.97007658464054 A 15 15 0 0 1 527.4048570697898 266.31941676197283 L 560.4176966041846 333.4770851690602" /><circle cx="551.4433756729741" cy="337.8886114155692" fill-opacity="0" r="10" stroke="blue" /><circle cx="518.9882486540519" cy="291.6746824526945" fill-opacity="0" r="5" stroke="blue" /><circle cx="476.44337567297407" cy="337.8886114155692" fill-opacity="0" r="10" stroke="blue" /><circle cx="500.23824865405186" cy="286.6746824526945" fill-opacity="0" r="5" stroke="blue" /><circle cx="438.94337567297407" cy="272.9367061317363" fill-opacity="0" r="10" stroke="blue" /><circle cx="513.9433756729741" cy="272.9367061317363" fill-opacity="0" r="15" stroke="blue" /><path d="M 613.6313942434274 299.1097710096288 A 10 10 0 1 1 625.2354242693295 282.84403975603146 L 680.8496112155624 326.3303848577926 A 5 5 0 0 0 688.925280586235 322.59673305105156 L 692.2225242912903 242.31134336951354 A 10 10 0 1 1 712.116225683635 244.11737366506364 L 702.2630395808892 314.02384492219875 A 5 5 0 0 0 709.534311579749 319.15075384639465 L 780.7121204492215 281.8635558166718 A 10 10 0 0 1 790.7968089868482 299.1097710096288 L 710.3805045277442 351.3038125961997 A 15 15 0 0 1 694.0476987025314 351.3038125961997 L 613.6313942434274 299.1097710096288" /><circle cx="619.0756628518317" cy="290.72168783648704" fill-opacity="0" r="10" stroke="blue" /><circle cx="683.9294919243113" cy="322.3915608175648" fill-opacity="0" r="5" stroke="blue" /><circle cx="702.2141016151378" cy="242.72168783648704" fill-opacity="0" r="10" stroke="blue" /><circle cx="707.2141016151378" cy="314.72168783648704" fill-opacity="0" r="5" stroke="blue" /><circle cx="785.3525403784439" cy="290.72168783648704" fill-opacity="0" r="10" stroke="blue" /><circle cx="702.2141016151378" cy="338.72168783648704" fill-opacity="0" r="15" stroke="blue" /><path d="M 898.060068633577 393.6086546569033 A 10 10 0 1 1 881.8863376070409 381.88227626174057 L 922.6432904936053 330.9466964436765 A 5 5 0 0 0 918.8592069325515 322.82426332328976 L 844.9545047291484 321.0508815656989 A 10 10 0 1 1 846.7010691958883 301.1679148002382 L 911.1910517181038 310.9966814718164 A 5 5 0 0 0 916.3742807302368 303.7351226029808 L 896.4096111716223 265.5914629289796 A 10 10 0 0 1 896.6091368395208 265.9541896390272 L 881.0341368395209 238.97749831114191 A 10 10 0 0 1 898.3546449152097 228.97749831114197 L 913.9296449152097 255.95418963902725 A 10 10 0 0 1 913.4650851679279 255.2243907685922 L 946.4879323132093 302.45906094230446 A 15 15 0 0 1 946.7429075116828 319.27171095615387 L 898.060068633577 393.6086546569033" /><circle cx="889.6943908773653" cy="388.13002018477204" fill-opacity="0" r="10" stroke="blue" /><circle cx="918.7392638584431" cy="327.82282448216074" fill-opacity="0" r="5" stroke="blue" /><circle cx="845.1943908773653" cy="311.053759247957" fill-opacity="0" r="10" stroke="blue" /><circle cx="911.9443908773653" cy="306.053759247957" fill-opacity="0" r="5" stroke="blue" /><circle cx="905.2693908773653" cy="260.9541896390272" fill-opacity="0" r="10" stroke="blue" /><circle cx="889.6943908773653" cy="233.97749831114194" fill-opacity="0" r="10" stroke="blue" /><circle cx="905.2693908773653" cy="260.9541896390272" fill-opacity="0" r="10" stroke="blue" /><circle cx="934.1943908773653" cy="311.053759247957" fill-opacity="0" r="15" stroke="blue" /><path d="M 1143.7709083344937 226.17758747281792 A 10 10 0 1 1 1151.7222156144703 244.49917298683718 L 1096.3680334227292 265.1504928934078 A 5 5 0 0 0 1095.6133383736442 274.16383111926007 L 1153.2316057126404 307.4724965351326 A 10 10 0 1 1 1141.860533324403 323.84169827820074 L 1096.298874567763 286.229230247726 A 5 5 0 0 0 1088.1157487403052 290.08025071759664 L 1088.0787272727791 328.28965733845945 A 10 10 0 0 1 1088.0787319667065 328.2799682452694 L 1088.0787319667065 356.6299682452694 A 10 10 0 0 1 1068.0787319667065 356.6299682452694 L 1068.0787319667065 328.2799682452694 A 10 10 0 0 1 1068.123927527719 329.22963586160364 L 1063.1465253082251 277.0544696697708 A 15 15 0 0 1 1071.3949099585782 262.2013970865922 L 1143.7709083344937 226.17758747281792" /><circle cx="1148.226789673246" cy="235.12996824526942" fill-opacity="0" r="10" stroke="blue" /><circle cx="1098.1157463933414" cy="269.83509526419164" fill-opacity="0" r="5" stroke="blue" /><circle cx="1148.226789673246" cy="316.1299682452694" fill-opacity="0" r="10" stroke="blue" /><circle cx="1093.1157463933414" cy="290.08509526419164" fill-opacity="0" r="5" stroke="blue" /><circle cx="1078.0787319667065" cy="328.2799682452694" fill-opacity="0" r="10" stroke="blue" /><circle cx="1078.0787319667065" cy="356.6299682452694" fill-opacity="0" r="10" stroke="blue" /><circle cx="1078.0787319667065" cy="328.2799682452694" fill-opacity="0" r="10" stroke="blue" /><circle cx="1078.0787319667065" cy="275.6299682452694" fill-opacity="0" r="15" stroke="blue" /><path d="M 1267.5626558224776 294.75518264151765 A 10 10 0 0 1 1268.132214207425 295.9067332602634 L 1257.632214207425 277.7201997807902 A 10 10 0 0 1 1274.9527222831139 267.7201997807902 L 1285.4527222831139 285.9067332602634 A 10 10 0 0 1 1286.7675704362775 290.2015125296092 L 1288.1350441686875 309.54395331641706 A 5 5 0 0 0 1297.669794141381 311.2705212434179 L 1317.1980704908906 268.56184319613436 A 10 10 0 1 1 1333.6051507727427 279.54109959330657 L 1304.466254000455 310.78089304483177 A 5 5 0 0 0 1308.5955734826332 319.16892184095997 L 1355.3465118083864 314.72656622811644 A 10 10 0 1 1 1357.1258015786027 334.6469412937744 L 1297.5424682452694 339.62954993673327 A 15 15 0 0 1 1282.4477496110815 330.45439807973787 L 1267.5626558224776 294.75518264151765" /><circle cx="1276.7924682452694" cy="290.9067332602634" fill-opacity="0" r="10" stroke="blue" /><circle cx="1266.2924682452694" cy="272.7201997807902" fill-opacity="0" r="10" stroke="blue" /><circle cx="1276.7924682452694" cy="290.9067332602634" fill-opacity="0" r="10" stroke="blue" /><circle cx="1293.1225952641917" cy="309.19134295108995" fill-opacity="0" r="5" stroke="blue" /><circle cx="1326.2924682452694" cy="272.7201997807902" fill-opacity="0" r="10" stroke="blue" /><circle cx="1308.1225952641917" cy="314.19134295108995" fill-opacity="0" r="5" stroke="blue" /><circle cx="1356.2924682452694" cy="324.68172400785653" fill-opacity="0" r="10" stroke="blue" /><circle cx="1296.2924682452694" cy="324.68172400785653" fill-opacity="0" r="15" stroke="blue" /><path d="M 61.136389227314176 441.03321864139133 A 10 10 0 1 1 80.90434213641518 443.78985171279527 L 71.21058568782941 491.024305090764 A 5 5 0 0 0 79.02482471937797 496.09090040212976 L 102.99127040813039 478.88166109006374 A 10 10 0 0 1 103.82391083883697 478.3442332602634 L 124.13220655758205 466.6192332602634 A 10 10 0 0 1 134.13220655758207 483.93974133595214 L 113.823910838837 495.66474133595216 A 10 10 0 0 1 110.07494811560886 496.92592397492666 L 87.48891137902808 499.77389597862054 A 5 5 0 0 0 86.0553032017446 509.29092826110707 L 112.94216447017577 521.4418594099535 A 10 10 0 0 1 113.82391083883702 521.8942332602634 L 134.13220655758212 533.6192332602635 A 10 10 0 0 1 124.13220655758202 550.9397413359521 L 103.82391083883694 539.214741335952 A 10 10 0 0 1 104.85126245619108 539.7315273888919 L 65.1495319300558 522.5450474342841 A 15 15 0 0 1 56.150331588958935 507.66008431303317 L 61.136389227314176 441.03321864139133" /><circle cx="71.10850450402467" cy="441.77948729810777" fill-opacity="0" r="10" stroke="blue" /><circle cx="76.10850450402467" cy="492.02948729810777" fill-opacity="0" r="5" stroke="blue" /><circle cx="108.82391083883698" cy="487.0044872981078" fill-opacity="0" r="10" stroke="blue" /><circle cx="129.13220655758207" cy="475.27948729810777" fill-opacity="0" r="10" stroke="blue" /><circle cx="108.82391083883698" cy="487.0044872981078" fill-opacity="0" r="10" stroke="blue" /><circle cx="88.11443001741401" cy="504.73461431703" fill-opacity="0" r="5" stroke="blue" /><circle cx="108.82391083883698" cy="530.5544872981077" fill-opacity="0" r="10" stroke="blue" /><circle cx="129.13220655758207" cy="542.2794872981078" fill-opacity="0" r="10" stroke="blue" /><circle cx="108.82391083883698" cy="530.5544872981077" fill-opacity="0" r="10" stroke="blue" /><circle cx="71.10850450402467" cy="508.77948729810777" fill-opacity="0" r="15" stroke="blue" /><path d="M 330.97282332837716 522.5535138673933 A 10 10 0 0 1 331.0409752106694 521.3880127018922 L 331.0409752106694 544.4880127018922 A 10 10 0 0 1 311.0409752106694 544.4880127018922 L 311.0409752106694 521.3880127018922 A 10 10 0 0 1 311.8503741903879 517.446838652703 L 320.6362757208101 496.9585997264868 A 5 5 0 0 0 313.08724656682455 490.95372378083925 L 289.79594267600663 508.00659054399813 A 10 10 0 0 1 288.88848538831695 508.59826673973663 L 268.88329856089643 520.1482667397366 A 10 10 0 1 1 258.88329856089643 502.82775866404785 L 278.88848538831695 491.2777586640479 A 10 10 0 0 1 282.70634172550996 490.0081317176868 L 304.8426278796297 487.37282617507276 A 5 5 0 0 0 306.484980522711 477.9344289527923 L 259.41644961192674 454.4349261622476 A 10 10 0 0 1 268.2128500379606 436.4738580544807 L 327.5353024262657 464.9667807307749 A 15 15 0 0 1 335.93874738723105 480.23626445014395 L 330.97282332837716 522.5535138673933" /><circle cx="321.0409752106694" cy="521.3880127018922" fill-opacity="0" r="10" stroke="blue" /><circle cx="321.0409752106694" cy="544.4880127018922" fill-opacity="0" r="10" stroke="blue" /><circle cx="321.0409752106694" cy="521.3880127018922" fill-opacity="0" r="10" stroke="blue" /><circle cx="316.0409752106694" cy="494.9880127018922" fill-opacity="0" r="5" stroke="blue" /><circle cx="283.88848538831695" cy="499.93801270189226" fill-opacity="0" r="10" stroke="blue" /><circle cx="263.88329856089643" cy="511.4880127018922" fill-opacity="0" r="10" stroke="blue" /><circle cx="283.88848538831695" cy="499.93801270189226" fill-opacity="0" r="10" stroke="blue" /><circle cx="304.2515560482262" cy="482.40788568297" fill-opacity="0" r="5" stroke="blue" /><circle cx="263.88329856089643" cy="445.4880127018922" fill-opacity="0" r="10" stroke="blue" /><circle cx="321.0409752106694" cy="478.4880127018922" fill-opacity="0" r="15" stroke="blue" /><path d="M 509.25556564188184 457.038719719616 A 10 10 0 0 1 508.4883456639427 457.43846420742506 L 535.465036991828 441.86346420742507 A 10 10 0 0 1 545.465036991828 459.1839722831138 L 518.4883456639427 474.7589722831138 A 10 10 0 0 1 515.7945468565504 475.8291568817963 L 484.00474069291283 483.3636259459282 A 5 5 0 0 0 482.5546869605953 492.4977546730899 L 545.6713456490708 530.9858994274731 A 10 10 0 1 1 534.2172930687965 547.3317715155939 L 483.2817132507324 506.57481862902944 A 5 5 0 0 0 475.1592801303457 510.3589021900832 L 473.38589837275487 584.2636043934864 A 10 10 0 0 1 453.4045693621936 584.5855159980784 L 448.41246601578393 495.8664148744829 A 15 15 0 0 1 457.03960602192166 481.4337204567893 L 509.25556564188184 457.038719719616" /><circle cx="513.4883456639427" cy="466.0987182452694" fill-opacity="0" r="10" stroke="blue" /><circle cx="540.465036991828" cy="450.52371824526944" fill-opacity="0" r="10" stroke="blue" /><circle cx="513.4883456639427" cy="466.0987182452694" fill-opacity="0" r="10" stroke="blue" /><circle cx="485.15784128921666" cy="488.22884526419165" fill-opacity="0" r="5" stroke="blue" /><circle cx="540.465036991828" cy="539.5237182452695" fill-opacity="0" r="10" stroke="blue" /><circle cx="480.15784128921666" cy="510.47884526419165" fill-opacity="0" r="5" stroke="blue" /><circle cx="463.38877605501295" cy="584.0237182452695" fill-opacity="0" r="10" stroke="blue" /><circle cx="463.38877605501295" cy="495.02371824526944" fill-opacity="0" r="15" stroke="blue" /><path d="M 766.7107103218096 461.41713014472305 A 10 10 0 1 1 764.1481131552159 481.2169389498754 L 712.9503422384398 471.4810130486931 A 5 5 0 0 0 707.7702062563627 479.033249263257 L 738.50838511937 528.4662955932272 A 10 10 0 1 1 720.5743987304846 537.0409250064306 L 703.4070724318833 487.83439182477525 A 5 5 0 0 0 694.2188290265731 487.23575132232213 L 679.550885541105 516.4143658359687 A 10 10 0 0 1 679.2765199152096 516.9229772461989 L 666.6765199152096 538.7468174215668 A 10 10 0 0 1 649.3560118395208 528.7468174215668 L 661.9560118395208 506.9229772461989 A 10 10 0 0 1 661.4713909116722 507.87683564439595 L 680.2989534288256 465.32377594638274 A 15 15 0 0 1 695.0579325440318 456.4292010425409 L 766.7107103218096 461.41713014472305" /><circle cx="766.0162658773652" cy="471.3929883490872" fill-opacity="0" r="10" stroke="blue" /><circle cx="712.0162658773652" cy="476.3929883490872" fill-opacity="0" r="5" stroke="blue" /><circle cx="730.0162658773652" cy="533.7468174215668" fill-opacity="0" r="10" stroke="blue" /><circle cx="698.686138858443" cy="489.4814456172071" fill-opacity="0" r="5" stroke="blue" /><circle cx="670.6162658773652" cy="511.9229772461989" fill-opacity="0" r="10" stroke="blue" /><circle cx="658.0162658773652" cy="533.7468174215668" fill-opacity="0" r="10" stroke="blue" /><circle cx="670.6162658773652" cy="511.9229772461989" fill-opacity="0" r="10" stroke="blue" /><circle cx="694.0162658773652" cy="471.3929883490872" fill-opacity="0" r="15" stroke="blue" /><path d="M 869.1338866504901 472.63939781869476 A 10 10 0 0 1 869.0897891252214 473.5774841226347 L 869.0897891252214 444.8774841226347 A 10 10 0 0 1 889.0897891252214 444.8774841226347 L 889.0897891252214 473.5774841226347 A 10 10 0 0 1 888.5889233001349 476.7026161081662 L 879.3402220377646 504.81491812986894 A 5 5 0 0 0 886.5734956914747 510.7169773756252 L 945.1364591030388 477.1984976166537 A 10 10 0 1 1 953.6187552581702 495.2394068598327 L 897.5858683914901 516.276649772958 A 5 5 0 0 0 896.8270517892881 525.2783107499738 L 955.1363884625739 559.236084905801 A 10 10 0 0 1 945.6412402245261 576.8265016963255 L 872.3958411086924 540.3010104831709 A 15 15 0 0 1 864.1559354131244 525.4703546667248 L 869.1338866504901 472.63939781869476" /><circle cx="879.0897891252214" cy="473.5774841226347" fill-opacity="0" r="10" stroke="blue" /><circle cx="879.0897891252214" cy="444.8774841226347" fill-opacity="0" r="10" stroke="blue" /><circle cx="879.0897891252214" cy="473.5774841226347" fill-opacity="0" r="10" stroke="blue" /><circle cx="884.0897891252214" cy="506.3774841226347" fill-opacity="0" r="5" stroke="blue" /><circle cx="950.1038722355454" cy="485.8774841226347" fill-opacity="0" r="10" stroke="blue" /><circle cx="899.3433099028024" cy="520.957611141557" fill-opacity="0" r="5" stroke="blue" /><circle cx="950.1038722355454" cy="567.8774841226348" fill-opacity="0" r="10" stroke="blue" /><circle cx="879.0897891252214" cy="526.8774841226348" fill-opacity="0" r="15" stroke="blue" /><path d="M 1098.9072274794314 588.0195569222304 A 10 10 0 1 1 1082.6178550635193 576.4473560810028 L 1126.8809772040488 519.4997835394753 A 5 5 0 0 0 1123.1603405379024 511.43651269112667 L 1041.059128395812 507.70340820682486 A 10 10 0 1 1 1042.880284119764 487.8075949653813 L 1114.3298896948488 497.66679691912964 A 5 5 0 0 0 1119.45256875404 490.41299562382073 L 1081.6349260013815 417.4447079851242 A 10 10 0 0 1 1098.9072274794314 407.40790228019665 L 1152.10416396757 489.5607229760007 A 15 15 0 0 1 1152.10416396757 505.8667362264263 L 1098.9072274794314 588.0195569222304" /><circle cx="1090.5133545031538" cy="582.5842191720885" fill-opacity="0" r="10" stroke="blue" /><circle cx="1122.9332274842316" cy="516.4313519939324" fill-opacity="0" r="5" stroke="blue" /><circle cx="1041.5133545031538" cy="497.7137296012135" fill-opacity="0" r="10" stroke="blue" /><circle cx="1115.0133545031538" cy="492.7137296012135" fill-opacity="0" r="5" stroke="blue" /><circle cx="1090.5133545031538" cy="412.84324003033856" fill-opacity="0" r="10" stroke="blue" /><circle cx="1139.5133545031538" cy="497.7137296012135" fill-opacity="0" r="15" stroke="blue" /><path d="M 1331.6425479286474 465.71196843918887 A 10 10 0 0 1 1330.8412658773655 465.6798140978201 L 1364.4412658773654 465.6798140978201 A 10 10 0 0 1 1364.4412658773654 485.6798140978201 L 1330.8412658773655 485.6798140978201 A 10 10 0 0 1 1328.190521004826 485.32209347671727 L 1293.766638313635 475.8586744083715 A 5 5 0 0 0 1288.0121998674576 483.0000240624313 L 1325.2993978971806 554.1778329319038 A 10 10 0 1 1 1307.1679319683333 562.5606155121255 L 1280.7478058129593 497.09324246314696 A 5 5 0 0 0 1271.8872450820222 496.28884509133405 L 1228.8890534302072 564.1694102557514 A 10 10 0 0 1 1211.5323493708902 554.2760940483307 L 1255.0778911176526 468.8665758786269 A 15 15 0 0 1 1269.6431889542885 460.7280456098733 L 1331.6425479286474 465.71196843918887" /><circle cx="1330.8412658773655" cy="475.6798140978201" fill-opacity="0" r="10" stroke="blue" /><circle cx="1364.4412658773654" cy="475.6798140978201" fill-opacity="0" r="10" stroke="blue" /><circle cx="1330.8412658773655" cy="475.6798140978201" fill-opacity="0" r="10" stroke="blue" /><circle cx="1292.4412658773654" cy="480.6798140978201" fill-opacity="0" r="5" stroke="blue" /><circle cx="1316.4412658773654" cy="558.8182528611262" fill-opacity="0" r="10" stroke="blue" /><circle cx="1276.1111388584432" cy="498.9644237886466" fill-opacity="0" r="5" stroke="blue" /><circle cx="1220.4412658773654" cy="558.8182528611262" fill-opacity="0" r="10" stroke="blue" /><circle cx="1268.4412658773654" cy="475.6798140978201" fill-opacity="0" r="15" stroke="blue" /><path d="M 16.107112330303536 699.4130993474045 A 10 10 0 1 1 27.761383129037522 683.1849294399929 L 81.37280918101371 725.5036900158119 A 5 5 0 0 0 89.467855192266 721.7494065511885 L 92.11165365848575 644.1934963692398 A 10 10 0 1 1 112.00145423255975 645.9753630484659 L 102.1580455432172 713.5636002304976 A 5 5 0 0 0 109.45687340221511 718.6969739887343 L 177.94416106651673 682.2086155319926 A 10 10 0 0 1 188.10458454902587 699.4130993474045 L 110.29340877577725 750.1025551028632 A 15 15 0 0 1 93.91828810355217 750.1025551028632 L 16.107112330303536 699.4130993474045" /><circle cx="21.5654858877119" cy="691.034187836487" fill-opacity="0" r="10" stroke="blue" /><circle cx="84.47075780167651" cy="721.5790608175648" fill-opacity="0" r="5" stroke="blue" /><circle cx="102.10584843966471" cy="644.534187836487" fill-opacity="0" r="10" stroke="blue" /><circle cx="107.10584843966471" cy="714.284187836487" fill-opacity="0" r="5" stroke="blue" /><circle cx="182.64621099161752" cy="691.034187836487" fill-opacity="0" r="10" stroke="blue" /><circle cx="102.10584843966471" cy="737.534187836487" fill-opacity="0" r="15" stroke="blue" /><path d="M 235.04831100160177 701.711011614426 A 10 10 0 1 1 247.2258145441469 685.8925845201026 L 285.33462017080035 719.1186124757571 A 5 5 0 0 0 293.61618008018075 715.1429896542198 L 291.2844729902968 658.843830163177 A 10 10 0 1 1 311.08936173645264 660.352549330892 L 301.3691802733305 709.9687570892846 A 5 5 0 0 0 308.95295058733717 715.1529869430021 L 356.5435993733501 684.984089623457 A 10 10 0 0 1 367.5035038538074 701.711011614426 L 309.6846346694927 740.8515068367288 A 15 15 0 0 1 292.8671801859164 740.8515068367287 L 235.04831100160177 701.711011614426" /><circle cx="240.65412916279385" cy="693.4300211698204" fill-opacity="0" r="10" stroke="blue" /><circle cx="288.6204628614769" cy="715.3498941508982" fill-opacity="0" r="5" stroke="blue" /><circle cx="301.27590742770457" cy="658.4300211698204" fill-opacity="0" r="10" stroke="blue" /><circle cx="306.27590742770457" cy="710.9300211698204" fill-opacity="0" r="5" stroke="blue" /><circle cx="361.8976856926153" cy="693.4300211698204" fill-opacity="0" r="10" stroke="blue" /><circle cx="301.27590742770457" cy="728.4300211698204" fill-opacity="0" r="15" stroke="blue" /><path d="M 469.52086689677 738.999373514705 A 10 10 0 0 1 470.35698729810775 739.0343896875999 L 438.15698729810777 739.0343896875999 A 10 10 0 0 1 438.15698729810777 719.0343896875999 L 470.35698729810775 719.0343896875999 A 10 10 0 0 1 473.12756719036224 719.4258576945931 L 505.7716973519805 728.8386556841033 A 5 5 0 0 0 511.6167442103455 721.7737330830382 L 491.3374734736323 681.7673837504136 A 10 10 0 0 1 491.59673326026336 682.2460705412905 L 475.4967332602634 654.3600525394315 A 10 10 0 0 1 492.81724133595213 644.3600525394315 L 508.9172413359521 672.2460705412905 A 10 10 0 0 1 509.96351004325436 674.8411971146938 L 518.1338529444566 707.8182421138561 A 5 5 0 0 0 527.2359785766346 709.2515505520197 L 567.6592587788987 644.0885622365075 A 10 10 0 0 1 585.0761811717009 653.8819968828814 L 543.5357781084974 735.8173062027747 A 15 15 0 0 1 528.902806696101 743.9818654282575 L 469.52086689677 738.999373514705" /><circle cx="470.35698729810775" cy="729.0343896875999" fill-opacity="0" r="10" stroke="blue" /><circle cx="438.15698729810777" cy="729.0343896875999" fill-opacity="0" r="10" stroke="blue" /><circle cx="470.35698729810775" cy="729.0343896875999" fill-opacity="0" r="10" stroke="blue" /><circle cx="507.15698729810777" cy="724.0343896875999" fill-opacity="0" r="5" stroke="blue" /><circle cx="500.25698729810773" cy="677.2460705412905" fill-opacity="0" r="10" stroke="blue" /><circle cx="484.15698729810777" cy="649.3600525394315" fill-opacity="0" r="10" stroke="blue" /><circle cx="500.25698729810773" cy="677.2460705412905" fill-opacity="0" r="10" stroke="blue" /><circle cx="522.98711431703" cy="706.6158054005577" fill-opacity="0" r="5" stroke="blue" /><circle cx="576.1569872981078" cy="649.3600525394314" fill-opacity="0" r="10" stroke="blue" /><circle cx="530.1569872981078" cy="729.0343896875999" fill-opacity="0" r="15" stroke="blue" /><path d="M 686.769490691737 746.259113150862 A 10 10 0 0 1 687.696812432387 745.786279441629 L 665.26675447437 758.7362794416289 A 10 10 0 0 1 655.26675447437 741.41577136594 L 677.696812432387 728.4657713659401 A 10 10 0 0 1 681.0275541246676 727.2663308495851 L 706.665793538266 722.925745661962 A 5 5 0 0 0 708.2241576182922 713.6057294379336 L 655.4807680065983 684.8563632976417 A 10 10 0 1 1 666.7569339129178 668.4682944112051 L 707.5860746651324 703.2997638811519 A 5 5 0 0 0 715.8264972773043 699.2799139198397 L 714.3619685686224 665.4079943338296 A 10 10 0 0 1 714.3526343544185 664.9760254037844 L 714.3526343544185 639.0760254037845 A 10 10 0 0 1 734.3526343544185 639.0760254037845 L 734.3526343544185 664.9760254037844 A 10 10 0 0 1 734.298459488055 663.9365243642834 L 739.2713720548733 711.5167738445328 A 15 15 0 0 1 730.4616517434436 726.7756570244007 L 686.769490691737 746.259113150862" /><circle cx="682.696812432387" cy="737.1260254037845" fill-opacity="0" r="10" stroke="blue" /><circle cx="660.26675447437" cy="750.0760254037845" fill-opacity="0" r="10" stroke="blue" /><circle cx="682.696812432387" cy="737.1260254037845" fill-opacity="0" r="10" stroke="blue" /><circle cx="705.8311643844063" cy="717.9958983848622" fill-opacity="0" r="5" stroke="blue" /><circle cx="660.26675447437" cy="676.0760254037845" fill-opacity="0" r="10" stroke="blue" /><circle cx="710.8311643844063" cy="699.4958983848622" fill-opacity="0" r="5" stroke="blue" /><circle cx="724.3526343544185" cy="664.9760254037844" fill-opacity="0" r="10" stroke="blue" /><circle cx="724.3526343544185" cy="639.0760254037845" fill-opacity="0" r="10" stroke="blue" /><circle cx="724.3526343544185" cy="664.9760254037844" fill-opacity="0" r="10" stroke="blue" /><circle cx="724.3526343544185" cy="713.0760254037845" fill-opacity="0" r="15" stroke="blue" /><path d="M 954.387621584643 612.0532411225996 A 10 10 0 1 1 962.7261512094353 630.2120859479076 L 895.2503192319053 657.7815364128725 A 5 5 0 0 0 894.4384188612581 666.6164626231639 L 964.3499519507297 711.5422335273246 A 10 10 0 1 1 952.8181035309495 727.8590925255834 L 895.2043430711482 683.2080331240345 A 5 5 0 0 0 887.1580022133335 686.7538064431064 L 883.1742702719195 735.6175458874395 A 10 10 0 0 1 883.2073390704189 734.8049682452694 L 883.2073390704189 769.4549682452694 A 10 10 0 0 1 863.2073390704189 769.4549682452694 L 863.2073390704189 734.8049682452694 A 10 10 0 0 1 863.2375712801171 735.5819690222702 L 858.2526873849662 671.6204694107705 A 15 15 0 0 1 866.3729903797657 657.1023775612647 L 954.387621584643 612.0532411225996" /><circle cx="958.9438540450784" cy="620.9549682452694" fill-opacity="0" r="10" stroke="blue" /><circle cx="897.1414678140837" cy="662.4100952641916" fill-opacity="0" r="5" stroke="blue" /><circle cx="958.9438540450784" cy="719.9549682452694" fill-opacity="0" r="10" stroke="blue" /><circle cx="892.1414678140837" cy="687.1600952641916" fill-opacity="0" r="5" stroke="blue" /><circle cx="873.2073390704189" cy="734.8049682452694" fill-opacity="0" r="10" stroke="blue" /><circle cx="873.2073390704189" cy="769.4549682452694" fill-opacity="0" r="10" stroke="blue" /><circle cx="873.2073390704189" cy="734.8049682452694" fill-opacity="0" r="10" stroke="blue" /><circle cx="873.2073390704189" cy="670.4549682452694" fill-opacity="0" r="15" stroke="blue" /><path d="M 1038.9195184712844 666.025621172623 A 10 10 0 1 1 1057.2978565546682 658.2163046822329 L 1076.0161352321268 710.1646063229314 A 5 5 0 0 0 1085.091719440466 710.8963420566707 L 1115.14668813799 656.7528332147542 A 10 10 0 1 1 1131.529648716689 668.0587353292686 L 1095.9002391511165 710.2433909994136 A 5 5 0 0 0 1099.804329521011 718.4689453448898 L 1161.7214679769 717.4255573259335 A 10 10 0 0 1 1162.5478523972013 737.4024730442161 L 1086.8767997656223 742.3916406730705 A 15 15 0 0 1 1072.4342988767469 734.0532588971068 L 1038.9195184712844 666.025621172623" /><circle cx="1047.8899576603592" cy="661.60620709889" fill-opacity="0" r="10" stroke="blue" /><circle cx="1080.7200846792814" cy="708.4696551146029" fill-opacity="0" r="5" stroke="blue" /><circle cx="1123.8899576603592" cy="661.6062070988899" fill-opacity="0" r="10" stroke="blue" /><circle cx="1099.7200846792814" cy="713.4696551146029" fill-opacity="0" r="5" stroke="blue" /><circle cx="1161.8899576603592" cy="727.4241377865072" fill-opacity="0" r="10" stroke="blue" /><circle cx="1085.8899576603592" cy="727.4241377865072" fill-opacity="0" r="15" stroke="blue" /><path d="M 1230.9436585731842 745.8935821313839 A 10 10 0 1 1 1232.966304024842 726.0177987516993 L 1299.0065116715311 735.8541331290058 A 5 5 0 0 0 1304.1932486666362 728.6291581132759 L 1284.0178300346313 689.2423461493096 A 10 10 0 0 1 1284.2578550847902 689.6832857027208 L 1268.3328550847903 662.1003765921864 A 10 10 0 0 1 1285.653363160479 652.1003765921864 L 1301.578363160479 679.6832857027208 A 10 10 0 0 1 1302.632519203831 682.310473705459 L 1310.5910311009586 714.8930163991052 A 5 5 0 0 0 1319.7036507571975 716.3317668622861 L 1359.4822798913535 651.8500636685628 A 10 10 0 0 1 1376.915006077758 661.6169853556457 L 1335.87595455532 742.6836014817593 A 15 15 0 0 1 1321.6689332984588 750.8860290287909 L 1230.9436585731842 745.8935821313839" /><circle cx="1231.4931091226347" cy="735.9086883365703" fill-opacity="0" r="10" stroke="blue" /><circle cx="1299.7431091226347" cy="730.9086883365703" fill-opacity="0" r="5" stroke="blue" /><circle cx="1292.9181091226346" cy="684.6832857027208" fill-opacity="0" r="10" stroke="blue" /><circle cx="1276.9931091226347" cy="657.1003765921864" fill-opacity="0" r="10" stroke="blue" /><circle cx="1292.9181091226346" cy="684.6832857027208" fill-opacity="0" r="10" stroke="blue" /><circle cx="1315.448236141557" cy="713.7066104004743" fill-opacity="0" r="5" stroke="blue" /><circle cx="1367.9931091226347" cy="657.1003765921864" fill-opacity="0" r="10" stroke="blue" /><circle cx="1322.4931091226347" cy="735.9086883365703" fill-opacity="0" r="15" stroke="blue" /></svg>