<?xml version="1.0" encoding="utf-8" ?>
<svg baseProfile="tiny" height="100%" version="1.2" viewBox="0 0 1400 800" width="100%" xmlns="http://www.w3.org/2000/svg" xmlns:ev="http://www.w3.org/2001/xml-events" xmlns:xlink="http://www.w3.org/1999/xlink"><defs /><path d="M 29.48186793127887 70.80765426454383 A 10 10 0 1 1 41.694872288814835 55.02869837981716 L 77.52597611906515 86.90552379116923 A 5 5 0 0 0 85.83691187809195 83.52254165714899 L 90.02490605459414 24.294662647857635 A 10 10 0 1 1 109.79372578873806 27.020627421126196 L 100.10313710563096 73.9896862894369 A 5 5 0 0 0 107.1883534537548 79.4956767189645 L 160.5751983763233 53.508646562071 A 10 10 0 0 1 170.51813206872112 70.80765426454383 L 108.34934017733232 112.46148139681573 A 15 15 0 0 1 91.65065982266768 112.46148139681573 L 29.48186793127887 70.80765426454383" /><path d="M 270.8076542645438 170.51813206872112 A 10 10 0 1 1 255.02869837981714 158.30512771118515 L 286.90552379116923 122.47402388093485 A 5 5 0 0 0 283.52254165714896 114.16308812190805 L 224.29466264785765 109.97509394540586 A 10 10 0 1 1 227.0206274211262 90.20627421126194 L 273.9896862894369 99.89686289436904 A 5 5 0 0 0 279.4956767189645 92.8116465462452 L 253.508646562071 39.42480162367671 A 10 10 0 0 1 270.8076542645438 29.4818679312789 L 312.4614813968157 91.65065982266768 A 15 15 0 0 1 312.4614813968157 108.34934017733232 L 270.8076542645438 170.51813206872112" /><path d="M 570.5181320687211 129.19234573545617 A 10 10 0 1 1 558.3051277111852 144.97130162018286 L 522.4740238809349 113.09447620883076 A 5 5 0 0 0 514.163088121908 116.47745834285102 L 509.9750939454059 175.70533735214235 A 10 10 0 1 1 490.2062742112619 172.9793725788738 L 499.896862894369 126.0103137105631 A 5 5 0 0 0 492.8116465462452 120.5043232810355 L 439.42480162367673 146.49135343792904 A 10 10 0 0 1 429.4818679312789 129.19234573545623 L 491.65065982266765 87.53851860318429 A 15 15 0 0 1 508.3493401773323 87.53851860318427 L 570.5181320687211 129.19234573545617" /><path d="M 629.4818679312789 70.80765426454383 A 10 10 0 1 1 641.6948722888148 55.02869837981716 L 677.5259761190651 86.90552379116924 A 5 5 0 0 0 685.836911878092 83.52254165714895 L 690.0249060545941 24.29466264785761 A 10 10 0 1 1 709.793725788738 27.020627421126182 L 700.1031371056309 73.98968628943689 A 5 5 0 0 0 707.1883534537548 79.4956767189645 L 760.5751983763233 53.508646562071 A 10 10 0 0 1 770.5181320687211 70.80765426454383 L 708.3493401773324 112.46148139681573 A 15 15 0 0 1 691.6506598226676 112.46148139681573 L 629.4818679312789 70.80765426454383" /><path d="M 975.6666666666666 90.02224696860281 A 10 10 0 1 1 972.9793725788738 109.79372578873806 L 926.0103137105631 100.10313710563098 A 5 5 0 0 0 920.5043232810355 107.18835345375479 L 946.491353437929 160.5751983763233 A 10 10 0 1 1 928.008070958691 168.0988534999232 L 912.9158375017323 122.57716098656581 A 5 5 0 0 0 904.0268649381844 121.35144157566285 L 870.7860160857866 170.5502923217292 A 10 10 0 0 1 853.5256790687895 160.54037903732393 L 886.5385186031842 93.38271063023656 A 15 15 0 0 1 901.0 85.03337045290424 L 975.6666666666666 90.02224696860281" /><path d="M 1146.4743209312105 160.54037903732393 A 10 10 0 1 1 1128.008070958691 168.09885349992322 L 1112.9158375017323 122.57716098656584 A 5 5 0 0 0 1104.0268649381844 121.35144157566283 L 1070.7860160857867 170.55029232172916 A 10 10 0 1 1 1055.0286983798171 158.30512771118515 L 1086.9055237911691 122.47402388093484 A 5 5 0 0 0 1083.522541657149 114.16308812190805 L 1024.2946626478576 109.97509394540586 A 10 10 0 0 1 1024.3333333333333 90.02224696860281 L 1099.0 85.03337045290424 A 15 15 0 0 1 1113.4614813968158 93.38271063023656 L 1146.4743209312105 160.54037903732393" /><path d="M 1346.4743209312105 160.54037903732393 A 10 10 0 1 1 1328.008070958691 168.09885349992322 L 1312.9158375017323 122.57716098656584 A 5 5 0 0 0 1304.0268649381844 121.35144157566283 L 1270.7860160857867 170.55029232172916 A 10 10 0 1 1 1255.0286983798171 158.30512771118515 L 1286.9055237911691 122.47402388093484 A 5 5 0 0 0 1283.522541657149 114.16308812190805 L 1224.2946626478576 109.97509394540586 A 10 10 0 0 1 1224.3333333333333 90.02224696860281 L 1299.0 85.03337045290424 A 15 15 0 0 1 1313.4614813968158 93.38271063023656 L 1346.4743209312105 160.54037903732393" /><path d="M 175.66666666666666 290.0222469686028 A 10 10 0 1 1 172.9793725788738 309.7937257887381 L 126.0103137105631 300.103137105631 A 5 5 0 0 0 120.5043232810355 307.1883534537548 L 146.491353437929 360.5751983763233 A 10 10 0 1 1 128.00807095869095 368.0988534999232 L 112.91583750173233 322.5771609865658 A 5 5 0 0 0 104.02686493818447 321.3514415756628 L 70.78601608578664 370.55029232172916 A 10 10 0 0 1 53.52567906878953 360.54037903732393 L 86.53851860318429 293.38271063023655 A 15 15 0 0 1 101.0 285.03337045290425 L 175.66666666666666 290.0222469686028" /><path d="M 360.54037903732393 253.52567906878951 A 10 10 0 1 1 368.0988534999232 271.99192904130905 L 322.5771609865658 287.0841624982677 A 5 5 0 0 0 321.3514415756628 295.9731350618155 L 370.55029232172916 329.2139839142134 A 10 10 0 1 1 358.30512771118515 344.9713016201828 L 322.4740238809348 313.09447620883077 A 5 5 0 0 0 314.163088121908 316.47745834285104 L 309.9750939454059 375.70533735214235 A 10 10 0 0 1 290.0222469686028 375.6666666666667 L 285.03337045290425 301.0 A 15 15 0 0 1 293.38271063023655 286.5385186031843 L 360.54037903732393 253.52567906878951" /><path d="M 453.52567906878954 239.45962096267607 A 10 10 0 1 1 471.99192904130905 231.90114650007678 L 487.0841624982677 277.4228390134342 A 5 5 0 0 0 495.9731350618155 278.6485584243372 L 529.2139839142134 229.44970767827084 A 10 10 0 1 1 544.9713016201829 241.69487228881485 L 513.0944762088308 277.5259761190652 A 5 5 0 0 0 516.477458342851 285.836911878092 L 575.7053373521424 290.0249060545941 A 10 10 0 0 1 575.6666666666666 309.9777530313972 L 501.0 314.96662954709575 A 15 15 0 0 1 486.5385186031843 306.61728936976345 L 453.52567906878954 239.45962096267607" /><path d="M 709.9777530313971 375.6666666666667 A 10 10 0 1 1 690.206274211262 372.97937257887384 L 699.8968628943691 326.0103137105631 A 5 5 0 0 0 692.8116465462452 320.5043232810355 L 639.4248016236768 346.491353437929 A 10 10 0 1 1 631.9011465000768 328.00807095869095 L 677.4228390134342 312.9158375017323 A 5 5 0 0 0 678.6485584243372 304.0268649381845 L 629.4497076782708 270.7860160857866 A 10 10 0 0 1 639.459620962676 253.52567906878951 L 706.6172893697634 286.5385186031843 A 15 15 0 0 1 714.9666295470957 301.0 L 709.9777530313971 375.6666666666667" /><path d="M 946.4743209312105 360.54037903732393 A 10 10 0 1 1 928.008070958691 368.0988534999232 L 912.9158375017323 322.5771609865658 A 5 5 0 0 0 904.0268649381844 321.3514415756628 L 870.7860160857866 370.55029232172916 A 10 10 0 1 1 855.0286983798171 358.30512771118515 L 886.9055237911692 322.4740238809348 A 5 5 0 0 0 883.522541657149 314.163088121908 L 824.2946626478576 309.9750939454059 A 10 10 0 0 1 824.3333333333334 290.0222469686028 L 899.0 285.03337045290425 A 15 15 0 0 1 913.4614813968158 293.38271063023655 L 946.4743209312105 360.54037903732393" /><path d="M 1090.0222469686028 224.33333333333334 A 10 10 0 1 1 1109.7937257887381 227.02062742112622 L 1100.103137105631 273.9896862894369 A 5 5 0 0 0 1107.1883534537549 279.4956767189645 L 1160.5751983763234 253.508646562071 A 10 10 0 1 1 1168.0988534999233 271.99192904130905 L 1122.577160986566 287.0841624982677 A 5 5 0 0 0 1121.3514415756629 295.9731350618155 L 1170.5502923217293 329.2139839142134 A 10 10 0 0 1 1160.540379037324 346.47432093121046 L 1093.3827106302365 313.4614813968157 A 15 15 0 0 1 1085.0333704529041 299.0 L 1090.0222469686028 224.33333333333334" /><path d="M 1360.540379037324 253.52567906878951 A 10 10 0 1 1 1368.0988534999233 271.99192904130905 L 1322.577160986566 287.0841624982677 A 5 5 0 0 0 1321.3514415756629 295.9731350618155 L 1370.5502923217293 329.2139839142134 A 10 10 0 1 1 1358.3051277111852 344.9713016201828 L 1322.474023880935 313.09447620883077 A 5 5 0 0 0 1314.1630881219082 316.477458342851 L 1309.975093945406 375.70533735214235 A 10 10 0 0 1 1290.0222469686028 375.6666666666667 L 1285.0333704529041 301.0 A 15 15 0 0 1 1293.3827106302365 286.5385186031843 L 1360.540379037324 253.52567906878951" /><path d="M 70.80765426454383 570.5181320687211 A 10 10 0 1 1 55.02869837981716 558.3051277111852 L 86.90552379116924 522.4740238809349 A 5 5 0 0 0 83.52254165714898 514.163088121908 L 24.294662647857642 509.9750939454059 A 10 10 0 1 1 27.0206274211262 490.2062742112619 L 73.9896862894369 499.896862894369 A 5 5 0 0 0 79.4956767189645 492.8116465462452 L 53.508646562070965 439.4248016236767 A 10 10 0 0 1 70.80765426454379 429.4818679312789 L 112.46148139681571 491.65065982266765 A 15 15 0 0 1 112.46148139681573 508.3493401773323 L 70.80765426454383 570.5181320687211" /><path d="M 270.8076542645438 570.5181320687211 A 10 10 0 1 1 255.02869837981714 558.3051277111852 L 286.90552379116923 522.4740238809349 A 5 5 0 0 0 283.52254165714896 514.163088121908 L 224.29466264785765 509.9750939454059 A 10 10 0 1 1 227.0206274211262 490.2062742112619 L 273.9896862894369 499.896862894369 A 5 5 0 0 0 279.4956767189645 492.8116465462452 L 253.508646562071 439.4248016236767 A 10 10 0 0 1 270.8076542645438 429.4818679312789 L 312.4614813968157 491.65065982266765 A 15 15 0 0 1 312.4614813968157 508.3493401773323 L 270.8076542645438 570.5181320687211" /><path d="M 575.6666666666666 490.0222469686028 A 10 10 0 1 1 572.9793725788738 509.7937257887381 L 526.0103137105631 500.103137105631 A 5 5 0 0 0 520.5043232810355 507.1883534537548 L 546.491353437929 560.5751983763233 A 10 10 0 1 1 528.008070958691 568.0988534999233 L 512.9158375017323 522.5771609865658 A 5 5 0 0 0 504.0268649381845 521.3514415756628 L 470.7860160857866 570.5502923217292 A 10 10 0 0 1 453.52567906878954 560.540379037324 L 486.5385186031843 493.38271063023655 A 15 15 0 0 1 501.0 485.03337045290425 L 575.6666666666666 490.0222469686028" /><path d="M 775.6666666666666 490.0222469686028 A 10 10 0 1 1 772.9793725788738 509.7937257887381 L 726.0103137105631 500.103137105631 A 5 5 0 0 0 720.5043232810355 507.1883534537548 L 746.491353437929 560.5751983763233 A 10 10 0 1 1 728.008070958691 568.0988534999233 L 712.9158375017323 522.5771609865658 A 5 5 0 0 0 704.0268649381844 521.3514415756629 L 670.7860160857866 570.5502923217292 A 10 10 0 0 1 653.5256790687895 560.540379037324 L 686.5385186031842 493.38271063023655 A 15 15 0 0 1 701.0 485.03337045290425 L 775.6666666666666 490.0222469686028" /><path d="M 970.5181320687211 529.1923457354562 A 10 10 0 1 1 958.3051277111853 544.9713016201829 L 922.4740238809349 513.0944762088308 A 5 5 0 0 0 914.163088121908 516.477458342851 L 909.9750939454059 575.7053373521424 A 10 10 0 1 1 890.206274211262 572.9793725788738 L 899.8968628943691 526.0103137105631 A 5 5 0 0 0 892.8116465462452 520.5043232810355 L 839.4248016236768 546.491353437929 A 10 10 0 0 1 829.4818679312789 529.1923457354562 L 891.6506598226676 487.5385186031843 A 15 15 0 0 1 908.3493401773324 487.5385186031843 L 970.5181320687211 529.1923457354562" /><path d="M 1175.6666666666667 490.0222469686028 A 10 10 0 1 1 1172.9793725788738 509.7937257887381 L 1126.0103137105632 500.103137105631 A 5 5 0 0 0 1120.5043232810356 507.1883534537548 L 1146.491353437929 560.5751983763233 A 10 10 0 1 1 1128.008070958691 568.0988534999233 L 1112.9158375017323 522.5771609865658 A 5 5 0 0 0 1104.0268649381844 521.3514415756628 L 1070.7860160857867 570.5502923217292 A 10 10 0 0 1 1053.5256790687895 560.540379037324 L 1086.5385186031842 493.38271063023655 A 15 15 0 0 1 1101.0 485.03337045290425 L 1175.6666666666667 490.0222469686028" /><path d="M 1329.1923457354562 429.4818679312789 A 10 10 0 1 1 1344.9713016201829 441.69487228881485 L 1313.0944762088307 477.5259761190652 A 5 5 0 0 0 1316.477458342851 485.836911878092 L 1375.7053373521424 490.0249060545941 A 10 10 0 1 1 1372.9793725788738 509.7937257887381 L 1326.0103137105632 500.103137105631 A 5 5 0 0 0 1320.5043232810356 507.1883534537548 L 1346.491353437929 560.5751983763233 A 10 10 0 0 1 1329.1923457354562 570.5181320687211 L 1287.5385186031842 508.3493401773323 A 15 15 0 0 1 1287.5385186031842 491.65065982266765 L 1329.1923457354562 429.4818679312789" /><path d="M 160.54037903732393 653.5256790687895 A 10 10 0 1 1 168.0988534999232 671.991929041309 L 122.57716098656581 687.0841624982677 A 5 5 0 0 0 121.35144157566285 695.9731350618156 L 170.5502923217292 729.2139839142134 A 10 10 0 1 1 158.30512771118515 744.9713016201829 L 122.47402388093487 713.0944762088308 A 5 5 0 0 0 114.16308812190805 716.477458342851 L 109.97509394540587 775.7053373521424 A 10 10 0 0 1 90.02224696860281 775.6666666666666 L 85.03337045290424 701.0 A 15 15 0 0 1 93.38271063023656 686.5385186031842 L 160.54037903732393 653.5256790687895" /><path d="M 290.0222469686028 624.3333333333334 A 10 10 0 1 1 309.7937257887381 627.0206274211262 L 300.103137105631 673.9896862894369 A 5 5 0 0 0 307.1883534537548 679.4956767189645 L 360.57519837632327 653.508646562071 A 10 10 0 1 1 368.0988534999232 671.991929041309 L 322.5771609865658 687.0841624982677 A 5 5 0 0 0 321.3514415756628 695.9731350618156 L 370.55029232172916 729.2139839142134 A 10 10 0 0 1 360.54037903732393 746.4743209312105 L 293.38271063023655 713.4614813968158 A 15 15 0 0 1 285.03337045290425 699.0 L 290.0222469686028 624.3333333333334" /><path d="M 429.4818679312789 670.8076542645438 A 10 10 0 1 1 441.69487228881485 655.0286983798171 L 477.5259761190652 686.9055237911692 A 5 5 0 0 0 485.836911878092 683.522541657149 L 490.0249060545941 624.2946626478576 A 10 10 0 1 1 509.7937257887381 627.0206274211262 L 500.103137105631 673.9896862894369 A 5 5 0 0 0 507.1883534537548 679.4956767189645 L 560.5751983763233 653.508646562071 A 10 10 0 0 1 570.5181320687211 670.8076542645438 L 508.3493401773323 712.4614813968158 A 15 15 0 0 1 491.65065982266765 712.4614813968158 L 429.4818679312789 670.8076542645438" /><path d="M 653.5256790687895 639.4596209626761 A 10 10 0 1 1 671.991929041309 631.9011465000768 L 687.0841624982677 677.4228390134342 A 5 5 0 0 0 695.9731350618156 678.6485584243371 L 729.2139839142134 629.4497076782708 A 10 10 0 1 1 744.9713016201829 641.6948722888147 L 713.0944762088308 677.5259761190651 A 5 5 0 0 0 716.477458342851 685.836911878092 L 775.7053373521424 690.0249060545941 A 10 10 0 0 1 775.6666666666666 709.9777530313971 L 701.0 714.9666295470957 A 15 15 0 0 1 686.5385186031842 706.6172893697634 L 653.5256790687895 639.4596209626761" /><path d="M 890.0222469686029 624.3333333333334 A 10 10 0 1 1 909.793725788738 627.0206274211262 L 900.1031371056309 673.9896862894369 A 5 5 0 0 0 907.1883534537548 679.4956767189645 L 960.5751983763233 653.508646562071 A 10 10 0 1 1 968.0988534999233 671.991929041309 L 922.5771609865658 687.0841624982677 A 5 5 0 0 0 921.3514415756628 695.9731350618156 L 970.5502923217292 729.2139839142134 A 10 10 0 0 1 960.540379037324 746.4743209312105 L 893.3827106302366 713.4614813968158 A 15 15 0 0 1 885.0333704529043 699.0 L 890.0222469686029 624.3333333333334" /><path d="M 1070.8076542645438 770.5181320687211 A 10 10 0 1 1 1055.0286983798171 758.3051277111852 L 1086.9055237911693 722.4740238809347 A 5 5 0 0 0 1083.5225416571488 714.163088121908 L 1024.2946626478576 709.9750939454059 A 10 10 0 1 1 1027.0206274211262 690.206274211262 L 1073.9896862894368 699.8968628943691 A 5 5 0 0 0 1079.4956767189644 692.8116465462452 L 1053.508646562071 639.4248016236768 A 10 10 0 0 1 1070.8076542645438 629.4818679312789 L 1112.4614813968158 691.6506598226676 A 15 15 0 0 1 1112.4614813968158 708.3493401773324 L 1070.8076542645438 770.5181320687211" /><path d="M 1270.8076542645438 770.5181320687211 A 10 10 0 1 1 1255.0286983798171 758.3051277111852 L 1286.9055237911693 722.4740238809347 A 5 5 0 0 0 1283.5225416571488 714.163088121908 L 1224.2946626478576 709.9750939454059 A 10 10 0 1 1 1227.0206274211262 690.206274211262 L 1273.9896862894368 699.8968628943691 A 5 5 0 0 0 1279.4956767189644 692.8116465462452 L 1253.508646562071 639.4248016236768 A 10 10 0 0 1 1270.8076542645438 629.4818679312789 L 1312.4614813968158 691.6506598226676 A 15 15 0 0 1 1312.4614813968158 708.3493401773324 L 1270.8076542645438 770.5181320687211" /></svg>