<?xml version="1.0" encoding="utf-8" ?>
<svg baseProfile="tiny" height="100%" version="1.2" width="100%" xmlns="http://www.w3.org/2000/svg" xmlns:ev="http://www.w3.org/2001/xml-events" xmlns:xlink="http://www.w3.org/1999/xlink"><defs /><path d="M 501.22608405349087 79.97780450238567 A 55 55 0 0 0 450.0 45.0 L 108.0 45.0 A 55 55 0 1 0 108.0 155.0 L 188.0 155.0 A 55 55 0 0 0 225.79363894869226 139.95798862575407 L 262.2568585641119 105.46982231790761 A 20 20 0 0 1 293.7347263325043 129.24551144670642 L 146.0581194511192 412.51855954694634 A 27 27 0 0 0 190.37924355002033 442.71119511294916 L 281.3181016703417 338.0731328039975 A 38 38 0 0 1 304.35177947876866 325.42211281959106 L 322.90503361054306 322.63342834088144 A 33 33 0 0 0 350.7893922118126 286.27766761560395 L 344.16593340887493 227.93274672709995 A 26 26 0 0 1 391.4022195533526 210.23703965357586 L 591.1893198320254 499.87321585095555 A 35 35 0 0 0 652.5984171249487 467.2586028651545 L 501.22608405349087 79.97780450238567" /></svg>