<?xml version="1.0" encoding="utf-8" ?>
<svg baseProfile="tiny" height="100%" version="1.2" width="100%" xmlns="http://www.w3.org/2000/svg" xmlns:ev="http://www.w3.org/2001/xml-events" xmlns:xlink="http://www.w3.org/1999/xlink"><defs /><path d="M 70.80765426454383 170.51813206872112 A 10 10 0 1 1 55.17938992292863 158.1395145067649 L 81.1627386995068 130.21775089769824 A 5 5 0 1 0 73.5123807344216 123.79833835082108 L 50.52677261917571 154.23550504317683 A 10 10 0 1 1 38.72538610107144 138.96797695576956 L 73.24031878238789 124.69572215764707 A 5 5 0 1 0 67.64126211808308 116.699440542884 L 42.424927379771525 144.25146945880522 A 10 10 0 1 1 29.4818679312789 129.19234573545623 L 91.65065982266768 87.53851860318429 A 15 15 0 0 1 112.46148139681573 108.34934017733232 L 70.80765426454383 170.51813206872112" /><circle cx="62.50000000000001" cy="164.9519052838329" fill-opacity="0" r="10" stroke="blue" /><circle cx="77.50243366097112" cy="126.81155550916424" fill-opacity="0" r="5" stroke="blue" /><circle cx="42.546666766076676" cy="148.2090707264905" fill-opacity="0" r="10" stroke="blue" /><circle cx="71.32967844988528" cy="120.0751752722866" fill-opacity="0" r="5" stroke="blue" /><circle cx="35.048094716167114" cy="137.50000000000003" fill-opacity="0" r="10" stroke="blue" /><circle cx="100.0" cy="100.0" fill-opacity="0" r="15" stroke="blue" /><path d="M 316.5035032826808 25.483999171999674 A 10 10 0 0 1 335.0318483012557 32.98849243398674 L 320.0585685656139 73.51854316200588 A 5 5 0 0 0 326.4814568379941 79.94143143438606 L 367.0115075660133 64.96815169874432 A 10 10 0 0 1 374.4119502155401 83.54173384769985 L 332.50076952712885 101.48106391978003 A 5 5 0 0 0 331.04728698862414 109.72417301553355 L 364.2953019675297 140.91609713210843 A 10 10 0 0 1 351.5504535082416 156.28099806413016 L 291.1456804114774 112.10789100645957 A 15 15 0 0 1 286.2779887998834 93.9414185964142 L 316.5035032826808 25.483999171999674" /><circle cx="325.6515107494252" cy="29.523053441056874" fill-opacity="0" r="10" stroke="blue" /><circle cx="324.74873734152914" cy="75.25126265847082" fill-opacity="0" r="5" stroke="blue" /><circle cx="370.47694655894315" cy="74.34848925057481" fill-opacity="0" r="10" stroke="blue" /><circle cx="334.4682713554273" cy="106.07768621834255" fill-opacity="0" r="5" stroke="blue" /><circle cx="357.4533332339234" cy="148.20907072649044" fill-opacity="0" r="10" stroke="blue" /><circle cx="300.0" cy="100.0" fill-opacity="0" r="15" stroke="blue" /><path d="M 439.45962096267607 146.4743209312105 A 10 10 0 1 1 432.8895669837692 127.7357407844492 L 469.3584913199162 119.67376876869987 A 5 5 0 1 0 465.2330366378693 110.82670265280183 L 435.6154350727527 133.5813837656704 A 10 10 0 1 1 424.17782532270036 117.19997027666328 L 472.36172492672284 86.72577023638091 A 5 5 0 0 0 474.6850422723958 82.70166655156933 L 476.9845238652779 25.73608542094567 A 10 10 0 0 1 496.68678976616326 23.75026139096345 L 514.5656046367745 96.41626430031859 A 15 15 0 0 1 506.61728936976345 113.46148139681571 L 439.45962096267607 146.4743209312105" /><circle cx="435.0480947161671" cy="137.50000000000003" fill-opacity="0" r="10" stroke="blue" /><circle cx="468.2792274537172" cy="114.79163916092446" fill-opacity="0" r="5" stroke="blue" /><circle cx="429.52305344105685" cy="125.65151074942511" fill-opacity="0" r="10" stroke="blue" /><circle cx="469.6891108675446" cy="82.5" fill-opacity="0" r="5" stroke="blue" /><circle cx="486.97638667498023" cy="26.13941852408439" fill-opacity="0" r="10" stroke="blue" /><circle cx="500.0" cy="100.0" fill-opacity="0" r="15" stroke="blue" /><path d="M 769.6862826187228 64.3797957286716 A 10 10 0 0 1 771.7059388448823 84.27268080259063 L 733.8537752124577 88.96021800564955 A 5 5 0 1 0 735.5879705728834 98.79532862489653 L 772.760601565088 90.25397031352183 A 10 10 0 1 1 775.6666666666666 109.97775303139719 L 701.0 114.96662954709576 A 15 15 0 0 1 696.4162643003186 114.56560463677458 L 623.7502613909634 96.6867897661633 A 10 10 0 0 1 625.1870250386419 77.02184265484117 L 697.4257457465532 70.11045757685845 A 5 5 0 0 0 697.3448809739422 70.11753232774052 L 769.6862826187228 64.3797957286716" /><circle cx="770.4769465589432" cy="74.34848925057481" fill-opacity="0" r="10" stroke="blue" /><circle cx="734.4682713554273" cy="93.92231378165745" fill-opacity="0" r="5" stroke="blue" /><circle cx="775.0" cy="100.0" fill-opacity="0" r="10" stroke="blue" /><circle cx="700.0" cy="100.0" fill-opacity="0" r="15" stroke="blue" /><circle cx="626.1394185240844" cy="86.97638667498025" fill-opacity="0" r="10" stroke="blue" /><circle cx="696.949549003832" cy="65.13318556678891" fill-opacity="0" r="5" stroke="blue" /><path d="M 976.2186389341597 117.46414434328577 A 10 10 0 0 1 967.0115075660133 135.03184830125568 L 926.4814568379941 120.0585685656139 A 5 5 0 0 0 920.0585685656139 126.48145683799409 L 935.0318483012556 167.01150756601328 A 10 10 0 0 1 917.4977789280716 176.26630381043898 L 877.2653104015125 119.60288771328098 A 5 5 0 0 0 876.7470867799325 118.9852928504958 L 827.9308101379736 69.5245469770662 A 10 10 0 0 1 837.6292925379482 52.838870780036544 L 913.5010402500338 73.10979206369898 A 5 5 0 0 0 911.9207929733161 72.37291065678694 L 976.2186389341597 117.46414434328577" /><circle cx="970.4769465589432" cy="125.65151074942519" fill-opacity="0" r="10" stroke="blue" /><circle cx="924.7487373415291" cy="124.74873734152915" fill-opacity="0" r="5" stroke="blue" /><circle cx="925.6515107494251" cy="170.47694655894313" fill-opacity="0" r="10" stroke="blue" /><circle cx="873.1884444908358" cy="122.4975663390289" fill-opacity="0" r="5" stroke="blue" /><circle cx="835.048094716167" cy="62.50000000000001" fill-opacity="0" r="10" stroke="blue" /><circle cx="914.7916391609244" cy="68.27922745371724" fill-opacity="0" r="5" stroke="blue" /><path d="M 1178.000112985535 103.92063145747395 A 10 10 0 0 1 1170.699043690361 122.51069289834001 L 1133.30154143906 110.04809937426432 A 5 5 0 0 0 1129.1031089100532 119.05166698801213 L 1162.6886605063826 139.68901507231513 A 10 10 0 1 1 1151.5504535082416 156.28099806413013 L 1091.1456804114773 112.10789100645955 A 15 15 0 0 1 1085.5939485132321 104.17919616201397 L 1064.7444549260629 32.309184215732856 A 10 10 0 0 1 1082.5943542662233 23.86569450391086 L 1118.3746338312046 76.01712395940875 A 5 5 0 0 0 1120.4278005842193 77.73993542460866 L 1178.000112985535 103.92063145747395" /><circle cx="1173.8605814759155" cy="113.02361332501975" fill-opacity="0" r="10" stroke="blue" /><circle cx="1131.7207725462827" cy="114.79163916092446" fill-opacity="0" r="5" stroke="blue" /><circle cx="1157.4533332339233" cy="148.20907072649044" fill-opacity="0" r="10" stroke="blue" /><circle cx="1100.0" cy="100.0" fill-opacity="0" r="15" stroke="blue" /><circle cx="1074.3484892505749" cy="29.523053441056874" fill-opacity="0" r="10" stroke="blue" /><circle cx="1122.497566339029" cy="73.18844449083576" fill-opacity="0" r="5" stroke="blue" /><path d="M 1259.0058064649006 164.37760555043042 A 10 10 0 0 1 1244.1615452366218 150.98862139056325 L 1272.0939194721611 118.02399508260459 A 5 5 0 0 0 1268.2551359259576 109.79169720143231 L 1225.0481830555198 109.9998839189843 A 10 10 0 1 1 1227.2393984349121 90.25397031352183 L 1264.4120294271167 98.79532862489653 A 5 5 0 1 0 1266.1462247875422 88.96021800564955 L 1228.2940611551176 84.27268080259063 A 10 10 0 1 1 1232.3091842157328 64.74445492606289 L 1304.179196162014 85.5939485132321 A 15 15 0 0 1 1310.8223157870864 110.38640847476059 L 1259.0058064649006 164.37760555043042" /><circle cx="1251.7909292735096" cy="157.45333323392336" fill-opacity="0" r="10" stroke="blue" /><circle cx="1268.2792274537173" cy="114.79163916092446" fill-opacity="0" r="5" stroke="blue" /><circle cx="1225.0" cy="100.0" fill-opacity="0" r="10" stroke="blue" /><circle cx="1265.5317286445727" cy="93.92231378165745" fill-opacity="0" r="5" stroke="blue" /><circle cx="1229.5230534410568" cy="74.34848925057481" fill-opacity="0" r="10" stroke="blue" /><circle cx="1300.0" cy="100.0" fill-opacity="0" r="15" stroke="blue" /><path d="M 103.41802970193136 223.35863387585 A 10 10 0 0 1 123.02289295053077 226.01938948243196 L 123.6706817373592 279.9848392485396 A 5 5 0 0 0 126.90394882241897 284.60242319133255 L 177.39332693130712 303.66841639778136 A 10 10 0 0 1 172.78450134681094 322.96554731975874 L 98.385879806343 314.91290099210846 A 15 15 0 0 1 91.65065982266768 312.4614813968157 L 29.48186793127887 270.8076542645438 A 10 10 0 0 1 39.0922402256057 253.35424212552687 L 83.18628808435624 272.8521063909538 A 5 5 0 0 0 90.01115265061974 269.66961977783444 L 103.41802970193136 223.35863387585" /><circle cx="113.02361332501975" cy="226.1394185240844" fill-opacity="0" r="10" stroke="blue" /><circle cx="128.67032155011472" cy="279.92482472771337" fill-opacity="0" r="5" stroke="blue" /><circle cx="173.8605814759156" cy="313.02361332501977" fill-opacity="0" r="10" stroke="blue" /><circle cx="100.0" cy="300.0" fill-opacity="0" r="15" stroke="blue" /><circle cx="35.048094716167085" cy="262.5" fill-opacity="0" r="10" stroke="blue" /><circle cx="85.20836083907554" cy="268.2792274537172" fill-opacity="0" r="5" stroke="blue" /><path d="M 316.67473571185076 225.11652306844167 A 10 10 0 0 1 335.0318483012557 232.98849243398675 L 320.0585685656139 273.51854316200587 A 5 5 0 0 0 326.4814568379941 279.94143143438606 L 367.01150756601334 264.9681516987443 A 10 10 0 0 1 374.51600082800036 283.4964967173192 L 306.0585814035858 313.7220112001166 A 15 15 0 0 1 289.6135915252394 310.8223157870865 L 235.62239444956958 259.00580646490056 A 10 10 0 0 1 248.11751680636652 243.48637450948988 L 288.1559084012668 270.34487346189246 A 5 5 0 0 0 295.429720940199 268.3958612661902 L 316.67473571185076 225.11652306844167" /><circle cx="325.6515107494252" cy="229.52305344105687" fill-opacity="0" r="10" stroke="blue" /><circle cx="324.74873734152914" cy="275.2512626584708" fill-opacity="0" r="5" stroke="blue" /><circle cx="370.47694655894315" cy="274.3484892505748" fill-opacity="0" r="10" stroke="blue" /><circle cx="300.0" cy="300.0" fill-opacity="0" r="15" stroke="blue" /><circle cx="242.54666676607664" cy="251.79092927350956" fill-opacity="0" r="10" stroke="blue" /><circle cx="290.94133342141174" cy="266.1925960798826" fill-opacity="0" r="5" stroke="blue" /><path d="M 553.2337121237235 242.72479461278692 A 10 10 0 0 1 563.3073807193401 259.8983411933817 L 529.9622179847985 283.97558902366546 A 5 5 0 0 0 533.2526834188872 293.0160685033202 L 574.2731166172395 290.0264529605628 A 10 10 0 0 1 577.6665129169844 309.63793073556536 L 507.72541012009606 328.98843855233474 A 5 5 0 0 0 507.80381785751086 328.96742926241404 L 437.5577921583219 347.17994931540665 A 10 10 0 0 1 427.9719102933252 330.43405250416265 L 483.4629169391343 274.862652197804 A 5 5 0 0 0 482.03463528281327 275.86274578024666 L 553.2337121237235 242.72479461278692" /><circle cx="557.4533332339233" cy="251.79092927350956" fill-opacity="0" r="10" stroke="blue" /><circle cx="532.8892417275068" cy="288.0292949836016" fill-opacity="0" r="5" stroke="blue" /><circle cx="575.0" cy="300.0" fill-opacity="0" r="10" stroke="blue" /><circle cx="509.05866657858826" cy="333.8074039201174" fill-opacity="0" r="5" stroke="blue" /><circle cx="435.0480947161671" cy="337.5" fill-opacity="0" r="10" stroke="blue" /><circle cx="479.92482472771337" cy="271.3296784498853" fill-opacity="0" r="5" stroke="blue" /><path d="M 659.0058064649006 364.3776055504304 A 10 10 0 0 1 644.1615452366218 350.98862139056325 L 672.0939194721611 318.0239950826046 A 5 5 0 0 0 668.2551359259573 309.7916972014323 L 625.0481830555198 309.9998839189843 A 10 10 0 1 1 628.0127897567456 290.46463960399774 L 663.6267906884161 301.7172292018331 A 5 5 0 1 0 664.4775751895511 291.99271785548143 L 627.45063927856 296.8900489716813 A 10 10 0 1 1 627.215498653189 277.03445268024126 L 701.614120193657 285.08709900789154 A 15 15 0 0 1 710.8223157870865 310.3864084747606 L 659.0058064649006 364.3776055504304" /><circle cx="651.7909292735096" cy="357.4533332339234" fill-opacity="0" r="10" stroke="blue" /><circle cx="668.2792274537172" cy="314.7916391609245" fill-opacity="0" r="5" stroke="blue" /><circle cx="625.0" cy="300.0" fill-opacity="0" r="10" stroke="blue" /><circle cx="665.1331855667889" cy="296.949549003832" fill-opacity="0" r="5" stroke="blue" /><circle cx="626.1394185240844" cy="286.97638667498023" fill-opacity="0" r="10" stroke="blue" /><circle cx="700.0" cy="300.0" fill-opacity="0" r="15" stroke="blue" /><path d="M 909.9777530313971 375.6666666666667 A 10 10 0 0 1 890.316490778271 377.4959265118771 L 874.530865478409 316.25203674406146 A 5 5 0 0 0 873.1907560556092 313.93089913607025 L 828.0448043400379 269.63820172785955 A 10 10 0 0 1 840.0897644257712 253.86393801902398 L 877.4039898729113 275.6477094403733 A 5 5 0 0 0 884.8446228841395 270.4377221168593 L 877.1367903621278 227.92333119013645 A 10 10 0 0 1 896.6867897661633 223.75026139096346 L 914.5656046367745 296.4162643003186 A 15 15 0 0 1 914.9666295470957 301.0 L 909.9777530313971 375.6666666666667" /><circle cx="900.0" cy="375.0" fill-opacity="0" r="10" stroke="blue" /><circle cx="869.6891108675446" cy="317.5" fill-opacity="0" r="5" stroke="blue" /><circle cx="835.048094716167" cy="262.5" fill-opacity="0" r="10" stroke="blue" /><circle cx="879.9248247277134" cy="271.3296784498853" fill-opacity="0" r="5" stroke="blue" /><circle cx="886.9763866749803" cy="226.1394185240844" fill-opacity="0" r="10" stroke="blue" /><circle cx="900.0" cy="300.0" fill-opacity="0" r="15" stroke="blue" /><path d="M 1043.71900193587 248.44954649175844 A 10 10 0 1 1 1061.0320230442305 238.72538610107142 L 1075.304277842353 273.2403187823879 A 5 5 0 1 0 1083.3005594571162 267.6412621180831 L 1055.748530541195 242.42492737977153 A 10 10 0 1 1 1072.0600085119834 232.11445580675687 L 1083.2492907276098 268.5775777271983 A 5 5 0 1 0 1092.6338440531208 265.16187965482845 L 1077.767288535942 230.03717575941388 A 10 10 0 1 1 1096.6867897661632 223.75026139096343 L 1114.5656046367747 296.4162643003186 A 15 15 0 0 1 1087.8921089935404 308.8543195885226 L 1043.71900193587 248.44954649175844" /><circle cx="1051.7909292735096" cy="242.54666676607667" fill-opacity="0" r="10" stroke="blue" /><circle cx="1079.9248247277135" cy="271.3296784498853" fill-opacity="0" r="5" stroke="blue" /><circle cx="1062.5" cy="235.0480947161671" fill-opacity="0" r="10" stroke="blue" /><circle cx="1088.0292949836016" cy="267.11075827249323" fill-opacity="0" r="5" stroke="blue" /><circle cx="1086.9763866749802" cy="226.1394185240844" fill-opacity="0" r="10" stroke="blue" /><circle cx="1100.0" cy="300.0" fill-opacity="0" r="15" stroke="blue" /><path d="M 1353.2337121237235 242.72479461278692 A 10 10 0 0 1 1365.589763614793 257.60457706618365 L 1328.821026537072 309.0638811200614 A 5 5 0 0 0 1327.9043377033558 311.58246299136283 L 1322.9934213733218 374.6370655259867 A 10 10 0 0 1 1303.4180297019313 376.64136612415007 L 1290.0111526506198 330.3303802221656 A 5 5 0 0 0 1283.1862880843562 327.1478936090462 L 1239.0922402256056 346.64575787447313 A 10 10 0 0 1 1227.9719102933252 330.43405250416265 L 1283.4629169391344 274.862652197804 A 5 5 0 0 0 1282.0346352828133 275.8627457802466 L 1353.2337121237235 242.72479461278692" /><circle cx="1357.4533332339233" cy="251.79092927350956" fill-opacity="0" r="10" stroke="blue" /><circle cx="1332.8892417275067" cy="311.9707050163984" fill-opacity="0" r="5" stroke="blue" /><circle cx="1313.0236133250198" cy="373.86058147591564" fill-opacity="0" r="10" stroke="blue" /><circle cx="1285.2083608390756" cy="331.7207725462828" fill-opacity="0" r="5" stroke="blue" /><circle cx="1235.048094716167" cy="337.5" fill-opacity="0" r="10" stroke="blue" /><circle cx="1279.9248247277135" cy="271.3296784498853" fill-opacity="0" r="5" stroke="blue" /><path d="M 96.6867897661633 576.2497386090366 A 10 10 0 0 1 76.99561398461593 574.4804012104173 L 73.2696137988994 514.4817292936735 A 5 5 0 0 0 71.72439069562449 511.1679876549693 L 28.157768232352606 469.74730301191033 A 10 10 0 0 1 40.66436771094512 454.2260965893886 L 74.69429716358208 477.32539619614147 A 5 5 0 0 0 82.06416355960484 471.1413440214129 L 65.22502945330737 433.6172543799025 A 10 10 0 1 1 83.49649671731919 425.48399917199964 L 113.72201120011655 493.9414185964142 A 15 15 0 0 1 114.56560463677458 503.5837356996814 L 96.6867897661633 576.2497386090366" /><circle cx="86.97638667498025" cy="573.8605814759156" fill-opacity="0" r="10" stroke="blue" /><circle cx="68.27922745371724" cy="514.7916391609244" fill-opacity="0" r="5" stroke="blue" /><circle cx="35.048094716167085" cy="462.5" fill-opacity="0" r="10" stroke="blue" /><circle cx="77.5024336609711" cy="473.18844449083576" fill-opacity="0" r="5" stroke="blue" /><circle cx="74.34848925057481" cy="429.52305344105685" fill-opacity="0" r="10" stroke="blue" /><circle cx="100.0" cy="500.0" fill-opacity="0" r="15" stroke="blue" /><path d="M 330.36179827214045 428.04480434003796 A 10 10 0 0 1 347.17994931540665 437.5577921583219 L 328.96742926241404 507.80381785751086 A 5 5 0 0 0 328.98843855233474 507.72541012009606 L 309.63793073556536 577.6665129169844 A 10 10 0 0 1 290.1734747246098 576.8545622157579 L 280.16452529616595 523.8214562336501 A 5 5 0 0 0 276.1785437663499 519.835474703834 L 223.14543778424203 509.8265252753902 A 10 10 0 0 1 222.50407348812288 490.3164907782711 L 283.74796325593854 474.5308654784091 A 5 5 0 0 0 286.0691008639298 473.1907560556092 L 330.36179827214045 428.04480434003796" /><circle cx="337.5" cy="435.0480947161671" fill-opacity="0" r="10" stroke="blue" /><circle cx="333.8074039201174" cy="509.05866657858826" fill-opacity="0" r="5" stroke="blue" /><circle cx="300.0" cy="575.0" fill-opacity="0" r="10" stroke="blue" /><circle cx="275.25126265847086" cy="524.7487373415291" fill-opacity="0" r="5" stroke="blue" /><circle cx="225.0" cy="500.0" fill-opacity="0" r="10" stroke="blue" /><circle cx="282.5" cy="469.6891108675446" fill-opacity="0" r="5" stroke="blue" /><path d="M 578.1413221811174 503.9861767960681 A 10 10 0 0 1 574.7406701401228 522.9848102381991 L 508.6186222464847 528.8268054635278 A 5 5 0 0 0 506.94945692068643 529.2740569646094 L 446.76508608188027 557.2757646375065 A 10 10 0 0 1 435.3356448067077 541.2807836148374 L 468.73869654647336 506.51459455199455 A 5 5 0 0 0 468.08237851750687 499.01284515366245 L 429.14970881473107 470.57521168501114 A 10 10 0 0 1 437.5780093106527 452.82531488137164 L 510.7057477191556 471.9481008318074 A 5 5 0 0 0 509.83033466379754 471.62947653696904 L 578.1413221811174 503.9861767960681" /><circle cx="573.8605814759156" cy="513.0236133250197" fill-opacity="0" r="10" stroke="blue" /><circle cx="509.05866657858826" cy="533.8074039201174" fill-opacity="0" r="5" stroke="blue" /><circle cx="442.54666676607667" cy="548.2090707264905" fill-opacity="0" r="10" stroke="blue" /><circle cx="465.1331855667889" cy="503.050450996168" fill-opacity="0" r="5" stroke="blue" /><circle cx="435.0480947161671" cy="462.5" fill-opacity="0" r="10" stroke="blue" /><circle cx="511.9707050163984" cy="467.11075827249323" fill-opacity="0" r="5" stroke="blue" /><path d="M 683.4964967173192 574.5160008280003 A 10 10 0 1 1 665.554535008412 565.7160255569997 L 684.3218018487947 531.0507820510865 A 5 5 0 0 0 676.1840688157259 525.3526800373935 L 650.0281785900515 554.844353751933 A 10 10 0 1 1 636.6926192806598 540.1016588066184 L 670.0377820152015 516.0244109763345 A 5 5 0 0 0 666.7473165811128 506.98393149667976 L 625.7268833827605 509.9735470394372 A 10 10 0 1 1 624.3333333333334 490.0222469686028 L 699.0 485.03337045290425 A 15 15 0 0 1 713.7220112001165 506.0585814035858 L 683.4964967173192 574.5160008280003" /><circle cx="674.3484892505749" cy="570.4769465589432" fill-opacity="0" r="10" stroke="blue" /><circle cx="679.9248247277134" cy="528.6703215501147" fill-opacity="0" r="5" stroke="blue" /><circle cx="642.5466667660767" cy="548.2090707264905" fill-opacity="0" r="10" stroke="blue" /><circle cx="667.1107582724932" cy="511.97070501639837" fill-opacity="0" r="5" stroke="blue" /><circle cx="625.0" cy="500.0" fill-opacity="0" r="10" stroke="blue" /><circle cx="700.0" cy="500.0" fill-opacity="0" r="15" stroke="blue" /><path d="M 940.9160971321083 435.7046980324703 A 10 10 0 1 1 953.5769966447581 450.9838091339634 L 922.0647743823953 471.03269147452744 A 5 5 0 1 0 928.9673085254725 477.93522561760466 L 949.0161908660366 446.42300335524186 A 10 10 0 1 1 964.3776055504304 459.00580646490056 L 910.3864084747606 510.8223157870865 A 15 15 0 0 1 885.5939485132321 504.17919616201397 L 864.7444549260629 432.30918421573284 A 10 10 0 0 1 883.5417338476999 425.5880497844599 L 901.4810639197801 467.49923047287115 A 5 5 0 0 0 909.7241730155336 468.95271301137586 L 940.9160971321083 435.7046980324703" /><circle cx="948.2090707264904" cy="442.5466667660766" fill-opacity="0" r="10" stroke="blue" /><circle cx="924.7487373415291" cy="475.2512626584708" fill-opacity="0" r="5" stroke="blue" /><circle cx="957.4533332339233" cy="451.79092927350956" fill-opacity="0" r="10" stroke="blue" /><circle cx="900.0" cy="500.0" fill-opacity="0" r="15" stroke="blue" /><circle cx="874.3484892505749" cy="429.52305344105685" fill-opacity="0" r="10" stroke="blue" /><circle cx="906.0776862183426" cy="465.5317286445727" fill-opacity="0" r="5" stroke="blue" /><path d="M 1173.980610517568 476.9771070494692 A 10 10 0 0 1 1178.0945242952491 496.03584185741886 L 1117.9582038626197 524.1405939588955 A 5 5 0 0 0 1116.542670545598 525.1317610580611 L 1069.5650094533771 572.0290262679403 A 10 10 0 0 1 1052.823977260788 562.4271114407131 L 1070.3697400141787 495.1847107032174 A 5 5 0 0 0 1070.5097374039156 494.39074605200864 L 1077.0203691562945 425.2025539833821 A 10 10 0 0 1 1096.3315836022186 422.6066730686929 L 1115.3975768086673 473.09605117758105 A 5 5 0 0 0 1120.0151607514604 476.3293182626408 L 1173.980610517568 476.9771070494692" /><circle cx="1173.8605814759155" cy="486.97638667498023" fill-opacity="0" r="10" stroke="blue" /><circle cx="1120.0751752722865" cy="528.6703215501147" fill-opacity="0" r="5" stroke="blue" /><circle cx="1062.5" cy="564.951905283833" fill-opacity="0" r="10" stroke="blue" /><circle cx="1065.5317286445727" cy="493.92231378165746" fill-opacity="0" r="5" stroke="blue" /><circle cx="1086.9763866749802" cy="426.13941852408436" fill-opacity="0" r="10" stroke="blue" /><circle cx="1120.0751752722865" cy="471.3296784498853" fill-opacity="0" r="5" stroke="blue" /><path d="M 1290.1080552076637 426.466092843367 A 10 10 0 0 1 1309.6570381566555 422.40353816879565 L 1326.892253467955 486.5065917546777 A 5 5 0 0 0 1327.6225577308162 488.0727343004613 L 1365.6497628648563 542.4803238037188 A 10 10 0 0 1 1351.5504535082416 556.2809980641301 L 1291.1456804114773 512.1078910064596 A 15 15 0 0 1 1286.5385186031842 506.61728936976345 L 1253.5256790687895 439.45962096267607 A 10 10 0 1 1 1271.79972190468 431.37179596666135 L 1286.291472469072 468.0307454546355 A 5 5 0 0 0 1295.88730581758 465.4595496581991 L 1290.1080552076637 426.466092843367" /><circle cx="1300.0" cy="425.0" fill-opacity="0" r="10" stroke="blue" /><circle cx="1331.7207725462827" cy="485.2083608390755" fill-opacity="0" r="5" stroke="blue" /><circle cx="1357.4533332339233" cy="548.2090707264904" fill-opacity="0" r="10" stroke="blue" /><circle cx="1300.0" cy="500.0" fill-opacity="0" r="15" stroke="blue" /><circle cx="1262.5" cy="435.0480947161671" fill-opacity="0" r="10" stroke="blue" /><circle cx="1290.9413334214119" cy="466.1925960798826" fill-opacity="0" r="5" stroke="blue" /><path d="M 174.26391457905433 676.984523865278 A 10 10 0 0 1 177.39332693130712 696.3315836022186 L 126.90394882241897 715.3975768086674 A 5 5 0 0 0 123.6706817373592 720.0151607514604 L 123.02289295053079 773.980610517568 A 10 10 0 0 1 103.9635969938215 778.0933233861224 L 70.72260424548173 706.9422956234848 A 5 5 0 0 0 71.17388370819408 708.6264935067397 L 64.38591399395185 630.3873995847539 A 10 10 0 0 1 82.80002972333664 624.1778253227003 L 113.27422976361908 672.3617249267229 A 5 5 0 0 0 117.29833344843065 674.6850422723958 L 174.26391457905433 676.984523865278" /><circle cx="173.8605814759156" cy="686.9763866749803" fill-opacity="0" r="10" stroke="blue" /><circle cx="128.67032155011472" cy="720.0751752722866" fill-opacity="0" r="5" stroke="blue" /><circle cx="113.02361332501975" cy="773.8605814759156" fill-opacity="0" r="10" stroke="blue" /><circle cx="66.1925960798826" cy="709.0586665785883" fill-opacity="0" r="5" stroke="blue" /><circle cx="74.34848925057481" cy="629.5230534410568" fill-opacity="0" r="10" stroke="blue" /><circle cx="117.5" cy="669.6891108675446" fill-opacity="0" r="5" stroke="blue" /><path d="M 290.1135744567467 623.4971394017713 A 10 10 0 0 1 309.9425314108746 623.929453810538 L 315.1039095668493 671.8649515446162 A 5 5 0 0 0 321.27245610414633 676.184214329829 L 368.08238489522375 664.6394174906874 A 10 10 0 0 1 374.51600082800036 683.4964967173192 L 306.0585814035858 713.7220112001165 A 15 15 0 0 1 296.4162643003186 714.5656046367745 L 223.75026139096346 696.6867897661633 A 10 10 0 0 1 226.37614953447786 676.9791891462366 L 277.3840681557744 678.1870432552076 A 5 5 0 0 0 282.44564643259775 673.9398747899502 L 290.1135744567467 623.4971394017713" /><circle cx="300.0" cy="625.0" fill-opacity="0" r="10" stroke="blue" /><circle cx="320.07517527228663" cy="671.3296784498853" fill-opacity="0" r="5" stroke="blue" /><circle cx="370.47694655894315" cy="674.3484892505749" fill-opacity="0" r="10" stroke="blue" /><circle cx="300.0" cy="700.0" fill-opacity="0" r="15" stroke="blue" /><circle cx="226.1394185240844" cy="686.9763866749803" fill-opacity="0" r="10" stroke="blue" /><circle cx="277.5024336609711" cy="673.1884444908358" fill-opacity="0" r="5" stroke="blue" /><path d="M 551.4592516979075 643.7864938443495 A 10 10 0 1 1 562.6886605063826 660.3109849276849 L 529.1031089100532 680.9483330119879 A 5 5 0 0 0 533.3015414390601 689.9519006257357 L 570.699043690361 677.4893071016601 A 10 10 0 1 1 576.2497386090365 696.6867897661633 L 503.5837356996814 714.5656046367745 A 15 15 0 0 1 485.08709900789154 701.614120193657 L 477.03445268024126 627.215498653189 A 10 10 0 0 1 496.71327144364733 623.8605865860734 L 507.1022626320649 668.2501742414986 A 5 5 0 0 0 514.9677457844064 671.1129759870732 L 551.4592516979075 643.7864938443495" /><circle cx="557.4533332339233" cy="651.7909292735096" fill-opacity="0" r="10" stroke="blue" /><circle cx="531.7207725462828" cy="685.2083608390756" fill-opacity="0" r="5" stroke="blue" /><circle cx="573.8605814759156" cy="686.9763866749803" fill-opacity="0" r="10" stroke="blue" /><circle cx="500.0" cy="700.0" fill-opacity="0" r="15" stroke="blue" /><circle cx="486.97638667498023" cy="626.1394185240844" fill-opacity="0" r="10" stroke="blue" /><circle cx="511.9707050163984" cy="667.1107582724932" fill-opacity="0" r="5" stroke="blue" /><path d="M 623.7502613909635 696.6867897661633 A 10 10 0 1 1 631.4422092885056 678.4981551312698 L 662.8803332623621 698.1614295535127 A 5 5 0 0 0 664.4900949529875 689.0320173435512 L 628.2226859072547 696.7569795511928 A 10 10 0 1 1 631.4422092885056 678.4981551312698 L 662.8803332623621 698.1614295535127 A 5 5 0 0 0 664.4900949529875 689.0320173435512 L 628.2226859072547 696.7569795511928 A 10 10 0 1 1 627.215498653189 677.0344526802413 L 701.614120193657 685.0870990078915 A 15 15 0 1 1 696.4162643003186 714.5656046367745 L 623.7502613909635 696.6867897661633" /><circle cx="626.1394185240844" cy="686.9763866749803" fill-opacity="0" r="10" stroke="blue" /><circle cx="665.5317286445727" cy="693.9223137816574" fill-opacity="0" r="5" stroke="blue" /><circle cx="626.1394185240844" cy="686.9763866749803" fill-opacity="0" r="10" stroke="blue" /><circle cx="665.5317286445727" cy="693.9223137816574" fill-opacity="0" r="5" stroke="blue" /><circle cx="626.1394185240844" cy="686.9763866749803" fill-opacity="0" r="10" stroke="blue" /><circle cx="700.0" cy="700.0" fill-opacity="0" r="15" stroke="blue" /><path d="M 978.0933233861224 703.9635969938214 A 10 10 0 0 1 974.6370655259868 722.9934213733216 L 911.5824629913628 727.9043377033558 A 5 5 0 0 0 909.0638811200613 728.821026537072 L 857.6045770661837 765.5897636147928 A 10 10 0 0 1 843.4863745094899 751.8824831936334 L 870.3448734618925 711.8440915987331 A 5 5 0 0 0 868.3958612661902 704.570279059801 L 825.1165230684417 683.3252642881494 A 10 10 0 0 1 830.3873995847538 664.3859139939519 L 908.6264935067397 671.1738837081941 A 5 5 0 0 0 906.9422956234848 670.7226042454818 L 978.0933233861224 703.9635969938214" /><circle cx="973.8605814759156" cy="713.0236133250197" fill-opacity="0" r="10" stroke="blue" /><circle cx="911.9707050163984" cy="732.8892417275068" fill-opacity="0" r="5" stroke="blue" /><circle cx="851.7909292735096" cy="757.4533332339233" fill-opacity="0" r="10" stroke="blue" /><circle cx="866.1925960798826" cy="709.0586665785883" fill-opacity="0" r="5" stroke="blue" /><circle cx="829.5230534410568" cy="674.3484892505749" fill-opacity="0" r="10" stroke="blue" /><circle cx="909.0586665785883" cy="666.1925960798826" fill-opacity="0" r="5" stroke="blue" /><path d="M 1096.6867897661632 776.2497386090366 A 10 10 0 1 1 1078.109055280184 769.2377648091135 L 1095.37499911881 736.1188122535184 A 5 5 0 1 0 1085.945962128877 733.5923094066627 L 1084.3392318356446 770.9071355858524 A 10 10 0 1 1 1064.4383872301928 769.1390833575579 L 1072.0658092826843 712.639636617091 A 5 5 0 0 0 1070.476566619568 708.2732282861456 L 1028.3164780220172 669.8949534605057 A 10 10 0 0 1 1039.459620962676 653.5256790687895 L 1106.6172893697635 686.5385186031842 A 15 15 0 0 1 1114.5656046367747 703.5837356996815 L 1096.6867897661632 776.2497386090366" /><circle cx="1086.9763866749802" cy="773.8605814759156" fill-opacity="0" r="10" stroke="blue" /><circle cx="1090.9413334214119" cy="733.8074039201174" fill-opacity="0" r="5" stroke="blue" /><circle cx="1074.3484892505749" cy="770.4769465589432" fill-opacity="0" r="10" stroke="blue" /><circle cx="1067.1107582724933" cy="711.9707050163984" fill-opacity="0" r="5" stroke="blue" /><circle cx="1035.048094716167" cy="662.5" fill-opacity="0" r="10" stroke="blue" /><circle cx="1100.0" cy="700.0" fill-opacity="0" r="15" stroke="blue" /><path d="M 1341.601649548399 635.0405369127293 A 10 10 0 0 1 1357.297460580282 646.7181377135361 L 1325.7666942055594 715.4142645262704 A 5 5 0 0 0 1326.2324917631831 714.6074794904247 L 1282.505283989119 776.2619875780938 A 10 10 0 0 1 1264.3953099482815 769.5103950722668 L 1270.5083182957194 706.5609619616807 A 5 5 0 0 0 1270.0429031774324 703.9214616627646 L 1242.7685802077901 646.8591158772325 A 10 10 0 0 1 1258.398350451601 635.0405369127293 L 1296.6962894109545 668.7530649266737 A 5 5 0 0 0 1303.3037105890455 668.7530649266737 L 1341.601649548399 635.0405369127293" /><circle cx="1348.2090707264904" cy="642.5466667660767" fill-opacity="0" r="10" stroke="blue" /><circle cx="1330.3108891324553" cy="717.5" fill-opacity="0" r="5" stroke="blue" /><circle cx="1274.3484892505749" cy="770.4769465589432" fill-opacity="0" r="10" stroke="blue" /><circle cx="1265.5317286445727" cy="706.0776862183426" fill-opacity="0" r="5" stroke="blue" /><circle cx="1251.7909292735096" cy="642.5466667660767" fill-opacity="0" r="10" stroke="blue" /><circle cx="1300.0" cy="665.0" fill-opacity="0" r="5" stroke="blue" /></svg>