<?xml version="1.0" encoding="utf-8" ?>
<svg baseProfile="tiny" height="100%" version="1.2" width="100%" xmlns="http://www.w3.org/2000/svg" xmlns:ev="http://www.w3.org/2001/xml-events" xmlns:xlink="http://www.w3.org/1999/xlink"><defs /><path d="M 359.4157801509648 429.2048129465877 A 50 50 0 0 1 359.4157801509648 370.7951870534123 L 475.64946809057886 209.27203147515965 A 30 30 0 0 1 526.611054743504 240.64597571683413 L 473.2970130066919 343.07447176313906 A 15 15 0 0 0 485.9474600803159 364.9856888331169 L 601.310160596256 370.0286223337662 A 30 30 0 0 1 601.310160596256 429.9713776662338 L 485.9474600803159 435.0143111668831 A 15 15 0 0 0 473.2970130066919 456.92552823686094 L 526.611054743504 559.3540242831658 A 30 30 0 0 1 475.64946809057886 590.7279685248403 L 359.4157801509648 429.2048129465877" /><circle cx="400" cy="400" fill-opacity="0" r="50" stroke="blue" /><circle cx="500.0" cy="226.7949" fill-opacity="0" r="30" stroke="blue" /><circle cx="486.6025" cy="350.0" fill-opacity="0" r="15" stroke="blue" /><circle cx="600.0" cy="400.0" fill-opacity="0" r="30" stroke="blue" /><circle cx="486.6025" cy="450.0" fill-opacity="0" r="15" stroke="blue" /><circle cx="500.0" cy="573.2051" fill-opacity="0" r="30" stroke="blue" /></svg>