<?xml version="1.0" encoding="utf-8" ?>
<svg baseProfile="tiny" height="100%" version="1.2" width="100%" xmlns="http://www.w3.org/2000/svg" xmlns:ev="http://www.w3.org/2001/xml-events" xmlns:xlink="http://www.w3.org/1999/xlink"><defs /><path d="M 543.2544343864918 148.51859340402063 A 65 65 0 0 0 500.0 35.0 L 100.0 35.0 A 65 65 0 1 0 100.0 165.0 L 180.0 165.0 A 65 65 0 0 0 227.09893724521118 144.79609481162012 L 262.60962317099893 107.45990345417103 A 24 24 0 0 1 300.96007229307713 135.6908241569609 L 133.7999096336536 435.3864698037989 A 30 30 0 0 0 179.96358510145777 472.3931969557018 L 543.2544343864918 148.51859340402063" /><circle cx="500" cy="100" fill-opacity="0" r="65" stroke="blue" /><circle cx="100" cy="100" fill-opacity="0" r="65" stroke="blue" /><circle cx="180" cy="100" fill-opacity="0" r="65" stroke="blue" /><circle cx="280" cy="124" fill-opacity="0" r="24" stroke="blue" /><circle cx="160" cy="450" fill-opacity="0" r="30" stroke="blue" /></svg>