<?xml version="1.0" encoding="utf-8" ?>
<svg baseProfile="tiny" height="100%" version="1.2" viewBox="0 0 1400 800" width="100%" xmlns="http://www.w3.org/2000/svg" xmlns:ev="http://www.w3.org/2001/xml-events" xmlns:xlink="http://www.w3.org/1999/xlink"><defs /><path d="M 102.25306178691919 25.133216681585154 A 10 10 0 1 1 118.34518941625292 36.962407855404194 L 80.0750005560652 83.6463734603693 A 5 5 0 0 0 83.62142828268341 91.80597067487065 L 148.7523339630165 95.9874235556477 A 10 10 0 1 1 146.31134288274598 115.80348908694646 L 93.01179680389647 106.04857300383223 A 5 5 0 0 0 87.82948863209725 113.54818279977964 L 110.95811609109346 151.9165400947775 A 15 15 0 1 1 85.12126444007973 167.1604533995055 L 54.12126444007973 113.46687836487031 A 15 15 0 0 1 54.573769931955624 97.73270103381185 L 102.25306178691919 25.133216681585154" /><path d="M 379.3889024544187 107.84887417590237 A 8 8 0 1 1 370.03607150586424 120.82532963511669 L 319.0868129605719 82.28738659601616 A 5 5 0 0 0 311.10009046009867 85.73201402755409 L 306.8607082122579 124.53116247327509 A 10 10 0 1 1 287.57551551839896 119.88366115133114 L 296.5920517124172 96.22563766960386 A 5 5 0 0 0 289.7506324443987 89.94004869819884 L 227.2123466254228 120.05385306774505 A 9 9 0 0 1 218.26875788755905 104.48783965155187 L 288.52161336134196 57.01641353246666 A 15 15 0 0 1 305.40751635496804 57.07728260340976 L 379.3889024544187 107.84887417590237" /><path d="M 538.1747751212461 31.35169300919177 A 14 14 0 1 1 549.0330737876377 56.97310589307415 L 493.27728822635174 73.59515078664519 A 5 5 0 0 0 491.56569810513076 82.27775891684168 L 533.2129516416419 115.88741524195366 A 6 6 0 0 1 525.7436490138525 125.27901880809296 L 492.79011696162195 99.4514226117256 A 5 5 0 0 0 484.7359112061522 102.83858167134532 L 477.51294049503196 168.32406187146984 A 7 7 0 0 1 463.58936107529416 168.2479823517173 L 455.6284751369686 88.03810580850741 A 15 15 0 0 1 463.2066942618169 73.47991220077503 L 538.1747751212461 31.35169300919177" /><path d="M 760.6953165284701 67.12383722972058 A 11 11 0 1 1 757.8758363833872 88.87453218299352 L 707.1667718303203 78.21663500986966 A 5 5 0 0 0 701.5468600545522 85.08916686983792 L 719.4030445106363 126.50826191547644 A 9 9 0 1 1 702.4370646671205 132.37072056153886 L 694.1422773931388 100.98288049441426 A 5 5 0 0 0 685.3848386674232 99.16084362251448 L 658.4157766100469 133.29843225367614 A 8 8 0 0 1 644.7780358251144 125.20460260431614 L 667.3377569818302 72.23235532962299 A 15 15 0 0 1 681.8978481740397 63.12896790362957 L 760.6953165284701 67.12383722972058" /><path d="M 858.3332333797963 57.99259787779868 A 11 11 0 1 1 879.5417616777434 62.80466290441389 L 869.6521247229589 87.94815273583073 A 5 5 0 0 0 876.7359282149052 94.14766572291336 L 940.0613381548459 58.917992909071934 A 13 13 0 1 1 950.4381605167173 82.62912879474082 L 891.8954777857195 101.85812509350137 A 5 5 0 0 0 890.4418657611523 110.59797211317141 L 950.2613282167163 155.78877923277673 A 5 5 0 0 1 945.2440278612535 164.3594047704101 L 863.2949520193038 128.52158998420435 A 15 15 0 0 1 854.343450510148 113.7068835920844 L 858.3332333797963 57.99259787779868" /><path d="M 1156.6733384551073 130.3827676889153 A 9 9 0 1 1 1139.9963764151632 137.07739813904362 L 1125.9356556491318 95.27672671453546 A 5 5 0 0 0 1117.0800994185897 94.03277721904463 L 1087.259674143898 137.2860425508449 A 10 10 0 1 1 1071.7899307814666 124.70854759892431 L 1099.8149710998055 95.32152469500501 A 5 5 0 0 0 1096.9297947174225 86.92488713078119 L 1041.1468537302626 78.65533707433411 A 6 6 0 0 1 1041.2661456260257 66.76859971487727 L 1111.1253005556032 57.841199616007906 A 15 15 0 0 1 1126.6044247543075 66.34480684650678 L 1156.6733384551073 130.3827676889153" /><path d="M 1318.3359045944555 54.322009354025305 A 6 6 0 1 1 1321.9802363925758 65.74802334185442 L 1299.843762391289 71.9911410558133 A 5 5 0 0 0 1298.0267869391882 80.6666567256887 L 1332.5896705601833 109.06475679538916 A 7 7 0 1 1 1323.4554121934764 119.66944551989756 L 1299.5512572011219 98.09187906532554 A 5 5 0 0 0 1291.2077089982533 101.5437537757855 L 1288.0354831710665 162.54455231471707 A 11 11 0 0 1 1266.0651791271612 162.5447195651212 L 1262.0705799735063 85.75251177291338 A 15 15 0 0 1 1272.0110958135156 70.84508689452436 L 1318.3359045944555 54.322009354025305" /><path d="M 43.762940359153276 317.79540222658693 A 15 15 0 1 1 64.80809433637444 298.36073659095746 L 73.49660033937717 316.6229890105191 A 5 5 0 0 0 82.99256720130077 314.91133477848524 L 88.19663879459873 255.51942804016358 A 9 9 0 1 1 106.01253282769866 257.9399965630233 L 97.24548338863401 305.3967015069298 A 5 5 0 0 0 104.65324584930963 310.6403553915423 L 167.26386224571655 274.66608534899893 A 14 14 0 0 1 181.37433453439772 298.8499597833919 L 104.80777265742938 344.2103125415042 A 15 15 0 0 1 89.66228675972853 344.29540222658693 L 43.762940359153276 317.79540222658693" /><path d="M 305.0460597187808 349.5042183416189 A 5 5 0 0 1 297.3416475133315 343.12970607250355 L 316.77160114072035 319.224122999976 A 5 5 0 0 0 313.43158124256064 311.0997558247123 L 246.9656592414929 303.8789261324448 A 7 7 0 1 1 248.5860360031645 289.97344208120114 L 304.10429628886027 296.88160933813253 A 5 5 0 0 0 309.5305976660293 290.5507907149841 L 298.9127780069448 253.2556342503807 A 5 5 0 0 1 307.4902224122533 248.60049855330715 L 341.0272915637857 287.0617126881382 A 15 15 0 0 1 341.1948034833683 306.5825650155622 L 305.0460597187808 349.5042183416189" /><path d="M 497.0586614260637 241.62187363573852 A 5 5 0 0 1 504.915564836985 247.8065730837021 L 481.8045198422964 278.003917325431 A 5 5 0 0 0 485.32358359355277 286.0223116093601 L 542.7577188901678 291.23014781717956 A 9 9 0 1 1 540.2405127859442 309.0305016483152 L 494.8919044103103 300.283861242229 A 5 5 0 0 0 489.5313900333528 307.54289348148825 L 519.0375919425638 362.97053983151073 A 12 12 0 0 1 498.28801803921016 374.99969926916003 L 456.24877784146776 308.18127154449326 A 15 15 0 0 1 457.2860266178318 290.75574708787974 L 497.0586614260637 241.62187363573852" /><path d="M 691.2237023835644 245.4255707711897 A 10 10 0 1 1 706.3326106055159 258.3684668269518 L 682.3312899614336 281.1705853105478 A 5 5 0 0 0 685.1515004882058 289.756476545209 L 758.5685841910756 298.9851932055933 A 5 5 0 0 1 757.5531525468136 308.930775995622 L 694.3368051135456 303.96152884979125 A 5 5 0 0 0 689.3443689823382 310.90431202497234 L 703.1461985258622 343.33110340739705 A 10 10 0 0 1 685.8281348603725 353.0883852012461 L 656.769712875469 312.70759630668294 A 15 15 0 0 1 656.6130641602568 295.4066043917074 L 691.2237023835644 245.4255707711897" /><path d="M 859.9011191810569 334.30546309500846 A 10 10 0 1 1 863.9858717350661 314.87239202552524 L 891.1745323777363 324.0798201386149 A 5 5 0 0 0 897.1140330072 316.8537246865055 L 863.6382938011894 258.57067787671485 A 14 14 0 1 1 889.2273468562004 247.70898679790483 L 904.8052125064754 301.5822649771839 A 5 5 0 0 0 913.6961844956483 303.0726704224404 L 934.2852724744442 273.84226672575267 A 11 11 0 0 1 953.2066185952053 284.9126133363234 L 931.3169118430934 330.8020537154187 A 15 15 0 0 1 916.4625226898288 339.2861892587202 L 859.9011191810569 334.30546309500846" /><path d="M 1095.193949213158 248.3590040385639 A 6 6 0 1 1 1104.415423166818 256.0357686671634 L 1083.896957790792 279.9521350009695 A 5 5 0 0 0 1086.9247142060256 288.1486159188348 L 1146.628703806589 297.4176273514246 A 5 5 0 0 1 1145.3591137048559 307.33312126253225 L 1096.3641772888366 302.3837571023381 A 5 5 0 0 0 1091.3557571674532 309.52568867500423 L 1109.7745998215107 347.81996371828075 A 11 11 0 0 1 1090.7373580499466 358.7318021343341 L 1058.4194353419832 310.7364703629826 A 15 15 0 0 1 1059.1924047876257 292.9335348715007 L 1095.193949213158 248.3590040385639" /><path d="M 1270.5731258211877 230.26164549684628 A 9 9 0 1 1 1288.465468789109 232.11454047841056 L 1279.6017895274094 295.16559272931056 A 5 5 0 0 0 1286.814793839312 300.3208782820596 L 1322.6224694656928 282.1594868123343 A 12 12 0 1 1 1329.3848262195454 304.78723325404985 L 1303.1477802864845 307.7227776169337 A 5 5 0 0 0 1300.414751831634 316.4577472564848 L 1329.191006083627 341.5892808598435 A 7 7 0 0 1 1322.0607354406707 353.3901135056543 L 1274.1409126089484 334.8512198014349 A 15 15 0 0 1 1264.5864740023492 319.8616454968463 L 1270.5731258211877 230.26164549684628" /><path d="M 63.2369386157378 432.13909647723847 A 13 13 0 1 1 88.9186849243181 435.2878667116202 L 76.35436049286862 491.35156041424096 A 5 5 0 0 0 83.83787158540746 496.7130477875 L 113.45306424698684 478.64077195821864 A 15 15 0 1 1 119.6317424590811 506.35561406160843 L 100.928947275987 504.30489410529225 A 5 5 0 0 0 97.8734941184568 513.5991650266332 L 151.6786917382998 544.8376131330922 A 14 14 0 0 1 137.80338008697146 569.1569706919934 L 68.89837559417194 530.52925582498 A 15 15 0 0 1 61.23749232560444 517.0920376537091 L 63.2369386157378 432.13909647723847" /><path d="M 354.8247078074289 491.53786855677333 A 12 12 0 1 1 338.94114310551225 509.1173787592073 L 320.2603931408845 485.81438365645147 A 5 5 0 0 0 311.43472700258235 488.0759023993924 L 302.1330043233738 540.9775156132224 A 5 5 0 0 1 292.2429349533884 539.5262516785073 L 297.17416127795684 497.69703931518535 A 5 5 0 0 0 290.16944051617975 492.5463371614006 L 252.78934070272982 509.2422621677378 A 10 10 0 0 1 242.95785826201353 491.93240861036173 L 288.57864725307684 459.8427901671194 A 15 15 0 0 1 305.3593742012656 459.5194243217551 L 354.8247078074289 491.53786855677333" /><path d="M 463.96319719660215 461.4449788301796 A 12 12 0 1 1 486.77520346172935 467.2787939287912 L 476.4319397442099 488.9586669835359 A 5 5 0 0 0 483.06367829127174 495.64041795622023 L 537.9483699909556 469.9598550699732 A 9 9 0 1 1 544.8030420687561 486.58251805841127 L 498.40616223154905 503.23573220378796 A 5 5 0 0 0 497.68788793551124 512.3240515739705 L 532.5303469610511 531.4648083222404 A 15 15 0 1 1 517.8081123827228 557.6020265536129 L 468.44466436700975 529.1020265536129 A 15 15 0 0 1 460.9678304040002 515.2783121635129 L 463.96319719660215 461.4449788301796" /><path d="M 736.0454779987391 551.1383545031537 A 11 11 0 1 1 714.4833021481968 547.4695410628133 L 724.8758788112881 510.8363000063387 A 5 5 0 0 0 717.8565358601426 504.98620012935487 L 674.5002307985128 526.3397607921778 A 11 11 0 1 1 667.1106663560553 505.7664506492859 L 702.0647936939214 497.50757772083807 A 5 5 0 0 0 703.4985353095093 488.3607111988144 L 652.5307412363294 457.60189684523823 A 13 13 0 0 1 665.449244985473 435.0462039446582 L 732.2212490683239 471.2884371920692 A 15 15 0 0 1 740.0381250513453 485.38077874557797 L 736.0454779987391 551.1383545031537" /><path d="M 932.6153146681966 556.9994656142649 A 5 5 0 0 1 922.692476294967 555.770052927316 L 927.6350733358838 509.8399894123248 A 5 5 0 0 0 920.3465322005012 504.8744019508422 L 874.3354296339018 528.9385072953681 A 12 12 0 1 1 865.9707221257114 506.6370578667608 L 904.6811919009696 497.33654552717303 A 5 5 0 0 0 906.2530055455424 488.2924145917744 L 844.2417568253702 447.66998028806796 A 10 10 0 0 1 854.2326412381711 430.38036427189076 L 934.4305039604432 470.9180358229259 A 15 15 0 0 1 942.5183943737387 486.3883545031538 L 932.6153146681966 556.9994656142649" /><path d="M 1099.3497407349414 439.65407601794755 A 5 5 0 0 1 1107.3017691558443 445.7154904676432 L 1081.0849821901038 481.2497004798691 A 5 5 0 0 0 1085.0968859934703 489.2181537112707 L 1150.3106610926143 489.36883952689595 A 14 14 0 1 1 1146.8012367374847 516.930142296796 L 1094.520124815666 503.5254663880602 A 5 5 0 0 0 1088.701316706211 510.3815397379616 L 1108.0169039866569 554.3054749399364 A 9 9 0 0 1 1092.4480834534136 563.1502554295448 L 1056.0612643133475 512.0718902161972 A 15 15 0 0 1 1056.4925978777987 494.08995854154085 L 1099.3497407349414 439.65407601794755" /><path d="M 1239.6380168048634 531.7214622319002 A 11 11 0 1 1 1242.457496949946 509.9707672786273 L 1293.166561503013 520.6286644517512 A 5 5 0 0 0 1298.648378309488 513.4624167119182 L 1279.5068200798398 475.96166986140844 A 12 12 0 1 1 1302.0783155826348 468.8368745054588 L 1306.073715535579 497.280446348953 A 5 5 0 0 0 1314.7040653574595 499.97097502190064 L 1340.7802274201506 471.63900435072503 A 6 6 0 0 1 1350.8319432994824 477.75764144457565 L 1333.2873900034365 525.8740487256914 A 15 15 0 0 1 1318.4354851592936 535.7163315579912 L 1239.6380168048634 531.7214622319002" /><path d="M 50.67485191363931 664.2111592053589 A 5 5 0 0 1 59.87478330167449 660.2951815806863 L 79.06859237129953 703.4298276717205 A 5 5 0 0 0 87.26833518250892 704.8339149859705 L 115.17504049046512 675.3455769383406 A 5 5 0 0 1 122.6321797076767 682.0018691866418 L 104.81119596529737 703.1776227376694 A 5 5 0 0 0 107.48567067829711 711.2628119336683 L 143.1879211282072 719.7089122716749 A 6 6 0 0 1 142.88662432702594 731.4497490727726 L 94.50662432702593 740.3027485644704 A 15 15 0 0 1 77.91130708686615 731.1975422215869 L 50.67485191363931 664.2111592053589" /><path d="M 232.19497883017965 740.9317240078566 A 15 15 0 1 1 235.68824292023928 711.3441571786318 L 296.03055746682645 725.7942462842649 A 5 5 0 0 0 301.824142361365 719.0420560471969 L 276.0658152989943 655.9412834544079 A 5 5 0 0 1 285.2251901137168 651.9356793589575 L 309.4948945655647 703.8970250480363 A 5 5 0 0 0 317.79937992259954 705.0605485056363 L 349.92070475668197 668.0926639770462 A 5 5 0 0 1 358.3670339066016 673.1531068267642 L 336.2111440594455 731.2746737798384 A 15 15 0 0 1 322.19497883017965 740.9317240078566 L 232.19497883017965 740.9317240078566" /><path d="M 531.0001049241089 755.8327989475981 A 10 10 0 1 1 511.25867879622007 752.9857553460818 L 520.9070306815071 709.2146540816896 A 5 5 0 0 0 514.1598152073817 703.49896929219 L 479.34690244520743 717.4892478828881 A 9 9 0 1 1 474.45321390471884 700.2706917691487 L 497.7278959685976 696.2347067809009 A 5 5 0 0 0 500.11777751586385 687.5035740606693 L 465.16972342380217 657.7039386114283 A 6 6 0 0 1 471.24935761926514 647.5509913662905 L 526.4908345362117 669.1699466609958 A 15 15 0 0 1 535.988034026291 684.1800211698203 L 531.0001049241089 755.8327989475981" /><path d="M 703.466862554691 627.0562005313488 A 8 8 0 1 1 716.3221521794211 636.5714092657608 L 681.9247891724926 680.4099929355099 A 5 5 0 0 0 685.1075748479343 688.4397779946131 L 733.0795222318142 695.7264960359585 A 7 7 0 1 1 730.7226751523652 709.5242730323079 L 694.9609100286184 702.7348580918316 A 5 5 0 0 0 689.5447012424145 709.8600836137457 L 717.99553400571 767.5032080263541 A 10 10 0 0 1 700.6974892348009 777.4606373167353 L 656.5320777704449 710.9443503624551 A 15 15 0 0 1 656.7255941469718 694.0655568007353 L 703.466862554691 627.0562005313488" /><path d="M 838.2958154846718 657.1628501471388 A 10 10 0 1 1 856.5619485243548 649.0810403050102 L 878.8840892472837 707.371022579375 A 5 5 0 0 0 887.9253825070003 708.0089966069097 L 912.1073975105357 664.4315582949436 A 15 15 0 1 1 934.5752263598308 683.4376373241942 L 905.436106223902 706.6736369304929 A 5 5 0 0 0 907.3346231201516 715.4320829785938 L 944.9420858861558 724.8843596533267 A 5 5 0 0 1 944.684829455231 734.6402122564092 L 894.6079063783079 744.4535590426962 A 15 15 0 0 1 878.3320777301616 736.4918971942978 L 838.2958154846718 657.1628501471388" /><path d="M 1041.7825315727955 737.0511689662166 A 13 13 0 1 1 1045.2775140972435 711.4467165172814 L 1094.8940037274626 723.9048045236475 A 5 5 0 0 0 1100.447627145866 716.5655036829654 L 1068.470896879591 660.8788073865204 A 14 14 0 1 1 1094.1121773911018 650.2011156833497 L 1108.1201539821056 701.2283299109154 A 5 5 0 0 0 1117.0365555388487 702.7739777982297 L 1138.10312284607 672.7096046645286 A 11 11 0 0 1 1157.0327757863492 683.7729275778038 L 1134.6404595279869 730.5338532806327 A 15 15 0 0 1 1120.7318986614032 739.050527940559 L 1041.7825315727955 737.0511689662166" /><path d="M 1248.7515738504835 703.5357879402156 A 5 5 0 0 1 1255.1588043907566 695.8584501422263 L 1278.1572395178416 714.7547985118256 A 5 5 0 0 0 1286.3110509807375 711.3423740825486 L 1290.5227802720096 664.8200613065195 A 10 10 0 1 1 1310.0950619539005 668.4766863302259 L 1300.675545234403 701.3441885896175 A 5 5 0 0 0 1307.8027844963178 707.1504794488691 L 1354.6680428156974 682.5925879667701 A 12 12 0 0 1 1366.6839692496658 703.3432958758605 L 1308.5397577837823 740.3736978857038 A 15 15 0 0 1 1290.7828877720985 739.163988147673 L 1248.7515738504835 703.5357879402156" /></svg>