<?xml version="1.0" encoding="utf-8" ?>
<svg baseProfile="tiny" height="100%" version="1.2" width="100%" xmlns="http://www.w3.org/2000/svg" xmlns:ev="http://www.w3.org/2001/xml-events" xmlns:xlink="http://www.w3.org/1999/xlink"><defs /><path d="M 129.19234573545617 29.48186793127887 A 10 10 0 1 1 144.97130162018286 41.694872288814835 L 113.09447620883077 77.52597611906515 A 5 5 0 0 0 116.47745834285101 85.83691187809195 L 175.70533735214235 90.02490605459414 A 10 10 0 1 1 172.9793725788738 109.79372578873806 L 126.0103137105631 100.10313710563096 A 5 5 0 0 0 120.5043232810355 107.1883534537548 L 146.491353437929 160.5751983763233 A 10 10 0 0 1 129.19234573545617 170.51813206872112 L 87.53851860318427 108.34934017733232 A 15 15 0 0 1 87.53851860318427 91.65065982266768 L 129.19234573545617 29.48186793127887" /><path d="M 229.48186793127888 70.80765426454383 A 10 10 0 1 1 241.69487228881485 55.02869837981716 L 277.5259761190652 86.90552379116923 A 5 5 0 0 0 285.836911878092 83.52254165714898 L 290.0249060545941 24.294662647857642 A 10 10 0 1 1 309.7937257887381 27.0206274211262 L 300.103137105631 73.9896862894369 A 5 5 0 0 0 307.1883534537548 79.4956767189645 L 360.5751983763233 53.50864656207099 A 10 10 0 0 1 370.5181320687211 70.80765426454381 L 308.3493401773323 112.46148139681571 A 15 15 0 0 1 291.6506598226677 112.46148139681573 L 229.48186793127888 70.80765426454383" /><path d="M 529.1923457354562 29.48186793127887 A 10 10 0 1 1 544.9713016201829 41.69487228881483 L 513.0944762088308 77.52597611906515 A 5 5 0 0 0 516.477458342851 85.83691187809195 L 575.7053373521424 90.02490605459413 A 10 10 0 1 1 572.9793725788738 109.79372578873806 L 526.0103137105631 100.10313710563098 A 5 5 0 0 0 520.5043232810355 107.18835345375479 L 546.491353437929 160.5751983763233 A 10 10 0 0 1 529.1923457354562 170.51813206872112 L 487.5385186031843 108.34934017733232 A 15 15 0 0 1 487.5385186031843 91.65065982266768 L 529.1923457354562 29.48186793127887" /><path d="M 653.5256790687895 39.45962096267608 A 10 10 0 1 1 671.991929041309 31.901146500076813 L 687.0841624982677 77.4228390134342 A 5 5 0 0 0 695.9731350618156 78.64855842433717 L 729.2139839142134 29.449707678270812 A 10 10 0 1 1 744.9713016201829 41.69487228881483 L 713.0944762088308 77.52597611906515 A 5 5 0 0 0 716.477458342851 85.83691187809195 L 775.7053373521424 90.02490605459413 A 10 10 0 0 1 775.6666666666666 109.97775303139719 L 701.0 114.96662954709576 A 15 15 0 0 1 686.5385186031842 106.61728936976344 L 653.5256790687895 39.45962096267608" /><path d="M 824.3333333333334 109.97775303139719 A 10 10 0 1 1 827.0206274211262 90.20627421126194 L 873.9896862894369 99.89686289436902 A 5 5 0 0 0 879.4956767189645 92.81164654624521 L 853.508646562071 39.42480162367672 A 10 10 0 1 1 871.991929041309 31.901146500076813 L 887.0841624982677 77.4228390134342 A 5 5 0 0 0 895.9731350618156 78.64855842433717 L 929.2139839142134 29.449707678270812 A 10 10 0 0 1 946.4743209312105 39.45962096267605 L 913.4614813968158 106.61728936976344 A 15 15 0 0 1 899.0 114.96662954709576 L 824.3333333333334 109.97775303139719" /><path d="M 1029.4818679312789 70.80765426454383 A 10 10 0 1 1 1041.6948722888148 55.02869837981716 L 1077.525976119065 86.90552379116923 A 5 5 0 0 0 1085.8369118780918 83.522541657149 L 1090.024906054594 24.294662647857642 A 10 10 0 1 1 1109.7937257887381 27.020627421126218 L 1100.103137105631 73.98968628943693 A 5 5 0 0 0 1107.1883534537549 79.4956767189645 L 1160.5751983763234 53.50864656207099 A 10 10 0 0 1 1170.5181320687211 70.80765426454383 L 1108.3493401773324 112.46148139681573 A 15 15 0 0 1 1091.6506598226676 112.46148139681573 L 1029.4818679312789 70.80765426454383" /><path d="M 1239.459620962676 146.4743209312105 A 10 10 0 1 1 1231.9011465000767 128.00807095869098 L 1277.422839013434 112.91583750173234 A 5 5 0 0 0 1278.6485584243371 104.02686493818449 L 1229.4497076782707 70.78601608578664 A 10 10 0 1 1 1241.6948722888148 55.02869837981716 L 1277.525976119065 86.90552379116923 A 5 5 0 0 0 1285.8369118780918 83.522541657149 L 1290.024906054594 24.294662647857642 A 10 10 0 0 1 1309.9777530313972 24.333333333333332 L 1314.9666295470959 99.0 A 15 15 0 0 1 1306.6172893697635 113.46148139681571 L 1239.459620962676 146.4743209312105" /><path d="M 160.54037903732393 253.52567906878951 A 10 10 0 1 1 168.09885349992322 271.99192904130905 L 122.57716098656583 287.0841624982677 A 5 5 0 0 0 121.35144157566283 295.9731350618155 L 170.55029232172916 329.2139839142134 A 10 10 0 1 1 158.30512771118515 344.9713016201828 L 122.47402388093485 313.09447620883077 A 5 5 0 0 0 114.16308812190805 316.47745834285104 L 109.97509394540586 375.70533735214235 A 10 10 0 0 1 90.02224696860281 375.6666666666667 L 85.03337045290424 301.0 A 15 15 0 0 1 93.38271063023656 286.5385186031843 L 160.54037903732393 253.52567906878951" /><path d="M 253.52567906878951 239.45962096267607 A 10 10 0 1 1 271.99192904130905 231.90114650007678 L 287.0841624982677 277.4228390134342 A 5 5 0 0 0 295.9731350618155 278.6485584243372 L 329.2139839142134 229.44970767827084 A 10 10 0 1 1 344.9713016201828 241.69487228881485 L 313.09447620883077 277.5259761190652 A 5 5 0 0 0 316.47745834285104 285.836911878092 L 375.70533735214235 290.0249060545941 A 10 10 0 0 1 375.6666666666667 309.9777530313972 L 301.0 314.96662954709575 A 15 15 0 0 1 286.5385186031843 306.61728936976345 L 253.52567906878951 239.45962096267607" /><path d="M 570.5181320687211 329.1923457354562 A 10 10 0 1 1 558.3051277111852 344.9713016201828 L 522.4740238809349 313.09447620883077 A 5 5 0 0 0 514.163088121908 316.47745834285104 L 509.9750939454059 375.70533735214235 A 10 10 0 1 1 490.2062742112619 372.9793725788738 L 499.896862894369 326.0103137105631 A 5 5 0 0 0 492.8116465462452 320.5043232810355 L 439.4248016236767 346.49135343792904 A 10 10 0 0 1 429.4818679312789 329.1923457354562 L 491.65065982266765 287.5385186031843 A 15 15 0 0 1 508.3493401773323 287.5385186031843 L 570.5181320687211 329.1923457354562" /><path d="M 629.4818679312789 270.8076542645438 A 10 10 0 1 1 641.6948722888148 255.02869837981714 L 677.5259761190651 286.90552379116923 A 5 5 0 0 0 685.836911878092 283.52254165714896 L 690.0249060545941 224.29466264785762 A 10 10 0 1 1 709.793725788738 227.0206274211262 L 700.1031371056309 273.9896862894369 A 5 5 0 0 0 707.1883534537548 279.4956767189645 L 760.5751983763233 253.508646562071 A 10 10 0 0 1 770.5181320687211 270.8076542645438 L 708.3493401773324 312.4614813968157 A 15 15 0 0 1 691.6506598226676 312.4614813968157 L 629.4818679312789 270.8076542645438" /><path d="M 929.1923457354562 229.48186793127888 A 10 10 0 1 1 944.9713016201829 241.69487228881485 L 913.0944762088308 277.5259761190652 A 5 5 0 0 0 916.477458342851 285.836911878092 L 975.7053373521424 290.0249060545941 A 10 10 0 1 1 972.9793725788738 309.7937257887381 L 926.0103137105631 300.103137105631 A 5 5 0 0 0 920.5043232810355 307.1883534537548 L 946.491353437929 360.57519837632327 A 10 10 0 0 1 929.1923457354562 370.5181320687211 L 887.5385186031842 308.34934017733235 A 15 15 0 0 1 887.5385186031842 291.6506598226677 L 929.1923457354562 229.48186793127888" /><path d="M 1175.6666666666667 290.0222469686028 A 10 10 0 1 1 1172.9793725788738 309.7937257887381 L 1126.0103137105632 300.103137105631 A 5 5 0 0 0 1120.5043232810356 307.1883534537548 L 1146.491353437929 360.5751983763233 A 10 10 0 1 1 1128.008070958691 368.0988534999232 L 1112.9158375017323 322.57716098656584 A 5 5 0 0 0 1104.0268649381844 321.3514415756628 L 1070.7860160857867 370.55029232172916 A 10 10 0 0 1 1053.5256790687895 360.54037903732393 L 1086.5385186031842 293.38271063023655 A 15 15 0 0 1 1101.0 285.03337045290425 L 1175.6666666666667 290.0222469686028" /><path d="M 1309.9777530313972 375.6666666666667 A 10 10 0 1 1 1290.2062742112619 372.9793725788738 L 1299.896862894369 326.0103137105631 A 5 5 0 0 0 1292.8116465462451 320.5043232810355 L 1239.4248016236766 346.49135343792904 A 10 10 0 1 1 1231.9011465000767 328.00807095869095 L 1277.422839013434 312.9158375017323 A 5 5 0 0 0 1278.6485584243371 304.0268649381845 L 1229.4497076782707 270.7860160857866 A 10 10 0 0 1 1239.459620962676 253.52567906878951 L 1306.6172893697635 286.5385186031843 A 15 15 0 0 1 1314.9666295470959 301.0 L 1309.9777530313972 375.6666666666667" /><path d="M 53.52567906878949 439.45962096267607 A 10 10 0 1 1 71.99192904130902 431.9011465000768 L 87.08416249826766 477.4228390134342 A 5 5 0 0 0 95.97313506181551 478.6485584243372 L 129.21398391421337 429.44970767827084 A 10 10 0 1 1 144.97130162018286 441.69487228881485 L 113.09447620883077 477.5259761190652 A 5 5 0 0 0 116.47745834285102 485.836911878092 L 175.70533735214235 490.0249060545941 A 10 10 0 0 1 175.66666666666666 509.9777530313972 L 101.0 514.9666295470957 A 15 15 0 0 1 86.53851860318429 506.61728936976345 L 53.52567906878949 439.45962096267607" /><path d="M 253.52567906878951 439.45962096267607 A 10 10 0 1 1 271.99192904130905 431.9011465000768 L 287.0841624982677 477.4228390134342 A 5 5 0 0 0 295.9731350618155 478.6485584243372 L 329.2139839142134 429.44970767827084 A 10 10 0 1 1 344.9713016201828 441.69487228881485 L 313.09447620883077 477.5259761190652 A 5 5 0 0 0 316.47745834285104 485.836911878092 L 375.70533735214235 490.0249060545941 A 10 10 0 0 1 375.6666666666667 509.9777530313972 L 301.0 514.9666295470957 A 15 15 0 0 1 286.5385186031843 506.61728936976345 L 253.52567906878951 439.45962096267607" /><path d="M 439.45962096267607 546.4743209312105 A 10 10 0 1 1 431.9011465000768 528.008070958691 L 477.4228390134342 512.9158375017323 A 5 5 0 0 0 478.6485584243372 504.0268649381845 L 429.44970767827084 470.7860160857866 A 10 10 0 1 1 441.69487228881485 455.0286983798172 L 477.5259761190652 486.90552379116923 A 5 5 0 0 0 485.836911878092 483.52254165714896 L 490.0249060545941 424.29466264785765 A 10 10 0 0 1 509.9777530313972 424.3333333333333 L 514.9666295470957 499.0 A 15 15 0 0 1 506.61728936976345 513.4614813968158 L 439.45962096267607 546.4743209312105" /><path d="M 746.4743209312105 560.540379037324 A 10 10 0 1 1 728.008070958691 568.0988534999233 L 712.9158375017323 522.5771609865658 A 5 5 0 0 0 704.0268649381844 521.3514415756629 L 670.7860160857866 570.5502923217292 A 10 10 0 1 1 655.0286983798171 558.3051277111853 L 686.9055237911692 522.4740238809349 A 5 5 0 0 0 683.522541657149 514.163088121908 L 624.2946626478576 509.9750939454059 A 10 10 0 0 1 624.3333333333334 490.0222469686028 L 699.0 485.03337045290425 A 15 15 0 0 1 713.4614813968158 493.38271063023655 L 746.4743209312105 560.540379037324" /><path d="M 909.9777530313971 575.6666666666666 A 10 10 0 1 1 890.206274211262 572.9793725788738 L 899.8968628943691 526.0103137105631 A 5 5 0 0 0 892.8116465462452 520.5043232810355 L 839.4248016236768 546.491353437929 A 10 10 0 1 1 831.9011465000768 528.008070958691 L 877.4228390134342 512.9158375017323 A 5 5 0 0 0 878.6485584243372 504.0268649381845 L 829.4497076782708 470.7860160857867 A 10 10 0 0 1 839.459620962676 453.52567906878954 L 906.6172893697634 486.5385186031843 A 15 15 0 0 1 914.9666295470957 501.0 L 909.9777530313971 575.6666666666666" /><path d="M 1146.4743209312105 560.540379037324 A 10 10 0 1 1 1128.008070958691 568.0988534999233 L 1112.9158375017323 522.5771609865658 A 5 5 0 0 0 1104.0268649381844 521.3514415756628 L 1070.7860160857867 570.5502923217292 A 10 10 0 1 1 1055.0286983798171 558.3051277111852 L 1086.9055237911693 522.4740238809347 A 5 5 0 0 0 1083.522541657149 514.163088121908 L 1024.2946626478576 509.9750939454059 A 10 10 0 0 1 1024.3333333333333 490.0222469686028 L 1099.0 485.03337045290425 A 15 15 0 0 1 1113.4614813968158 493.38271063023655 L 1146.4743209312105 560.540379037324" /><path d="M 1375.6666666666667 490.0222469686028 A 10 10 0 1 1 1372.9793725788738 509.7937257887381 L 1326.0103137105632 500.103137105631 A 5 5 0 0 0 1320.5043232810356 507.1883534537548 L 1346.491353437929 560.5751983763233 A 10 10 0 1 1 1328.008070958691 568.0988534999233 L 1312.9158375017323 522.5771609865658 A 5 5 0 0 0 1304.0268649381844 521.3514415756628 L 1270.7860160857867 570.5502923217292 A 10 10 0 0 1 1253.5256790687895 560.540379037324 L 1286.5385186031842 493.38271063023655 A 15 15 0 0 1 1301.0 485.03337045290425 L 1375.6666666666667 490.0222469686028" /><path d="M 109.97775303139719 775.6666666666666 A 10 10 0 1 1 90.20627421126194 772.9793725788738 L 99.89686289436902 726.0103137105631 A 5 5 0 0 0 92.81164654624521 720.5043232810355 L 39.42480162367672 746.491353437929 A 10 10 0 1 1 31.901146500076813 728.008070958691 L 77.4228390134342 712.9158375017323 A 5 5 0 0 0 78.64855842433717 704.0268649381844 L 29.449707678270812 670.7860160857866 A 10 10 0 0 1 39.45962096267605 653.5256790687895 L 106.61728936976344 686.5385186031842 A 15 15 0 0 1 114.96662954709576 701.0 L 109.97775303139719 775.6666666666666" /><path d="M 270.8076542645438 770.5181320687211 A 10 10 0 1 1 255.02869837981714 758.3051277111852 L 286.90552379116923 722.4740238809349 A 5 5 0 0 0 283.52254165714896 714.163088121908 L 224.29466264785762 709.9750939454059 A 10 10 0 1 1 227.0206274211262 690.206274211262 L 273.9896862894369 699.8968628943691 A 5 5 0 0 0 279.4956767189645 692.8116465462452 L 253.508646562071 639.4248016236768 A 10 10 0 0 1 270.8076542645438 629.4818679312789 L 312.4614813968157 691.6506598226676 A 15 15 0 0 1 312.4614813968157 708.3493401773324 L 270.8076542645438 770.5181320687211" /><path d="M 546.4743209312105 760.540379037324 A 10 10 0 1 1 528.008070958691 768.0988534999233 L 512.9158375017323 722.5771609865658 A 5 5 0 0 0 504.0268649381845 721.3514415756628 L 470.7860160857866 770.5502923217292 A 10 10 0 1 1 455.0286983798172 758.3051277111852 L 486.90552379116923 722.4740238809349 A 5 5 0 0 0 483.52254165714896 714.163088121908 L 424.2946626478576 709.9750939454059 A 10 10 0 0 1 424.3333333333333 690.0222469686029 L 499.0 685.0333704529043 A 15 15 0 0 1 513.4614813968158 693.3827106302366 L 546.4743209312105 760.540379037324" /><path d="M 709.9777530313971 775.6666666666666 A 10 10 0 1 1 690.206274211262 772.9793725788738 L 699.8968628943691 726.0103137105631 A 5 5 0 0 0 692.8116465462452 720.5043232810355 L 639.4248016236768 746.491353437929 A 10 10 0 1 1 631.9011465000768 728.008070958691 L 677.4228390134342 712.9158375017323 A 5 5 0 0 0 678.6485584243371 704.0268649381844 L 629.4497076782708 670.7860160857866 A 10 10 0 0 1 639.459620962676 653.5256790687895 L 706.6172893697634 686.5385186031842 A 15 15 0 0 1 714.9666295470957 701.0 L 709.9777530313971 775.6666666666666" /><path d="M 946.4743209312105 760.540379037324 A 10 10 0 1 1 928.008070958691 768.0988534999233 L 912.9158375017323 722.5771609865658 A 5 5 0 0 0 904.0268649381844 721.3514415756629 L 870.7860160857866 770.5502923217292 A 10 10 0 1 1 855.0286983798171 758.3051277111853 L 886.9055237911692 722.4740238809349 A 5 5 0 0 0 883.522541657149 714.163088121908 L 824.2946626478576 709.9750939454059 A 10 10 0 0 1 824.3333333333334 690.0222469686029 L 899.0 685.0333704529043 A 15 15 0 0 1 913.4614813968158 693.3827106302366 L 946.4743209312105 760.540379037324" /><path d="M 1175.6666666666667 690.0222469686029 A 10 10 0 1 1 1172.9793725788738 709.793725788738 L 1126.0103137105632 700.1031371056309 A 5 5 0 0 0 1120.5043232810356 707.1883534537548 L 1146.491353437929 760.5751983763233 A 10 10 0 1 1 1128.008070958691 768.0988534999233 L 1112.9158375017323 722.5771609865658 A 5 5 0 0 0 1104.0268649381844 721.3514415756628 L 1070.7860160857867 770.5502923217292 A 10 10 0 0 1 1053.5256790687895 760.540379037324 L 1086.5385186031842 693.3827106302366 A 15 15 0 0 1 1101.0 685.0333704529043 L 1175.6666666666667 690.0222469686029" /><path d="M 1224.3333333333333 709.9777530313971 A 10 10 0 1 1 1227.0206274211262 690.206274211262 L 1273.9896862894368 699.8968628943691 A 5 5 0 0 0 1279.4956767189644 692.8116465462452 L 1253.508646562071 639.4248016236768 A 10 10 0 1 1 1271.991929041309 631.9011465000768 L 1287.0841624982677 677.4228390134342 A 5 5 0 0 0 1295.9731350618156 678.6485584243372 L 1329.2139839142133 629.4497076782708 A 10 10 0 0 1 1346.4743209312105 639.459620962676 L 1313.4614813968158 706.6172893697634 A 15 15 0 0 1 1299.0 714.9666295470957 L 1224.3333333333333 709.9777530313971" /></svg>