<?xml version="1.0" encoding="utf-8" ?>
<svg baseProfile="tiny" height="100%" version="1.2" viewBox="0 0 1400 800" width="100%" xmlns="http://www.w3.org/2000/svg" xmlns:ev="http://www.w3.org/2001/xml-events" xmlns:xlink="http://www.w3.org/1999/xlink"><defs /><path d="M 161.7820323027551 47.00961894323343 A 15 15 0 1 1 172.9013509821375 74.55680364287002 L 122.94419553481684 86.97785913796552 A 5 5 0 0 0 120.87117550222031 95.60440109241989 L 157.8390600308103 127.7257259265023 A 5 5 0 0 1 151.50692871024413 135.45994890371048 L 122.20330682278649 112.8701781152117 A 5 5 0 0 0 114.18094916609448 116.28038001174056 L 104.9696859285165 199.54974700718162 A 5 5 0 0 1 95.02557299909344 199.5050505050505 L 85.07671899728032 101.51515151515152 A 15 15 0 0 1 92.5 87.00961894323342 L 161.7820323027551 47.00961894323343" /><path d="M 323.9319802115394 32.55920875942744 A 13 13 0 1 1 343.8518420824241 48.898982825875294 L 313.425572371836 77.18753371662517 A 5 5 0 0 0 316.62160838068934 85.84501501098184 L 368.5004447317589 88.01043974657725 A 12 12 0 1 1 364.59376921477445 111.5064152470603 L 326.4192628271773 100.20566031372488 A 5 5 0 0 0 320.5203167367158 107.22090924187624 L 342.85530317922525 152.27167631764522 A 11 11 0 0 1 323.82456544960274 163.2249166162961 L 287.4880437949128 108.27350904525885 A 15 15 0 0 1 287.2292079363916 92.13190810500556 L 323.9319802115394 32.55920875942744" /><path d="M 449.7535986824758 85.98931997944764 A 13 13 0 1 1 468.3431763890437 69.2201328833686 L 476.37073160605604 85.39289879516673 A 5 5 0 0 0 485.75021945042414 84.16064274666869 L 493.1388036369509 47.612922328172786 A 7 7 0 1 1 506.72661089089723 50.937190213288986 L 500.1952779350734 73.61629270479357 A 5 5 0 0 0 506.7982885596101 79.66542155184024 L 544.7541355127679 65.03532551705563 A 8 8 0 0 1 552.4806395674841 78.8627705082285 L 509.0923294237626 111.93019470292842 A 15 15 0 0 1 491.98638715965126 112.67998459167036 L 449.7535986824758 85.98931997944764" /><path d="M 757.451905283833 49.50961894323342 A 15 15 0 1 1 768.1362219936976 77.15810789601703 L 723.0891961913227 86.9440910535832 A 5 5 0 0 0 721.0498722769689 95.75253316167804 L 749.748668664762 118.43966894303949 A 9 9 0 1 1 737.1693217076668 131.1593605204214 L 723.0383983642441 113.68603784091033 A 5 5 0 0 0 714.150643492729 116.82096289810224 L 713.9999764852694 199.0256595382959 A 14 14 0 0 1 686.0007142310542 199.14141414141415 L 685.0007652475581 100.15151515151516 A 15 15 0 0 1 692.5 87.00961894323342 L 757.451905283833 49.50961894323342" /><path d="M 911.9903961569249 175.48 A 12 12 0 1 1 888.3596764348164 172.08403235651835 L 899.8501348188265 126.21498651811734 A 5 5 0 0 0 893.5733564760357 120.20785139467372 L 854.6612717196047 131.7921486053263 A 5 5 0 0 1 851.5313458420928 122.29906081467824 L 877.5526472589365 112.87081216639959 A 5 5 0 0 0 878.9160420692567 104.22076027407483 L 836.8169245132435 71.5287577898042 A 7 7 0 0 1 843.8727693016868 59.56815643408858 L 905.9196359122043 86.21747807304696 A 15 15 0 0 1 914.9879951961561 100.6 L 911.9903961569249 175.48" /><path d="M 1111.9879645592941 167.53731343283582 A 12 12 0 1 1 1088.5188171800528 163.50966462142227 L 1099.783826174978 126.4543064077407 A 5 5 0 0 0 1092.6333281427003 120.59558581422388 L 1030.3358023282728 154.07059404586272 A 12 12 0 1 1 1020.7986062368122 132.13680791264824 L 1077.4565247528647 112.90453635080772 A 5 5 0 0 0 1078.5611540131997 103.9691349703517 L 1007.9738814059347 58.401476021452254 A 10 10 0 0 1 1017.9581930085234 41.10057805399691 L 1106.841100080451 86.65086708099535 A 15 15 0 0 1 1114.9849556991178 100.67164179104478 L 1111.9879645592941 167.53731343283582" /><path d="M 1232.0 115.0 A 15 15 0 1 1 1237.3471435042327 85.98543413640145 L 1273.2176188319224 99.67152195453285 A 5 5 0 0 0 1279.5922250561184 93.02225658035246 L 1255.0708849214343 36.08488469610478 A 7 7 0 1 1 1267.9805243553376 30.669762729305884 L 1287.201181050824 77.73956574774068 A 5 5 0 0 0 1295.9920420824187 78.62036887583746 L 1341.0085528857062 11.007728686102311 A 9 9 0 0 1 1356.5576540171678 20.004801568629503 L 1313.4294233619464 106.68210955953344 A 15 15 0 0 1 1300.0 115.0 L 1232.0 115.0" /><path d="M 89.03388533272566 248.13725490196077 A 11 11 0 1 1 109.86187818742152 253.87271573318816 L 100.51732809662658 272.7851292121872 A 5 5 0 0 0 106.6809012986006 279.7089883015742 L 155.47677535117234 262.2910116984258 A 5 5 0 0 1 159.10666604640025 271.6045021806743 L 122.20164569798368 287.22562483824794 A 5 5 0 0 0 121.4291328210275 296.0245787560244 L 172.67126109328547 329.2722061783751 A 11 11 0 0 1 161.68625391443163 348.29913123446704 L 93.18495157685886 313.36245168336416 A 15 15 0 0 1 85.04620727189864 298.8235294117647 L 89.03388533272566 248.13725490196077" /><path d="M 339.5409485777627 348.55423138688036 A 10 10 0 1 1 320.7776176839556 355.16748170265697 L 313.03106413909995 322.9806690587078 A 5 5 0 0 0 303.8443352955492 321.64270293223655 L 262.6115055194801 392.7587250293077 A 14 14 0 1 1 239.93047916284868 376.5558162391043 L 286.94470185148896 322.4294560715949 A 5 5 0 0 0 283.8438523468864 314.19626815074577 L 223.19122476102962 305.94524033263826 A 6 6 0 0 1 223.28947368421052 294.0422191753497 L 298.2236842105263 285.1055479383743 A 15 15 0 0 1 313.56142286664414 293.5900226340445 L 339.5409485777627 348.55423138688036" /><path d="M 541.1317724133866 361.336590206282 A 5 5 0 0 1 531.9318410253514 365.2525678309546 L 512.7380319557263 322.11792173992035 A 5 5 0 0 0 503.88987921179836 321.5657456704906 L 473.6279838001265 371.6726177865458 A 13 13 0 1 1 453.3526312476506 355.71471713437194 L 486.6880917319814 322.70339976748056 A 5 5 0 0 0 483.6656077513015 314.17527108404937 L 411.3059713216868 306.9655096147862 A 7 7 0 0 1 411.3636363636364 293.02898563175245 L 498.6363636363636 285.0621120680409 A 15 15 0 0 1 513.8953172401598 294.35020719005394 L 541.1317724133866 361.336590206282" /><path d="M 705.9724355516987 394.5744680851064 A 6 6 0 0 1 694.0228722565457 393.4766034596706 L 699.9809397862119 325.4361637836078 A 5 5 0 0 0 692.6242095148273 320.60049780423253 L 656.8136072457362 339.9387057089954 A 13 13 0 1 1 649.4769025352795 315.5518258756141 L 676.2953839242381 313.14993995199546 A 5 5 0 0 0 678.7474286652731 304.09541271698794 L 625.2150402776459 266.0191364225437 A 8 8 0 0 1 633.2382439405886 252.25203744803707 L 706.3493155883654 286.41007021506954 A 15 15 0 0 1 714.9310888792467 301.43617021276594 L 705.9724355516987 394.5744680851064" /><path d="M 895.0560053507307 232.2537313432836 A 5 5 0 0 1 904.9639259289963 233.59953262750042 L 900.0360740710037 274.4004673724996 A 5 5 0 0 0 907.5441424751123 279.3043395621546 L 978.970112953107 237.08698131353614 A 15 15 0 1 1 991.3330958054814 264.23453003620864 L 922.5737832855984 287.0852836735193 A 5 5 0 0 0 921.7190282805302 296.199027143864 L 968.7826241109373 322.3932996251746 A 15 15 0 1 1 953.9878036686952 348.4903810567666 L 892.5 312.9903810567666 A 15 15 0 0 1 885.1680160521923 297.76119402985074 L 895.0560053507307 232.2537313432836" /><path d="M 1179.632911392405 290.0200489395306 A 10 10 0 1 1 1177.1318472778507 309.8239506007882 L 1125.9340763610746 300.0880246996059 A 5 5 0 0 0 1120.63117297583 307.43173815055854 L 1156.358950262842 371.6197671491473 A 13 13 0 1 1 1132.6625140925892 382.0394123435969 L 1112.9150598685435 322.5748174011504 A 5 5 0 0 0 1104.176036786828 321.1424342280628 L 1078.1889051496494 355.64423497928414 A 9 9 0 0 1 1062.782071450264 346.55991617761737 L 1086.3034524171067 293.88407126353314 A 15 15 0 0 1 1100.9493670886077 285.03007340929594 L 1179.632911392405 290.0200489395306" /><path d="M 1292.0412742948497 230.18840579710144 A 8 8 0 1 1 1307.863779390064 232.47002506931088 L 1300.08513788121 274.08123433168066 A 5 5 0 0 0 1307.148633825118 279.5147948663875 L 1366.2805168213272 251.37336924050248 A 9 9 0 1 1 1373.326871749633 267.91992525379123 L 1322.3846272928924 287.1523907668159 A 5 5 0 0 0 1321.6403202913489 296.15428238020644 L 1376.310913751889 327.8923649884042 A 14 14 0 0 1 1362.4341336447815 352.21090840069326 L 1292.6629657235997 313.0831161435999 A 15 15 0 0 1 1285.0773893028431 298.4782608695652 L 1292.0412742948497 230.18840579710144" /><path d="M 153.67924528301887 488.0192393461226 A 12 12 0 1 1 147.63066812128423 510.73174147919184 L 127.23722161613154 500.5284410503367 A 5 5 0 0 0 120.39194616083846 506.94057718614556 L 146.02966460699386 567.8193650831649 A 6 6 0 0 1 135.01106435895966 572.5711931811916 L 112.7439860152781 522.131355532401 A 5 5 0 0 0 103.9395774189866 521.4851896426552 L 60.30665023660067 590.7344695651775 A 11 11 0 0 1 41.25716933003298 579.7639006373157 L 86.71432181368131 493.0364696360556 A 15 15 0 0 1 100.84905660377359 485.02404918265324 L 153.67924528301887 488.0192393461226" /><path d="M 315.0 570.0 A 15 15 0 1 1 285.8933514070018 564.9007387325554 L 299.7022161976661 526.6997537558149 A 5 5 0 0 0 292.7811778118431 520.5192826358559 L 219.9894157715919 556.5652912554594 A 9 9 0 1 1 212.509704144534 540.2024716065374 L 277.78593806559763 512.7796109774458 A 5 5 0 0 0 278.3655706386335 503.8491428682395 L 243.59117593120243 483.5980443159472 A 14 14 0 0 1 257.42276665293116 459.25470333266367 L 307.27094428783306 486.88003928499677 A 15 15 0 0 1 315.0 500.0 L 315.0 570.0" /><path d="M 508.9481927259768 556.9642857142857 A 9 9 0 1 1 491.40787435904076 553.3213105872514 L 499.7734031338662 526.4881607848603 A 5 5 0 0 0 492.44982771496973 520.6992301483731 L 429.70823051449133 557.902309554881 A 15 15 0 1 1 417.7891856889077 530.6201645014582 L 477.27220756222 512.9631514805917 A 5 5 0 0 0 478.68333541245573 504.0505755694945 L 414.0592592329561 459.5908758585332 A 8 8 0 0 1 422.0665756060333 445.79316129647583 L 506.51180667831983 486.4871774308922 A 15 15 0 0 1 514.9136545432947 501.60714285714283 L 508.9481927259768 556.9642857142857" /><path d="M 754.4903810567666 564.3801085141084 A 15 15 0 1 1 726.9998984780796 575.7202980737527 L 713.0032401550512 522.8705719080629 A 5 5 0 0 0 703.8029912230002 521.7154053906675 L 676.1006452742329 571.3915689918789 A 15 15 0 1 1 652.9885339575656 552.9158061255389 L 686.507028328556 522.8739930127808 A 5 5 0 0 0 683.3069740332373 514.1525151179101 L 604.6709574748171 511.9954879440822 A 12 12 0 0 1 604.6210526315789 488.0059848719469 L 699.5263157894736 485.0074810899336 A 15 15 0 0 1 712.9903810567666 492.5 L 754.4903810567666 564.3801085141084" /><path d="M 942.2505747399811 412.86855370108174 A 7 7 0 1 1 953.686155195973 420.9441632363149 L 912.7685875932273 477.9332206199455 A 5 5 0 0 0 916.3152965226212 485.82278923477 L 995.6177965955612 494.03189080474283 A 6 6 0 0 1 994.4841272719066 505.97778180669127 L 925.4298939400779 500.0185151610906 A 5 5 0 0 0 920.590104005744 507.3564416648509 L 951.5837503862143 565.3586231146819 A 12 12 0 0 1 930.8341646713951 577.3902725736077 L 887.2927058392439 507.9702368291046 A 15 15 0 0 1 887.679803014245 491.4435552808311 L 942.2505747399811 412.86855370108174" /><path d="M 1049.28 511.9783805249291 A 12 12 0 1 1 1056.0923076923077 489.66153846153844 L 1072.4615384615383 499.3076923076923 A 5 5 0 0 0 1079.7475979666071 493.43146133376683 L 1066.8028824400715 454.25084919133565 A 6 6 0 1 1 1078.1978978094023 450.48871966952964 L 1087.08187884442 477.41593417399423 A 5 5 0 0 0 1096.0927103806785 478.4628650649603 L 1138.769799931785 408.857110046154 A 12 12 0 0 1 1159.5711078094896 420.8085666605904 L 1113.2138847618621 507.09882028933174 A 15 15 0 0 1 1099.1 514.9729756561613 L 1049.28 511.9783805249291" /><path d="M 1305.9384599116647 563.8571428571429 A 6 6 0 1 1 1294.0768909146952 562.0425143533296 L 1299.935924237754 525.7979047055587 A 5 5 0 0 0 1293.5347407700851 520.2195172430863 L 1257.5910154828914 531.2365793082964 A 6 6 0 1 1 1254.1449886155015 519.7422560488375 L 1277.2557947316322 512.9679929403799 A 5 5 0 0 0 1278.7609004765259 504.1050285045935 L 1218.8475892635931 461.1907822670779 A 7 7 0 0 1 1225.864655896271 449.14775565796845 L 1306.301964642327 486.38804783850384 A 15 15 0 0 1 1314.8461497791618 502.14285714285717 L 1305.9384599116647 563.8571428571429" /><path d="M 107.97464991848005 788.6363636363636 A 8 8 0 1 1 92.06542851034814 786.9789342452104 L 99.95910718103241 725.6381660967435 A 5 5 0 0 0 92.99125190961551 720.4212522334839 L 16.272233115725076 754.0787477665161 A 5 5 0 0 1 12.062472418451161 745.0105074335385 L 78.05037751227846 712.6593655475393 A 5 5 0 0 0 78.61842979136301 704.0066675264712 L 36.750380601084295 676.1590520001345 A 11 11 0 0 1 47.75486277837095 657.1578987829361 L 106.69891740201442 686.5789528858219 A 15 15 0 0 1 114.95246859715012 701.1931818181819 L 107.97464991848005 788.6363636363636" /><path d="M 237.29032258064515 710.9770833084411 A 11 11 0 1 1 241.3404705471466 689.5194820488849 L 273.4816042967515 699.7638717959614 A 5 5 0 0 0 279.5273442391557 692.8779363486965 L 263.5398426738575 658.7691936322925 A 11 11 0 1 1 284.441854790598 652.9711343470575 L 286.8565566595595 676.3627827473741 A 5 5 0 0 0 295.5913530079226 679.1437812512185 L 327.23877401099963 643.0120086195354 A 5 5 0 0 1 335.676658483707 648.0752848882448 L 314.02997545112106 705.3065797686401 A 15 15 0 0 1 299.03225806451616 714.9687499660562 L 237.29032258064515 710.9770833084411" /><path d="M 412.52635967798216 656.3953872988849 A 6 6 0 0 1 419.4193151344099 646.5727558113467 L 477.99621548747206 687.2759098049555 A 5 5 0 0 0 485.83204876678803 683.5856391862388 L 492.02770582176163 609.3347740717423 A 8 8 0 1 1 507.9385897900385 610.9893392469202 L 500.0383813812259 674.3816629706749 A 5 5 0 0 0 507.2349555265405 679.4726920075483 L 539.6694277330936 663.2655391818843 A 12 12 0 0 1 551.6228835159112 684.0288416981526 L 508.2369531489004 712.5360521226908 A 15 15 0 0 1 491.3270596126817 712.2384682472123 L 412.52635967798216 656.3953872988849" /><path d="M 756.9642857142857 691.0518072740232 A 9 9 0 1 1 753.3213105872514 708.5921256409592 L 726.4881607848603 700.2265968661337 A 5 5 0 0 0 720.4661186804598 707.1080607629584 L 754.8474338473562 781.0531790989488 A 7 7 0 1 1 742.1252999395116 786.8963837957816 L 712.723230167141 722.0849782169744 A 5 5 0 0 0 704.0533904122824 721.3125774382545 L 674.2329651375908 764.5658427700547 A 10 10 0 0 1 656.9955417865654 754.5400455974227 L 686.493312679848 693.4754772101214 A 15 15 0 0 1 701.6071428571429 685.0863454567053 L 756.9642857142857 691.0518072740232" /><path d="M 831.6254273943265 673.2060114766115 A 11 11 0 1 1 845.2478193166769 656.049217537397 L 877.3940701830452 686.7838650095337 A 5 5 0 0 0 885.8233198549004 683.6795514681957 L 893.036463070684 613.2864501180351 A 7 7 0 1 1 906.9533143829459 614.8071053784471 L 900.0333468693244 674.4234961582521 A 5 5 0 0 0 907.1635504317497 679.5076656408029 L 980.5427834762909 644.2877349747152 A 8 8 0 0 1 988.4940084405983 658.1214796092877 L 908.4178955128272 712.4152742674145 A 15 15 0 0 1 891.7898951820082 712.5536520135612 L 831.6254273943265 673.2060114766115" /><path d="M 1184.4285714285713 688.0076555031716 A 12 12 0 1 1 1181.5376828918986 711.744658124405 L 1126.025965461709 700.1063924481646 A 5 5 0 0 0 1120.4860991608457 707.1505113843644 L 1137.9305818461398 743.7662975663268 A 11 11 0 1 1 1117.1216469785695 750.1288132889692 L 1113.1145788999097 723.4090938777742 A 5 5 0 0 0 1103.8458138035467 721.6401546168522 L 1072.6073656970875 775.4453522366952 A 14 14 0 0 1 1048.2880081381863 761.5700405853669 L 1086.9157230051997 692.6650360925673 A 15 15 0 0 1 1100.5357142857142 685.0095693789644 L 1184.4285714285713 688.0076555031716" /><path d="M 1276.4903810567666 770.719854476264 A 15 15 0 1 1 1253.5678004768633 751.9792400521054 L 1286.4806061554566 722.8975065693305 A 5 5 0 0 0 1283.909244980104 714.2056043518293 L 1241.8170048015581 707.9120491884507 A 8 8 0 1 1 1245.0413805930073 692.264835795247 L 1273.7241371293703 699.8344776279706 A 5 5 0 0 0 1279.4269124387108 692.675683700529 L 1242.760792634836 622.8410824993144 A 11 11 0 0 1 1261.7862524008647 611.8313576466691 L 1312.6630714557245 691.9596877357147 A 15 15 0 0 1 1312.9903810567666 707.5 L 1276.4903810567666 770.719854476264" /></svg>