<?xml version="1.0" encoding="utf-8" ?>
<svg baseProfile="tiny" height="100%" version="1.2" viewBox="0 0 2100 1200" width="100%" xmlns="http://www.w3.org/2000/svg" xmlns:ev="http://www.w3.org/2001/xml-events" xmlns:xlink="http://www.w3.org/1999/xlink"><defs /><path d="M 129.19234573545617 29.48186793127887 A 10 10 0 1 1 144.97130162018286 41.694872288814835 L 113.09447620883077 77.52597611906515 A 5 5 0 0 0 116.47745834285101 85.83691187809195 L 175.70533735214235 90.02490605459414 A 10 10 0 1 1 172.9793725788738 109.79372578873806 L 126.0103137105631 100.10313710563096 A 5 5 0 0 0 120.5043232810355 107.1883534537548 L 146.491353437929 160.5751983763233 A 10 10 0 0 1 129.19234573545617 170.51813206872112 L 87.53851860318427 108.34934017733232 A 15 15 0 0 1 87.53851860318427 91.65065982266768 L 129.19234573545617 29.48186793127887" /><path d="M 270.8076542645438 170.51813206872112 A 10 10 0 1 1 255.02869837981714 158.30512771118515 L 286.90552379116923 122.47402388093485 A 5 5 0 0 0 283.52254165714896 114.16308812190805 L 224.29466264785765 109.97509394540586 A 10 10 0 1 1 227.0206274211262 90.20627421126194 L 273.9896862894369 99.89686289436904 A 5 5 0 0 0 279.4956767189645 92.8116465462452 L 253.508646562071 39.42480162367671 A 10 10 0 0 1 270.8076542645438 29.4818679312789 L 312.4614813968157 91.65065982266768 A 15 15 0 0 1 312.4614813968157 108.34934017733232 L 270.8076542645438 170.51813206872112" /><path d="M 453.52567906878954 39.45962096267608 A 10 10 0 1 1 471.99192904130905 31.9011465000768 L 487.0841624982677 77.42283901343419 A 5 5 0 0 0 495.9731350618155 78.64855842433718 L 529.2139839142134 29.449707678270823 A 10 10 0 1 1 544.9713016201829 41.69487228881483 L 513.0944762088308 77.52597611906515 A 5 5 0 0 0 516.477458342851 85.83691187809195 L 575.7053373521424 90.02490605459413 A 10 10 0 0 1 575.6666666666666 109.97775303139719 L 501.0 114.96662954709576 A 15 15 0 0 1 486.5385186031843 106.61728936976344 L 453.52567906878954 39.45962096267608" /><path d="M 690.0222469686029 24.333333333333332 A 10 10 0 1 1 709.793725788738 27.020627421126182 L 700.1031371056309 73.98968628943689 A 5 5 0 0 0 707.1883534537548 79.4956767189645 L 760.5751983763233 53.508646562071 A 10 10 0 1 1 768.0988534999233 71.99192904130905 L 722.5771609865658 87.08416249826767 A 5 5 0 0 0 721.3514415756628 95.97313506181553 L 770.5502923217292 129.21398391421334 A 10 10 0 0 1 760.540379037324 146.47432093121049 L 693.3827106302366 113.46148139681573 A 15 15 0 0 1 685.0333704529043 99.0 L 690.0222469686029 24.333333333333332" /><path d="M 970.5181320687211 129.19234573545617 A 10 10 0 1 1 958.3051277111853 144.97130162018286 L 922.4740238809349 113.09447620883077 A 5 5 0 0 0 914.163088121908 116.47745834285102 L 909.9750939454059 175.70533735214235 A 10 10 0 1 1 890.206274211262 172.9793725788738 L 899.8968628943691 126.01031371056311 A 5 5 0 0 0 892.8116465462452 120.5043232810355 L 839.4248016236768 146.49135343792904 A 10 10 0 0 1 829.4818679312789 129.19234573545623 L 891.6506598226676 87.53851860318429 A 15 15 0 0 1 908.3493401773324 87.53851860318427 L 970.5181320687211 129.19234573545617" /><path d="M 1039.459620962676 146.4743209312105 A 10 10 0 1 1 1031.9011465000767 128.00807095869098 L 1077.422839013434 112.91583750173234 A 5 5 0 0 0 1078.6485584243371 104.02686493818449 L 1029.4497076782707 70.78601608578664 A 10 10 0 1 1 1041.6948722888148 55.02869837981716 L 1077.525976119065 86.90552379116923 A 5 5 0 0 0 1085.8369118780918 83.522541657149 L 1090.024906054594 24.294662647857642 A 10 10 0 0 1 1109.9777530313972 24.333333333333332 L 1114.9666295470959 99.0 A 15 15 0 0 1 1106.6172893697635 113.46148139681571 L 1039.459620962676 146.4743209312105" /><path d="M 1239.459620962676 146.4743209312105 A 10 10 0 1 1 1231.9011465000767 128.00807095869098 L 1277.422839013434 112.91583750173234 A 5 5 0 0 0 1278.6485584243371 104.02686493818449 L 1229.4497076782707 70.78601608578664 A 10 10 0 1 1 1241.6948722888148 55.02869837981716 L 1277.525976119065 86.90552379116923 A 5 5 0 0 0 1285.8369118780918 83.522541657149 L 1290.024906054594 24.294662647857642 A 10 10 0 0 1 1309.9777530313972 24.333333333333332 L 1314.9666295470959 99.0 A 15 15 0 0 1 1306.6172893697635 113.46148139681571 L 1239.459620962676 146.4743209312105" /><path d="M 90.02224696860281 224.33333333333334 A 10 10 0 1 1 109.79372578873806 227.0206274211262 L 100.10313710563096 273.9896862894369 A 5 5 0 0 0 107.1883534537548 279.4956767189645 L 160.5751983763233 253.508646562071 A 10 10 0 1 1 168.09885349992322 271.99192904130905 L 122.57716098656583 287.0841624982677 A 5 5 0 0 0 121.35144157566283 295.9731350618155 L 170.55029232172916 329.2139839142134 A 10 10 0 0 1 160.54037903732393 346.47432093121046 L 93.38271063023656 313.4614813968157 A 15 15 0 0 1 85.03337045290424 299.0 L 90.02224696860281 224.33333333333334" /><path d="M 346.47432093121046 360.54037903732393 A 10 10 0 1 1 328.00807095869095 368.0988534999232 L 312.9158375017323 322.5771609865658 A 5 5 0 0 0 304.0268649381845 321.3514415756628 L 270.7860160857866 370.55029232172916 A 10 10 0 1 1 255.02869837981714 358.30512771118515 L 286.90552379116923 322.4740238809348 A 5 5 0 0 0 283.52254165714896 314.163088121908 L 224.29466264785765 309.9750939454059 A 10 10 0 0 1 224.33333333333334 290.0222469686028 L 299.0 285.03337045290425 A 15 15 0 0 1 313.4614813968157 293.38271063023655 L 346.47432093121046 360.54037903732393" /><path d="M 470.8076542645438 370.5181320687211 A 10 10 0 1 1 455.0286983798172 358.30512771118515 L 486.90552379116923 322.4740238809348 A 5 5 0 0 0 483.52254165714896 314.163088121908 L 424.29466264785765 309.9750939454059 A 10 10 0 1 1 427.0206274211262 290.2062742112619 L 473.9896862894369 299.896862894369 A 5 5 0 0 0 479.4956767189645 292.8116465462452 L 453.50864656207096 239.4248016236767 A 10 10 0 0 1 470.8076542645438 229.48186793127888 L 512.4614813968158 291.6506598226677 A 15 15 0 0 1 512.4614813968158 308.34934017733235 L 470.8076542645438 370.5181320687211" /><path d="M 770.5181320687211 329.1923457354562 A 10 10 0 1 1 758.3051277111852 344.9713016201828 L 722.4740238809349 313.09447620883077 A 5 5 0 0 0 714.163088121908 316.47745834285104 L 709.9750939454059 375.7053373521424 A 10 10 0 1 1 690.206274211262 372.97937257887384 L 699.8968628943691 326.0103137105631 A 5 5 0 0 0 692.8116465462452 320.5043232810355 L 639.4248016236768 346.491353437929 A 10 10 0 0 1 629.4818679312789 329.1923457354562 L 691.6506598226676 287.5385186031843 A 15 15 0 0 1 708.3493401773324 287.5385186031843 L 770.5181320687211 329.1923457354562" /><path d="M 929.1923457354562 229.48186793127888 A 10 10 0 1 1 944.9713016201829 241.69487228881485 L 913.0944762088308 277.5259761190652 A 5 5 0 0 0 916.477458342851 285.836911878092 L 975.7053373521424 290.0249060545941 A 10 10 0 1 1 972.9793725788738 309.7937257887381 L 926.0103137105631 300.103137105631 A 5 5 0 0 0 920.5043232810355 307.1883534537548 L 946.491353437929 360.57519837632327 A 10 10 0 0 1 929.1923457354562 370.5181320687211 L 887.5385186031842 308.34934017733235 A 15 15 0 0 1 887.5385186031842 291.6506598226677 L 929.1923457354562 229.48186793127888" /><path d="M 1024.3333333333333 309.9777530313972 A 10 10 0 1 1 1027.0206274211262 290.2062742112619 L 1073.9896862894368 299.896862894369 A 5 5 0 0 0 1079.4956767189644 292.8116465462452 L 1053.508646562071 239.42480162367667 A 10 10 0 1 1 1071.991929041309 231.90114650007678 L 1087.0841624982677 277.42283901343416 A 5 5 0 0 0 1095.9731350618156 278.6485584243372 L 1129.2139839142133 229.44970767827084 A 10 10 0 0 1 1146.4743209312105 239.45962096267607 L 1113.4614813968158 306.61728936976345 A 15 15 0 0 1 1099.0 314.96662954709575 L 1024.3333333333333 309.9777530313972" /><path d="M 1329.1923457354562 229.48186793127888 A 10 10 0 1 1 1344.9713016201829 241.69487228881488 L 1313.0944762088307 277.5259761190652 A 5 5 0 0 0 1316.477458342851 285.836911878092 L 1375.7053373521424 290.0249060545941 A 10 10 0 1 1 1372.9793725788738 309.7937257887381 L 1326.0103137105632 300.103137105631 A 5 5 0 0 0 1320.5043232810356 307.1883534537548 L 1346.491353437929 360.5751983763233 A 10 10 0 0 1 1329.1923457354562 370.5181320687211 L 1287.5385186031842 308.34934017733235 A 15 15 0 0 1 1287.5385186031842 291.6506598226677 L 1329.1923457354562 229.48186793127888" /><path d="M 170.51813206872112 529.1923457354562 A 10 10 0 1 1 158.30512771118515 544.9713016201829 L 122.47402388093487 513.0944762088308 A 5 5 0 0 0 114.16308812190805 516.477458342851 L 109.97509394540587 575.7053373521424 A 10 10 0 1 1 90.20627421126194 572.9793725788738 L 99.89686289436902 526.0103137105631 A 5 5 0 0 0 92.81164654624521 520.5043232810355 L 39.42480162367672 546.491353437929 A 10 10 0 0 1 29.4818679312789 529.1923457354562 L 91.65065982266768 487.5385186031843 A 15 15 0 0 1 108.34934017733232 487.5385186031843 L 170.51813206872112 529.1923457354562" /><path d="M 239.45962096267607 546.4743209312105 A 10 10 0 1 1 231.9011465000768 528.008070958691 L 277.4228390134342 512.9158375017323 A 5 5 0 0 0 278.6485584243372 504.0268649381845 L 229.44970767827084 470.7860160857866 A 10 10 0 1 1 241.69487228881485 455.0286983798172 L 277.5259761190652 486.90552379116923 A 5 5 0 0 0 285.836911878092 483.52254165714896 L 290.0249060545941 424.29466264785765 A 10 10 0 0 1 309.9777530313972 424.3333333333333 L 314.96662954709575 499.0 A 15 15 0 0 1 306.61728936976345 513.4614813968158 L 239.45962096267607 546.4743209312105" /><path d="M 429.4818679312789 470.8076542645438 A 10 10 0 1 1 441.69487228881485 455.0286983798172 L 477.5259761190652 486.90552379116923 A 5 5 0 0 0 485.836911878092 483.52254165714896 L 490.0249060545941 424.29466264785765 A 10 10 0 1 1 509.7937257887381 427.0206274211262 L 500.103137105631 473.9896862894369 A 5 5 0 0 0 507.1883534537548 479.4956767189645 L 560.5751983763233 453.50864656207096 A 10 10 0 0 1 570.5181320687211 470.8076542645438 L 508.3493401773323 512.4614813968158 A 15 15 0 0 1 491.65065982266765 512.4614813968158 L 429.4818679312789 470.8076542645438" /><path d="M 729.1923457354562 429.4818679312789 A 10 10 0 1 1 744.9713016201829 441.69487228881485 L 713.0944762088308 477.5259761190652 A 5 5 0 0 0 716.477458342851 485.836911878092 L 775.7053373521424 490.0249060545941 A 10 10 0 1 1 772.9793725788738 509.7937257887381 L 726.0103137105631 500.103137105631 A 5 5 0 0 0 720.5043232810355 507.1883534537548 L 746.491353437929 560.5751983763233 A 10 10 0 0 1 729.1923457354562 570.5181320687211 L 687.5385186031842 508.3493401773323 A 15 15 0 0 1 687.5385186031842 491.65065982266765 L 729.1923457354562 429.4818679312789" /><path d="M 975.6666666666666 490.0222469686028 A 10 10 0 1 1 972.9793725788738 509.7937257887381 L 926.0103137105631 500.103137105631 A 5 5 0 0 0 920.5043232810355 507.1883534537548 L 946.491353437929 560.5751983763233 A 10 10 0 1 1 928.008070958691 568.0988534999233 L 912.9158375017323 522.5771609865658 A 5 5 0 0 0 904.0268649381844 521.3514415756629 L 870.7860160857866 570.5502923217292 A 10 10 0 0 1 853.5256790687895 560.540379037324 L 886.5385186031842 493.38271063023655 A 15 15 0 0 1 901.0 485.03337045290425 L 975.6666666666666 490.0222469686028" /><path d="M 1029.4818679312789 470.8076542645438 A 10 10 0 1 1 1041.6948722888148 455.0286983798172 L 1077.525976119065 486.90552379116923 A 5 5 0 0 0 1085.8369118780918 483.522541657149 L 1090.024906054594 424.29466264785765 A 10 10 0 1 1 1109.7937257887381 427.0206274211262 L 1100.103137105631 473.9896862894369 A 5 5 0 0 0 1107.1883534537549 479.4956767189645 L 1160.5751983763234 453.50864656207096 A 10 10 0 0 1 1170.5181320687211 470.8076542645438 L 1108.3493401773324 512.4614813968158 A 15 15 0 0 1 1091.6506598226676 512.4614813968158 L 1029.4818679312789 470.8076542645438" /><path d="M 1290.0222469686028 424.3333333333333 A 10 10 0 1 1 1309.7937257887381 427.0206274211262 L 1300.103137105631 473.9896862894369 A 5 5 0 0 0 1307.1883534537549 479.4956767189645 L 1360.5751983763234 453.50864656207096 A 10 10 0 1 1 1368.0988534999233 471.99192904130905 L 1322.577160986566 487.0841624982677 A 5 5 0 0 0 1321.3514415756629 495.9731350618155 L 1370.5502923217293 529.2139839142134 A 10 10 0 0 1 1360.540379037324 546.4743209312105 L 1293.3827106302365 513.4614813968158 A 15 15 0 0 1 1285.0333704529041 499.0 L 1290.0222469686028 424.3333333333333" /><path d="M 53.52567906878949 639.4596209626761 A 10 10 0 1 1 71.99192904130902 631.9011465000768 L 87.08416249826766 677.4228390134342 A 5 5 0 0 0 95.97313506181551 678.6485584243372 L 129.21398391421334 629.4497076782708 A 10 10 0 1 1 144.97130162018286 641.6948722888148 L 113.09447620883076 677.5259761190651 A 5 5 0 0 0 116.47745834285105 685.836911878092 L 175.70533735214238 690.0249060545941 A 10 10 0 0 1 175.66666666666666 709.9777530313971 L 101.0 714.9666295470957 A 15 15 0 0 1 86.53851860318429 706.6172893697635 L 53.52567906878949 639.4596209626761" /><path d="M 309.9777530313972 775.6666666666666 A 10 10 0 1 1 290.2062742112619 772.9793725788738 L 299.896862894369 726.0103137105631 A 5 5 0 0 0 292.8116465462452 720.5043232810355 L 239.4248016236767 746.491353437929 A 10 10 0 1 1 231.9011465000768 728.008070958691 L 277.4228390134342 712.9158375017323 A 5 5 0 0 0 278.6485584243372 704.0268649381844 L 229.4497076782708 670.7860160857866 A 10 10 0 0 1 239.45962096267607 653.5256790687895 L 306.61728936976345 686.5385186031842 A 15 15 0 0 1 314.96662954709575 701.0 L 309.9777530313972 775.6666666666666" /><path d="M 560.540379037324 653.5256790687895 A 10 10 0 1 1 568.0988534999233 671.991929041309 L 522.5771609865658 687.0841624982677 A 5 5 0 0 0 521.3514415756629 695.9731350618156 L 570.5502923217292 729.2139839142134 A 10 10 0 1 1 558.3051277111853 744.9713016201829 L 522.4740238809349 713.0944762088308 A 5 5 0 0 0 514.163088121908 716.477458342851 L 509.9750939454059 775.7053373521424 A 10 10 0 0 1 490.0222469686028 775.6666666666666 L 485.03337045290425 701.0 A 15 15 0 0 1 493.38271063023655 686.5385186031842 L 560.540379037324 653.5256790687895" /><path d="M 709.9777530313971 775.6666666666666 A 10 10 0 1 1 690.206274211262 772.9793725788738 L 699.8968628943691 726.0103137105631 A 5 5 0 0 0 692.8116465462452 720.5043232810355 L 639.4248016236768 746.491353437929 A 10 10 0 1 1 631.9011465000768 728.008070958691 L 677.4228390134342 712.9158375017323 A 5 5 0 0 0 678.6485584243371 704.0268649381844 L 629.4497076782708 670.7860160857866 A 10 10 0 0 1 639.459620962676 653.5256790687895 L 706.6172893697634 686.5385186031842 A 15 15 0 0 1 714.9666295470957 701.0 L 709.9777530313971 775.6666666666666" /><path d="M 909.9777530313971 775.6666666666666 A 10 10 0 1 1 890.206274211262 772.9793725788738 L 899.8968628943691 726.0103137105631 A 5 5 0 0 0 892.8116465462452 720.5043232810355 L 839.4248016236768 746.491353437929 A 10 10 0 1 1 831.9011465000768 728.008070958691 L 877.4228390134342 712.9158375017323 A 5 5 0 0 0 878.6485584243372 704.0268649381844 L 829.4497076782708 670.7860160857866 A 10 10 0 0 1 839.459620962676 653.5256790687895 L 906.6172893697634 686.5385186031842 A 15 15 0 0 1 914.9666295470957 701.0 L 909.9777530313971 775.6666666666666" /><path d="M 1129.1923457354562 629.4818679312789 A 10 10 0 1 1 1144.9713016201829 641.6948722888148 L 1113.0944762088307 677.5259761190653 A 5 5 0 0 0 1116.4774583428512 685.836911878092 L 1175.7053373521424 690.0249060545941 A 10 10 0 1 1 1172.9793725788738 709.793725788738 L 1126.0103137105632 700.1031371056309 A 5 5 0 0 0 1120.5043232810356 707.1883534537548 L 1146.491353437929 760.5751983763233 A 10 10 0 0 1 1129.1923457354562 770.5181320687211 L 1087.5385186031842 708.3493401773324 A 15 15 0 0 1 1087.5385186031842 691.6506598226676 L 1129.1923457354562 629.4818679312789" /><path d="M 1370.5181320687211 729.1923457354562 A 10 10 0 1 1 1358.3051277111852 744.9713016201829 L 1322.474023880935 713.0944762088308 A 5 5 0 0 0 1314.1630881219082 716.477458342851 L 1309.975093945406 775.7053373521424 A 10 10 0 1 1 1290.2062742112619 772.9793725788738 L 1299.896862894369 726.0103137105631 A 5 5 0 0 0 1292.8116465462451 720.5043232810355 L 1239.4248016236766 746.491353437929 A 10 10 0 0 1 1229.4818679312789 729.1923457354562 L 1291.6506598226676 687.5385186031842 A 15 15 0 0 1 1308.3493401773324 687.5385186031842 L 1370.5181320687211 729.1923457354562" /></svg>