<?xml version="1.0" encoding="utf-8" ?>
<svg baseProfile="tiny" height="100%" version="1.2" width="100%" xmlns="http://www.w3.org/2000/svg" xmlns:ev="http://www.w3.org/2001/xml-events" xmlns:xlink="http://www.w3.org/1999/xlink"><defs /><path d="M 171.9492987485883 125.46170476591058 A 10 10 0 0 1 163.56040897432734 143.50123174472458 L 116.14680366286849 127.12267234854974 A 5 5 0 0 0 109.87648433033189 129.98022149896022 L 91.13141615529783 176.50902543413733 A 10 10 0 0 1 72.01373151939765 171.00227843231963 L 80.17232581378447 125.63368786071923 A 5 5 0 0 0 74.3663121392808 119.82767418621556 L 28.99772156768037 127.98626848060235 A 10 10 0 0 1 24.16711978460199 108.62405230950617 L 95.40894888295259 85.7198652092966 A 15 15 0 0 1 107.68571415169104 87.11862592816682 L 171.9492987485883 125.46170476591058" /><circle cx="166.8254893141276" cy="134.04928748046603" fill-opacity="0" r="10" stroke="blue" /><circle cx="114.51426349296837" cy="131.848644480679" fill-opacity="0" r="5" stroke="blue" /><circle cx="81.85585783002489" cy="172.77217947069974" fill-opacity="0" r="10" stroke="blue" /><circle cx="75.25126265847085" cy="124.74873734152918" fill-opacity="0" r="5" stroke="blue" /><circle cx="27.22782052930026" cy="118.14414216997511" fill-opacity="0" r="10" stroke="blue" /><circle cx="100.0" cy="100.0" fill-opacity="0" r="15" stroke="blue" /><path d="M 308.62405230950617 24.167119784601983 A 10 10 0 0 1 328.1105597697383 28.046673524123463 L 323.86120780188895 79.76635521021926 A 5 5 0 0 0 327.44082684607366 84.97473323871581 L 377.24814088449295 99.54229769321609 A 10 10 0 0 1 374.4760272805951 119.14013927430359 L 325.1593600581048 119.3130737066061 A 5 5 0 0 0 320.17935770731066 124.47001710360175 L 321.7276554871015 173.7626772695616 A 10 10 0 0 1 301.98196418692874 176.2959488961356 L 285.37406896336705 103.32898502725038 A 15 15 0 0 1 285.7198652092966 95.40894888295259 L 308.62405230950617 24.167119784601983" /><circle cx="318.1441421699751" cy="27.22782052930026" fill-opacity="0" r="10" stroke="blue" /><circle cx="328.84441660177055" cy="80.17578170763085" fill-opacity="0" r="5" stroke="blue" /><circle cx="374.4409613730992" cy="109.14020075538602" fill-opacity="0" r="10" stroke="blue" /><circle cx="325.17689301185277" cy="124.3130429660649" fill-opacity="0" r="5" stroke="blue" /><circle cx="311.73258487801735" cy="174.07662554463533" fill-opacity="0" r="10" stroke="blue" /><circle cx="300.0" cy="100.0" fill-opacity="0" r="15" stroke="blue" /><path d="M 578.2515286245803 101.264746111475 A 10 10 0 0 1 575.1378035618443 120.40026642039186 L 516.800975400508 125.48130743370302 A 5 5 0 0 0 513.188601484419 127.52509026006177 L 478.78761160170916 174.91258220460247 A 10 10 0 0 1 460.85160762238934 167.275941479061 L 471.11437495034016 109.93962784352425 A 5 5 0 0 0 470.0145009810403 105.8348423081748 L 432.45852694413765 61.31152180442326 A 10 10 0 0 1 443.77350291944276 45.562124023249396 L 511.55833704628327 72.31509098227846 A 5 5 0 0 0 511.4032083982969 72.25083459236991 L 578.2515286245803 101.264746111475" /><circle cx="574.2701051556178" cy="110.43798257200488" fill-opacity="0" r="10" stroke="blue" /><circle cx="517.2348246036213" cy="130.4624493578965" fill-opacity="0" r="5" stroke="blue" /><circle cx="470.69516536330445" cy="169.037864008933" fill-opacity="0" r="10" stroke="blue" /><circle cx="466.1925960798826" cy="109.05866657858823" fill-opacity="0" r="5" stroke="blue" /><circle cx="440.10233674645303" cy="54.863873263596396" fill-opacity="0" r="10" stroke="blue" /><circle cx="513.3939201327781" cy="67.66421636210497" fill-opacity="0" r="5" stroke="blue" /><path d="M 753.4807680501026 45.554043172884484 A 10 10 0 0 1 765.7690651746537 61.27752505259826 L 710.0023879812243 111.17820355303391 A 15 15 0 0 1 707.3127401060123 113.0967107375066 L 641.9748674747681 149.57906811779807 A 10 10 0 0 1 629.8031327672632 134.00979933183717 L 671.5511847149357 89.46284673476133 A 5 5 0 0 0 672.8915685848043 86.38017488120819 L 676.9990442984129 25.466633936900784 A 10 10 0 0 1 696.6875000665257 23.753150161860905 L 707.6873215383129 68.51781925370962 A 5 5 0 0 0 715.3528974692863 71.46035816144351 L 753.4807680501026 45.554043172884484" /><circle cx="759.1008065205042" cy="53.82538935057565" fill-opacity="0" r="10" stroke="blue" /><circle cx="700.0" cy="100.0" fill-opacity="0" r="15" stroke="blue" /><circle cx="637.0997074040932" cy="140.84792762612702" fill-opacity="0" r="10" stroke="blue" /><circle cx="667.9028973965206" cy="86.04378258761639" fill-opacity="0" r="5" stroke="blue" /><circle cx="686.9763866749803" cy="26.13941852408439" fill-opacity="0" r="10" stroke="blue" /><circle cx="712.5428782340855" cy="67.32468507259793" fill-opacity="0" r="5" stroke="blue" /><path d="M 920.910772845273 25.52708984206523 A 10 10 0 0 1 939.1918162567141 32.46133392510242 L 929.757079338074 94.68198430528048 A 5 5 0 0 0 930.1195351915261 97.43510984481988 L 955.3366805625388 155.09375337546078 A 10 10 0 0 1 940.2165315185181 167.1320762252183 L 880.7163018557314 122.99122556621312 A 5 5 0 0 0 881.1106910734808 123.31633494857799 L 826.4276531194674 73.33176345951838 A 10 10 0 0 1 836.1111547537362 56.39162670452632 L 886.5609729496697 71.89030117999702 A 5 5 0 0 0 892.226325879313 69.82828134699409 L 920.910772845273 25.52708984206523" /><circle cx="929.3048346366955" cy="30.962135991066987" fill-opacity="0" r="10" stroke="blue" /><circle cx="934.7005701480833" cy="95.43158327229818" fill-opacity="0" r="5" stroke="blue" /><circle cx="946.1746106494244" cy="159.10080652050416" fill-opacity="0" r="10" stroke="blue" /><circle cx="877.7372622902783" cy="127.0068604185702" fill-opacity="0" r="5" stroke="blue" /><circle cx="833.1745106858724" cy="65.95071251953398" fill-opacity="0" r="10" stroke="blue" /><circle cx="888.0292949836016" cy="67.1107582724932" fill-opacity="0" r="5" stroke="blue" /><path d="M 1175.7605620449574 118.69046663240823 A 10 10 0 0 1 1167.408403904145 136.53094959125767 L 1121.1292823339415 124.01773991409046 A 5 5 0 0 0 1114.850434287117 128.33307261862603 L 1109.9475680105043 176.0226879662892 A 10 10 0 0 1 1090.330869077238 177.55106001467837 L 1069.8558865157124 99.94595237724837 A 5 5 0 0 0 1069.9330862326997 102.15666302626569 L 1084.9447341124542 23.31233494715692 A 10 10 0 0 1 1104.2764625440964 22.085250610593956 L 1123.3808910841497 80.72992527366267 A 5 5 0 0 0 1125.263975092769 83.2747672554477 L 1175.7605620449574 118.69046663240823" /><circle cx="1170.01853198729" cy="126.8775962158975" fill-opacity="0" r="10" stroke="blue" /><circle cx="1119.824218292369" cy="128.84441660177055" fill-opacity="0" r="5" stroke="blue" /><circle cx="1100.0" cy="175.0" fill-opacity="0" r="10" stroke="blue" /><circle cx="1065.0213210543316" cy="101.22148238458753" fill-opacity="0" r="5" stroke="blue" /><circle cx="1094.7682644691906" cy="25.182696230513187" fill-opacity="0" r="10" stroke="blue" /><circle cx="1128.1349901216026" cy="79.18120246370306" fill-opacity="0" r="5" stroke="blue" /><path d="M 1356.2804149960698 46.9341008156029 A 10 10 0 0 1 1368.3954123404117 62.27337846540008 L 1327.9890755995336 111.3356272993006 A 5 5 0 0 0 1326.917592280789 113.68678285757008 L 1316.3987851058546 176.36956362767748 A 10 10 0 0 1 1297.1669029378543 178.2084919622019 L 1271.493560951893 109.35871817151781 A 5 5 0 0 0 1271.6015283181175 109.68139861542008 L 1250.6703426818406 39.244921505784504 A 10 10 0 0 1 1267.696543607345 29.715140510446655 L 1302.9580706257616 68.98367471824244 A 5 5 0 0 0 1308.8762446292048 70.13405121056256 L 1356.2804149960698 46.9341008156029" /><circle cx="1360.6762745781211" cy="55.91610607806451" fill-opacity="0" r="10" stroke="blue" /><circle cx="1331.848644480679" cy="114.51426349296837" fill-opacity="0" r="5" stroke="blue" /><circle cx="1306.5366807060743" cy="174.7146023568809" fill-opacity="0" r="10" stroke="blue" /><circle cx="1266.808672067783" cy="111.10566297417826" fill-opacity="0" r="5" stroke="blue" /><circle cx="1260.2560551825097" cy="36.39639278826805" fill-opacity="0" r="10" stroke="blue" /><circle cx="1306.6783148381792" cy="65.64304857933176" fill-opacity="0" r="5" stroke="blue" /><path d="M 121.68519883134381 226.77168910295947 A 10 10 0 0 1 140.382190668756 233.04806256754713 L 130.049535155109 298.3018208638533 A 5 5 0 0 0 130.09722914049976 300.1231806836615 L 143.83084194775552 364.7467415652535 A 10 10 0 0 1 126.63139103777708 373.5318156084219 L 74.35547834325465 315.7092030783788 A 5 5 0 0 0 75.2183622326126 317.0379277474412 L 43.6573064498573 245.7629298468967 A 10 10 0 0 1 60.10082489974892 234.87942574341008 L 91.7816561580548 268.71674342557515 A 5 5 0 0 0 99.84160797196878 267.65563063883934 L 121.68519883134381 226.77168910295947" /><circle cx="130.505248230685" cy="231.48409067680493" fill-opacity="0" r="10" stroke="blue" /><circle cx="134.9880063741445" cy="299.0838068092244" fill-opacity="0" r="5" stroke="blue" /><circle cx="134.04928748046603" cy="366.8254893141276" fill-opacity="0" r="10" stroke="blue" /><circle cx="70.64653012191016" cy="319.0623662255259" fill-opacity="0" r="5" stroke="blue" /><circle cx="52.80097067126218" cy="241.7140528907272" fill-opacity="0" r="10" stroke="blue" /><circle cx="95.43158327229818" cy="265.2994298519166" fill-opacity="0" r="5" stroke="blue" /><path d="M 292.7604370801035 223.36073849449045 A 10 10 0 0 1 312.35659217096736 222.77647039147763 L 330.04517679995394 298.6931322100007 A 5 5 0 0 0 329.93466004756846 297.1126690183602 L 322.98377674807057 374.75229027710657 A 10 10 0 0 1 303.89755735659526 377.9489922259728 L 278.5529590925035 321.37536584753144 A 5 5 0 0 0 276.49990441542366 319.09521762953796 L 222.8854261903612 287.97590549976917 A 10 10 0 0 1 229.34887891523155 269.43193226835547 L 278.7057631144607 276.63203821956165 A 5 5 0 0 0 284.3560287560555 272.5268799364155 L 292.7604370801035 223.36073849449045" /><circle cx="302.6174622526876" cy="225.04568797356782" fill-opacity="0" r="10" stroke="blue" /><circle cx="334.91474175909383" cy="297.55852341895564" fill-opacity="0" r="5" stroke="blue" /><circle cx="313.02361332501977" cy="373.86058147591564" fill-opacity="0" r="10" stroke="blue" /><circle cx="273.9899311082912" cy="323.41957122256" fill-opacity="0" r="5" stroke="blue" /><circle cx="227.90537280462607" cy="279.3271983137251" fill-opacity="0" r="10" stroke="blue" /><circle cx="279.4275161697634" cy="271.68440519687687" fill-opacity="0" r="5" stroke="blue" /><path d="M 499.2502109605218 224.07981523015442 A 10 10 0 0 1 519.1248273576637 226.1133234030684 L 514.9769399034163 300.8314271642513 A 15 15 0 0 1 500.3082330165144 314.9968327458677 L 425.49088632079537 316.53456920331945 A 10 10 0 0 1 424.65743085949464 296.5564172967918 L 467.1226554595953 293.884468730463 A 5 5 0 0 0 470.06256658140984 285.09800056889526 L 437.7563490619418 257.4078774369387 A 10 10 0 0 1 450.75775027035536 242.21040335272684 L 484.49593556533864 271.0188739614855 A 5 5 0 0 0 492.6877365533507 267.9560850746793 L 499.2502109605218 224.07981523015442" /><circle cx="509.14020075538605" cy="225.55903862690084" fill-opacity="0" r="10" stroke="blue" /><circle cx="500.0" cy="300.0" fill-opacity="0" r="15" stroke="blue" /><circle cx="425.2853976431191" cy="306.5366807060743" fill-opacity="0" r="10" stroke="blue" /><circle cx="466.80867206778305" cy="288.89433702582176" fill-opacity="0" r="5" stroke="blue" /><circle cx="444.2641380891954" cy="249.81520452308567" fill-opacity="0" r="10" stroke="blue" /><circle cx="487.7427416559186" cy="267.2164733763061" fill-opacity="0" r="5" stroke="blue" /><path d="M 743.6260038395062 235.09731203651646 A 10 10 0 0 1 756.7198244404431 249.99365983080384 L 728.2163923844134 282.46577831859116 A 5 5 0 0 0 731.9109178567546 290.7638183915951 L 775.114923458202 291.30972868429996 A 10 10 0 0 1 777.3448295540858 311.02737040624595 L 698.5164450488787 330.13944734552115 A 5 5 0 0 0 700.9573231136474 330.16074856568576 L 622.4744962878192 309.6758374831206 A 10 10 0 0 1 622.3960858940671 290.3449686003139 L 686.787693559998 272.97887121916403 A 5 5 0 0 0 688.2749481744225 272.30109024270877 L 743.6260038395062 235.09731203651646" /><circle cx="749.2044271742881" cy="243.39678148329207" fill-opacity="0" r="10" stroke="blue" /><circle cx="731.974091017491" cy="285.76421749234703" fill-opacity="0" r="5" stroke="blue" /><circle cx="774.9885771367293" cy="301.3089304827962" fill-opacity="0" r="10" stroke="blue" /><circle cx="699.694571257557" cy="334.998667307246" fill-opacity="0" r="5" stroke="blue" /><circle cx="625.0" cy="300.0" fill-opacity="0" r="10" stroke="blue" /><circle cx="685.4857365070317" cy="268.151355519321" fill-opacity="0" r="5" stroke="blue" /><path d="M 927.9525406066997 226.89968980627125 A 10 10 0 0 1 944.6580194633431 237.05640927386506 L 927.8407887521703 285.53371769550733 A 5 5 0 0 0 930.2274447177623 291.5925968402321 L 975.5882334931661 315.5773320331218 A 10 10 0 0 1 970.2248719720025 334.3938458331795 L 904.003006813341 329.8201492134432 A 5 5 0 0 0 902.2844261332143 330.0007793215703 L 838.4605926096488 348.24282965089265 A 10 10 0 0 1 828.4627941828929 331.7400072569214 L 878.2367261467941 279.35151403138497 A 5 5 0 0 0 878.240810315691 279.34721021537325 L 927.9525406066997 226.89968980627125" /><circle cx="935.2103672089419" cy="233.77893053558046" fill-opacity="0" r="10" stroke="blue" /><circle cx="932.5646148793709" cy="287.1724570646496" fill-opacity="0" r="5" stroke="blue" /><circle cx="970.9138931699488" cy="324.41761158428676" fill-opacity="0" r="10" stroke="blue" /><circle cx="903.6584962143679" cy="334.80826633788956" fill-opacity="0" r="5" stroke="blue" /><circle cx="835.7124524473415" cy="338.62785561825405" fill-opacity="0" r="10" stroke="blue" /><circle cx="874.6118970145699" cy="275.90758985071864" fill-opacity="0" r="5" stroke="blue" /><path d="M 1146.0739202675588 363.21871226465197 A 10 10 0 0 1 1129.2206717680426 372.59788429143987 L 1079.7000822730288 322.09667642867845 A 5 5 0 0 0 1079.3732006424561 321.79185437678814 L 1025.540629482964 275.91468072921316 A 10 10 0 0 1 1036.1816750773608 259.20758855014435 L 1075.896406760701 277.3479122586576 A 5 5 0 0 0 1082.8543335493605 271.7134942410614 L 1073.3675764520008 229.09503935699658 A 10 10 0 0 1 1091.9380201654217 222.1898709012183 L 1128.2706403067962 289.82330888585903 A 5 5 0 0 0 1127.8187155528603 288.64600465131593 L 1146.0739202675588 363.21871226465197" /><circle cx="1136.3607215184752" cy="365.5964780354547" fill-opacity="0" r="10" stroke="blue" /><circle cx="1076.1300573978126" cy="325.597379556671" fill-opacity="0" r="5" stroke="blue" /><circle cx="1032.0269159722513" cy="268.3036303694475" fill-opacity="0" r="10" stroke="blue" /><circle cx="1077.9737863132557" cy="272.79989134900603" fill-opacity="0" r="5" stroke="blue" /><circle cx="1083.1286709242102" cy="226.92224514110734" fill-opacity="0" r="10" stroke="blue" /><circle cx="1132.675314927402" cy="287.4571217659145" fill-opacity="0" r="5" stroke="blue" /><path d="M 1313.195849481063 223.40357371871576 A 10 10 0 0 1 1331.922798770481 228.59582163179925 L 1329.7775544905426 295.8785483536098 A 5 5 0 0 0 1329.9414825913786 297.3173268292729 L 1347.1670647146038 362.3930266615335 A 10 10 0 0 1 1330.4230767876602 372.01711284247153 L 1283.9667099846938 325.4837112601071 A 5 5 0 0 0 1282.3780905190702 324.4121739005222 L 1221.83021056329 298.77029970580355 A 10 10 0 0 1 1225.0032554322145 279.58845261070513 L 1281.557833413945 275.468081805194 A 5 5 0 0 0 1285.5605278944322 272.91808418857727 L 1313.195849481063 223.40357371871576" /><circle cx="1321.9278778542052" cy="228.27714330277234" fill-opacity="0" r="10" stroke="blue" /><circle cx="1334.7750149486806" cy="296.0378875181232" fill-opacity="0" r="5" stroke="blue" /><circle cx="1337.5" cy="364.9519052838329" fill-opacity="0" r="10" stroke="blue" /><circle cx="1280.428248378524" cy="329.01631503942644" fill-opacity="0" r="5" stroke="blue" /><circle cx="1225.7298948443822" cy="289.5620174279951" fill-opacity="0" r="10" stroke="blue" /><circle cx="1281.1945137078612" cy="270.481299396549" fill-opacity="0" r="5" stroke="blue" /><path d="M 169.78001462210995 466.9444590175402 A 10 10 0 0 1 174.12202298776896 486.42582706920786 L 133.4704223003949 498.24940017250356 A 5 5 0 0 0 132.6579429081528 507.5360821207464 L 170.63881251453614 526.2391049597851 A 10 10 0 0 1 162.12542988425045 544.3331812720121 L 93.85654062974638 513.6842210946054 A 15 15 0 0 1 85.08709900789157 501.614120193657 L 77.03445268024129 427.215498653189 A 10 10 0 0 1 96.4265778252483 422.8692675759788 L 113.30123704671789 471.63421994947885 A 5 5 0 0 0 118.80094467186524 474.93877767759545 L 169.78001462210995 466.9444590175402" /><circle cx="171.32923872213655" cy="476.823725421879" fill-opacity="0" r="10" stroke="blue" /><circle cx="134.8668144332111" cy="503.050450996168" fill-opacity="0" r="5" stroke="blue" /><circle cx="166.22106946441954" cy="535.2103672089419" fill-opacity="0" r="10" stroke="blue" /><circle cx="100.0" cy="500.0" fill-opacity="0" r="15" stroke="blue" /><circle cx="86.97638667498025" cy="426.13941852408436" fill-opacity="0" r="10" stroke="blue" /><circle cx="118.0263326218519" cy="469.9991444754261" fill-opacity="0" r="5" stroke="blue" /><path d="M 377.2932349850967 512.1302916892873 A 10 10 0 0 1 370.38316917281554 530.5252588131556 L 322.8819426980235 522.2738800875537 A 5 5 0 0 0 317.02971897113196 527.0129174202755 L 315.22472496203414 575.1916862309239 A 10 10 0 0 1 295.7766726526085 578.0733421552044 L 274.26508208120396 515.6068054107625 A 5 5 0 0 0 273.3678941506086 514.0210311119898 L 230.90290966131545 463.40935425693453 A 10 10 0 0 1 241.93078393604733 447.56571449283837 L 313.38429475942945 473.1175414381715 A 5 5 0 0 0 312.468584493429 472.6807700462487 L 377.2932349850967 512.1302916892873" /><circle cx="372.09462719537396" cy="520.672801686275" fill-opacity="0" r="10" stroke="blue" /><circle cx="322.0262136867443" cy="527.200108650994" fill-opacity="0" r="5" stroke="blue" /><circle cx="305.23173553080943" cy="574.8173037694868" fill-opacity="0" r="10" stroke="blue" /><circle cx="269.5375506421035" cy="517.2348246036213" fill-opacity="0" r="5" stroke="blue" /><circle cx="238.5635966783256" cy="456.98176727367155" fill-opacity="0" r="10" stroke="blue" /><circle cx="315.0678883882903" cy="468.4095150477549" fill-opacity="0" r="5" stroke="blue" /><path d="M 575.8822771237246 518.7771954248909 A 10 10 0 0 1 568.9257220962063 536.8177051962834 L 504.81183196472205 529.7690608172533 A 5 5 0 0 0 502.53288763220365 530.0488799964437 L 442.0286754522786 552.3987033483335 A 10 10 0 0 1 431.0803542050792 536.3849015807726 L 470.749169048397 491.6334254995959 A 5 5 0 0 0 472.0025789203592 488.0939052112224 L 469.3371360965541 428.3510822358173 A 10 10 0 0 1 487.907833696793 422.76993743624257 L 521.5143890968204 478.92206041764365 A 5 5 0 0 0 522.8728342201371 480.4045431289552 L 575.8822771237246 518.7771954248909" /><circle cx="570.0185319872901" cy="526.8775962158975" fill-opacity="0" r="10" stroke="blue" /><circle cx="504.26542701918015" cy="534.7391153074462" fill-opacity="0" r="5" stroke="blue" /><circle cx="438.5635966783256" cy="543.0182327263284" fill-opacity="0" r="10" stroke="blue" /><circle cx="467.00754781177375" cy="488.316759926818" fill-opacity="0" r="5" stroke="blue" /><circle cx="479.3271983137251" cy="427.90537280462604" fill-opacity="0" r="10" stroke="blue" /><circle cx="525.8047067883543" cy="476.3543427334519" fill-opacity="0" r="5" stroke="blue" /><path d="M 712.1309654176044 422.70565808560303 A 10 10 0 0 1 730.6447845485358 428.65340876283705 L 726.4718001893405 484.2829918832768 A 5 5 0 0 0 728.6828389695974 488.81629318831847 L 775.088694394256 519.7769278543211 A 10 10 0 0 1 768.293245889276 538.0176224094649 L 703.6732225977846 529.9057504815753 A 5 5 0 0 0 701.5756609800495 530.0892633441742 L 639.3459728205049 549.2990469955641 A 10 10 0 0 1 629.0436570361464 532.9662404155949 L 675.7241250244056 482.32532639062606 A 5 5 0 0 0 676.31867528268 481.5363315491898 L 712.1309654176044 422.70565808560303" /><circle cx="720.672801686275" cy="427.90537280462604" fill-opacity="0" r="10" stroke="blue" /><circle cx="731.4577916204709" cy="484.6570098623823" fill-opacity="0" r="5" stroke="blue" /><circle cx="769.5387890925091" cy="528.0954945061934" fill-opacity="0" r="10" stroke="blue" /><circle cx="703.050450996168" cy="534.8668144332111" fill-opacity="0" r="5" stroke="blue" /><circle cx="636.396392788268" cy="539.7439448174904" fill-opacity="0" r="10" stroke="blue" /><circle cx="672.0477571483448" cy="478.93647418967834" fill-opacity="0" r="5" stroke="blue" /><path d="M 909.9777530313971 575.6666666666666 A 10 10 0 0 1 890.1615773081206 576.7903739653809 L 880.6061683798747 524.2817060291624 A 5 5 0 0 0 876.4099206927564 520.229436741402 L 823.5997606559254 512.5123747935893 A 10 10 0 0 1 822.9797979842995 492.8331841213055 L 874.6181096868371 481.93007305102327 A 5 5 0 0 0 878.5734519548245 477.37997226618484 L 882.1837907296831 424.72678128567435 A 10 10 0 0 1 902.0137734690492 423.7048840592312 L 914.7801123211848 497.44103931777755 A 15 15 0 0 1 914.9666295470957 501.0 L 909.9777530313971 575.6666666666666" /><circle cx="900.0" cy="575.0" fill-opacity="0" r="10" stroke="blue" /><circle cx="875.6869570339351" cy="525.1768930118528" fill-opacity="0" r="5" stroke="blue" /><circle cx="825.0456879735679" cy="502.6174622526876" fill-opacity="0" r="10" stroke="blue" /><circle cx="873.585164692203" cy="477.03793398533224" fill-opacity="0" r="5" stroke="blue" /><circle cx="892.160365254926" cy="425.4108578473795" fill-opacity="0" r="10" stroke="blue" /><circle cx="900.0" cy="500.0" fill-opacity="0" r="15" stroke="blue" /><path d="M 1177.946788591735 497.073437491234 A 10 10 0 0 1 1176.2200191930895 516.4227173309944 L 1116.482116185517 525.5194310454365 A 5 5 0 0 0 1113.3855044340378 527.2714096790398 L 1074.8208043299862 573.791632830151 A 10 10 0 0 1 1057.2968395622297 565.5486397525236 L 1069.9979204552008 498.4889802789126 A 5 5 0 0 0 1070.0796053307452 497.3208321355314 L 1066.8350312422008 429.1461438447119 A 10 10 0 0 1 1085.3173426248352 423.39264922812015 L 1117.5412036808386 475.24777053503715 A 5 5 0 0 0 1120.1719191648897 477.34033611758565 L 1177.946788591735 497.073437491234" /><circle cx="1174.714602356881" cy="506.5366807060743" fill-opacity="0" r="10" stroke="blue" /><circle cx="1117.2348246036213" cy="530.4624493578965" fill-opacity="0" r="5" stroke="blue" /><circle cx="1067.1221639908192" cy="567.4095534724376" fill-opacity="0" r="10" stroke="blue" /><circle cx="1065.0852582409061" cy="497.55852341895564" fill-opacity="0" r="5" stroke="blue" /><circle cx="1076.8237254218789" cy="428.6707612778635" fill-opacity="0" r="10" stroke="blue" /><circle cx="1121.7880122823167" cy="472.6087145101655" fill-opacity="0" r="5" stroke="blue" /><path d="M 1356.28099806413 551.5504535082416 A 10 10 0 0 1 1341.2461626828017 564.6309311312101 L 1306.8360553600523 531.2500679942079 A 5 5 0 0 0 1299.2523363104433 531.9802970832923 L 1271.8438085370542 571.3136177545726 A 10 10 0 0 1 1254.091148371473 562.6244061316264 L 1270.6711127875426 509.3593228539494 A 5 5 0 0 0 1269.5365136962084 504.444834262851 L 1231.2846647509423 463.83867255204007 A 10 10 0 0 1 1243.740499342006 448.42608618969115 L 1307.7653539955204 487.16647837402945 A 15 15 0 0 1 1312.1078910064596 491.1456804114774 L 1356.28099806413 551.5504535082416" /><circle cx="1348.2090707264904" cy="557.4533332339233" fill-opacity="0" r="10" stroke="blue" /><circle cx="1303.3546013382079" cy="534.8388669428513" fill-opacity="0" r="5" stroke="blue" /><circle cx="1263.6392784815248" cy="565.5964780354547" fill-opacity="0" r="10" stroke="blue" /><circle cx="1265.8970477325167" cy="507.87328690203526" fill-opacity="0" r="5" stroke="blue" /><circle cx="1238.5635966783257" cy="456.98176727367155" fill-opacity="0" r="10" stroke="blue" /><circle cx="1300.0" cy="500.0" fill-opacity="0" r="15" stroke="blue" /><path d="M 107.2992725777389 624.0281590335218 A 10 10 0 0 1 126.82858127559113 627.845894765994 L 122.22148255109335 677.5119615008124 A 5 5 0 0 0 126.61672691286495 682.9396362654409 L 176.1553406129874 688.7593696128333 A 10 10 0 0 1 175.0503276025461 708.6908788593847 L 132.06622737057097 708.956312741293 A 5 5 0 0 0 128.41934695632426 717.3435634826602 L 157.54030677122455 748.9611697702512 A 10 10 0 0 1 143.21596701264608 762.9077117304539 L 89.54675730359756 710.757774729474 A 15 15 0 0 1 85.64191525292355 695.6588708386215 L 107.2992725777389 624.0281590335218" /><circle cx="116.87132907578987" cy="626.9222451411074" fill-opacity="0" r="10" stroke="blue" /><circle cx="127.20010865099397" cy="677.9737863132557" fill-opacity="0" r="5" stroke="blue" /><circle cx="174.98857713672936" cy="698.6910695172037" fill-opacity="0" r="10" stroke="blue" /><circle cx="132.09710260347936" cy="713.9562174123836" fill-opacity="0" r="5" stroke="blue" /><circle cx="150.18479547691436" cy="755.7358619108046" fill-opacity="0" r="10" stroke="blue" /><circle cx="100.0" cy="700.0" fill-opacity="0" r="15" stroke="blue" /><path d="M 302.62986539611023 621.7832659986079 A 10 10 0 0 1 321.66914942898524 624.7987923443347 L 329.8985321577272 697.5118400593469 A 5 5 0 0 0 329.8763707120528 697.2585335761842 L 334.39849902660336 770.2959240252444 A 10 10 0 0 1 315.07240642902127 774.4729858360646 L 299.19739630122467 732.7895455877718 A 5 5 0 0 0 290.6307946532693 731.4327291802772 L 262.65187140424166 766.1703887346521 A 10 10 0 0 1 245.5624481908857 756.2256758329872 L 272.4330426655199 688.1604042131553 A 5 5 0 0 0 272.3336898701181 688.3944647312538 L 302.62986539611023 621.7832659986079" /><circle cx="311.73258487801735" cy="625.9233744553646" fill-opacity="0" r="10" stroke="blue" /><circle cx="334.8668144332111" cy="696.949549003832" fill-opacity="0" r="5" stroke="blue" /><circle cx="324.41761158428676" cy="770.9138931699488" fill-opacity="0" r="10" stroke="blue" /><circle cx="294.5247937235919" cy="734.5690919208298" fill-opacity="0" r="5" stroke="blue" /><circle cx="254.8638732635964" cy="759.897663253547" fill-opacity="0" r="10" stroke="blue" /><circle cx="267.78233012916456" cy="686.3244105028755" fill-opacity="0" r="5" stroke="blue" /><path d="M 494.07543181431356 623.3759000281779 A 10 10 0 0 1 513.7974783126023 623.5096571140882 L 522.8312261130025 679.4899138743542 A 5 5 0 0 0 525.7203780292615 683.2551299576156 L 577.455047816899 706.4698168654902 A 10 10 0 0 1 571.9386769522049 725.491699793586 L 497.8664103457541 714.8474844733812 A 15 15 0 0 1 493.9414185964142 713.7220112001165 L 425.48399917199964 683.4964967173192 A 10 10 0 0 1 431.78205729751767 664.6069851790007 L 479.5527035858476 675.6847482634362 A 5 5 0 0 0 485.6070879660316 671.6774386602636 L 494.07543181431356 623.3759000281779" /><circle cx="503.9251967182208" cy="625.1027848934069" fill-opacity="0" r="10" stroke="blue" /><circle cx="527.7673669101932" cy="678.6933499846948" fill-opacity="0" r="5" stroke="blue" /><circle cx="573.3610700550355" cy="715.593376811332" fill-opacity="0" r="10" stroke="blue" /><circle cx="500.0" cy="700.0" fill-opacity="0" r="15" stroke="blue" /><circle cx="429.52305344105685" cy="674.3484892505749" fill-opacity="0" r="10" stroke="blue" /><circle cx="480.68220551407796" cy="670.8139962276491" fill-opacity="0" r="5" stroke="blue" /><path d="M 722.7852297539553 625.1278878229816 A 10 10 0 0 1 739.7892712909371 635.1998565220522 L 723.1253553800672 676.8354670620712 A 5 5 0 0 0 728.3605030157947 683.6580442915209 L 772.8903533334325 678.3380265083305 A 10 10 0 0 1 778.2141602901586 697.3713047428859 L 711.0424633967953 727.899490099386 A 5 5 0 0 0 711.4373309139788 727.7399532667134 L 641.9113963894819 752.4411960125766 A 10 10 0 0 1 630.8511262036719 736.6528734137999 L 676.8493748187566 680.9199419465426 A 5 5 0 0 0 676.8531488197947 680.91536371719 L 722.7852297539553 625.1278878229816" /><circle cx="730.505248230685" cy="631.484090676805" fill-opacity="0" r="10" stroke="blue" /><circle cx="727.7673669101932" cy="678.6933499846948" fill-opacity="0" r="5" stroke="blue" /><circle cx="774.0766255446354" cy="688.2674151219827" fill-opacity="0" r="10" stroke="blue" /><circle cx="713.1112307695569" cy="732.4514349098375" fill-opacity="0" r="5" stroke="blue" /><circle cx="638.5635966783257" cy="743.0182327263284" fill-opacity="0" r="10" stroke="blue" /><circle cx="672.9931395814298" cy="677.7372622902783" fill-opacity="0" r="5" stroke="blue" /><path d="M 978.0682863838382 702.563798494598 A 10 10 0 0 1 975.2027623885634 721.6689733471114 L 903.3990440599127 729.8068207141334 A 5 5 0 0 0 903.3931489654178 729.8074923753107 L 831.5991379404087 738.030539652933 A 10 10 0 0 1 825.0606096052212 719.679230158282 L 870.4826307802995 690.5325426768311 A 5 5 0 0 0 872.6851935370432 685.343629995481 L 862.0987786780494 632.4227719222798 A 10 10 0 0 1 879.940368161859 624.5093279129924 L 917.7700809482905 675.5846560074149 A 5 5 0 0 0 919.7921818627153 677.1931077018752 L 978.0682863838382 702.563798494598" /><circle cx="974.0766255446354" cy="711.7325848780173" fill-opacity="0" r="10" stroke="blue" /><circle cx="903.9621124818767" cy="734.7750149486806" fill-opacity="0" r="5" stroke="blue" /><circle cx="830.4612109074909" cy="728.0954945061934" fill-opacity="0" r="10" stroke="blue" /><circle cx="867.7823301291646" cy="686.3244105028755" fill-opacity="0" r="5" stroke="blue" /><circle cx="871.9045054938066" cy="630.4612109074909" fill-opacity="0" r="10" stroke="blue" /><circle cx="921.7880122823167" cy="672.6087145101656" fill-opacity="0" r="5" stroke="blue" /><path d="M 1143.83363941063 764.7599488747519 A 10 10 0 0 1 1126.5365261339539 773.4253693850344 L 1085.2092064250937 726.3817433300214 A 5 5 0 0 0 1082.772103305336 724.8588722830422 L 1022.3728677562742 708.3366916820693 A 10 10 0 0 1 1023.9758294696854 688.7448367467946 L 1072.7504297865994 683.6664663698995 A 5 5 0 0 0 1077.1703102900383 677.9063659528915 L 1069.451843913262 629.4793408682326 A 10 10 0 0 1 1087.8917155080921 622.7431014801613 L 1128.2823562821873 689.753592726882 A 5 5 0 0 0 1127.6724389142887 688.2052272843374 L 1143.83363941063 764.7599488747519" /><circle cx="1134.049287480466" cy="766.8254893141276" fill-opacity="0" r="10" stroke="blue" /><circle cx="1081.4528257518377" cy="729.6816833654749" fill-opacity="0" r="5" stroke="blue" /><circle cx="1025.0114228632706" cy="698.6910695172038" fill-opacity="0" r="10" stroke="blue" /><circle cx="1072.2326330898068" cy="678.6933499846948" fill-opacity="0" r="5" stroke="blue" /><circle cx="1079.3271983137251" cy="627.905372804626" fill-opacity="0" r="10" stroke="blue" /><circle cx="1132.5646148793708" cy="687.1724570646496" fill-opacity="0" r="5" stroke="blue" /><path d="M 1347.0162100785972 637.4378132801373 A 10 10 0 0 1 1360.4735536717883 651.5151510956305 L 1330.8115793635643 696.9617531970423 A 5 5 0 0 0 1330.8599113288499 702.500047857226 L 1361.3105205457832 747.4220553896528 A 10 10 0 0 1 1347.9916705184348 761.6692641698756 L 1292.2876593699823 729.1525386682639 A 5 5 0 0 0 1290.0919274131777 728.4812360408094 L 1225.7280870844784 724.2895354890343 A 10 10 0 0 1 1221.924072044474 705.3573026057226 L 1285.5263879893891 673.7180870805904 A 5 5 0 0 0 1285.8410272438275 673.5472519040632 L 1347.0162100785972 637.4378132801373" /><circle cx="1352.0993777844249" cy="646.0495149746012" fill-opacity="0" r="10" stroke="blue" /><circle cx="1334.998667307246" cy="699.694571257557" fill-opacity="0" r="5" stroke="blue" /><circle cx="1353.0330085889912" cy="753.033008588991" fill-opacity="0" r="10" stroke="blue" /><circle cx="1289.7669903347041" cy="733.4706664587062" fill-opacity="0" r="5" stroke="blue" /><circle cx="1226.3779612414253" cy="714.3106746532409" fill-opacity="0" r="10" stroke="blue" /><circle cx="1283.2994433909137" cy="669.2414010568313" fill-opacity="0" r="5" stroke="blue" /></svg>