<?xml version="1.0" encoding="utf-8" ?>
<svg baseProfile="tiny" height="100%" version="1.2" width="100%" xmlns="http://www.w3.org/2000/svg" xmlns:ev="http://www.w3.org/2001/xml-events" xmlns:xlink="http://www.w3.org/1999/xlink"><defs /><circle cx="100" cy="100" fill="white" r="50" stroke="green" /><circle cx="300" cy="300" fill="white" r="50" stroke="green" /><circle cx="500" cy="100" fill="white" r="50" stroke="green" /><circle cx="700" cy="300" fill="white" r="50" stroke="green" /><circle cx="900" cy="100" fill="white" r="50" stroke="green" /><circle cx="1100" cy="300" fill="white" r="50" stroke="green" /><line stroke="red" x1="135.3553" x2="335.3553" y1="64.6447" y2="264.6447" /><line stroke="red" x1="79.4281" x2="320.5719" y1="145.5719" y2="254.4281" /><line stroke="blue" x1="145.5719" x2="254.4281" y1="79.4281" y2="320.5719" /><line stroke="blue" x1="64.6447" x2="264.6447" y1="135.3553" y2="335.3553" /><line stroke="red" x1="664.6447" x2="464.6447" y1="335.3553" y2="135.3553" /><line stroke="red" x1="720.5719" x2="479.4281" y1="254.4281" y2="145.5719" /><line stroke="blue" x1="654.4281" x2="545.5719" y1="320.5719" y2="79.4281" /><line stroke="blue" x1="735.3553" x2="535.3553" y1="264.6447" y2="64.6447" /><line stroke="red" x1="935.3553" x2="1135.3553" y1="64.6447" y2="264.6447" /><line stroke="red" x1="879.4281" x2="1120.5719" y1="145.5719" y2="254.4281" /><line stroke="blue" x1="945.5719" x2="1054.4281" y1="79.4281" y2="320.5719" /><line stroke="blue" x1="864.6447" x2="1064.6447" y1="135.3553" y2="335.3553" /></svg>