<?xml version="1.0" encoding="utf-8" ?>
<svg baseProfile="tiny" height="100%" version="1.2" width="100%" xmlns="http://www.w3.org/2000/svg" xmlns:ev="http://www.w3.org/2001/xml-events" xmlns:xlink="http://www.w3.org/1999/xlink"><defs /><path d="M 371.25744906533316 191.4054804806736 A 30 30 0 0 1 428.74255093466684 191.4054804806736 L 477.0216900668883 352.86483983977547 A 10 10 0 0 0 479.3310911436468 356.86483983977547 L 595.0194284612792 479.4054804806736 A 30 30 0 0 1 566.2768775266123 529.1890390386528 L 402.3094010767585 490.27032032044906 A 10 10 0 0 0 397.6905989232415 490.27032032044906 L 233.72312247338783 529.1890390386529 A 30 30 0 0 1 204.98057153872097 479.40548048067365 L 320.6689088563532 356.86483983977547 A 10 10 0 0 0 322.9783099331117 352.86483983977547 L 371.25744906533316 191.4054804806736" /><circle cx="400.0" cy="200.0" fill-opacity="0" r="30" stroke="blue" /><circle cx="486.6025" cy="350.0" fill-opacity="0" r="10" stroke="blue" /><circle cx="573.2051" cy="500.0" fill-opacity="0" r="30" stroke="blue" /><circle cx="400.0" cy="500.0" fill-opacity="0" r="10" stroke="blue" /><circle cx="226.7949" cy="500.0" fill-opacity="0" r="30" stroke="blue" /><circle cx="313.3975" cy="350.0" fill-opacity="0" r="10" stroke="blue" /></svg>